<svg width="161" height="48" viewBox="0 0 161 48" fill="none" xmlns="http://www.w3.org/2000/svg">
<path d="M159.932 42.0248C159.932 44.5462 157.887 46.5885 155.357 46.5885H5.64275C3.11428 46.5885 1.06201 44.5462 1.06201 42.0248V5.63026C1.06201 3.11007 3.11438 1.06055 5.64275 1.06055H155.356C157.887 1.06055 159.931 3.11007 159.931 5.63026L159.932 42.0248Z" fill="white"/>
<path d="M155.357 47.6502H5.64282C2.53205 47.6502 0 45.1276 0 42.0247V5.63142C0 2.52615 2.53205 0 5.64282 0H155.356C158.463 0 160.999 2.52615 160.999 5.63142V42.0247C161.001 45.1276 158.465 47.6502 155.357 47.6502Z" fill="#A6A6A6"/>
<path d="M159.932 42.0248C159.932 44.5462 157.887 46.5885 155.357 46.5885H5.64275C3.11428 46.5885 1.06201 44.5462 1.06201 42.0248V5.63026C1.06201 3.11007 3.11438 1.06055 5.64275 1.06055H155.356C157.887 1.06055 159.931 3.11007 159.931 5.63026L159.932 42.0248Z" fill="black"/>
<path d="M35.9496 23.5744C35.915 19.7339 39.0986 17.8655 39.2441 17.7785C37.4412 15.1535 34.6467 14.7948 33.6647 14.7662C31.3176 14.5196 29.0409 16.1687 27.8452 16.1687C26.6257 16.1687 24.7846 14.7901 22.8002 14.8306C20.2467 14.8699 17.8579 16.3463 16.5477 18.6389C13.8439 23.3134 15.8604 30.1829 18.451 33.9614C19.7467 35.8131 21.261 37.8782 23.2429 37.8055C25.1819 37.7268 25.9062 36.5722 28.2462 36.5722C30.5645 36.5722 31.2448 37.8055 33.266 37.759C35.3471 37.7268 36.6572 35.9001 37.9078 34.0329C39.4053 31.9131 40.0066 29.8231 40.0306 29.7158C39.9827 29.6991 35.9902 28.1763 35.9496 23.5744ZM32.1312 12.2806C33.174 10.9782 33.8877 9.2063 33.6896 7.4082C32.1801 7.47493 30.2925 8.45084 29.2053 9.72464C28.2436 10.8471 27.3844 12.6869 27.6064 14.4171C29.3021 14.5434 31.043 13.5627 32.1312 12.2806Z" fill="white"/>
<path d="M155.357 0H75.1655L106.575 47.6502H155.357C158.464 47.6502 161 45.1276 161 42.0211V5.63142C161.001 2.52615 158.465 0 155.357 0Z" fill="url(#paint0_linear_125_180)"/>
<path d="M64.0349 37.5394H61.3251L59.8407 32.8815H54.681L53.2671 37.5394H50.6289L55.7419 21.6818H58.8992L64.0349 37.5394ZM59.3933 30.9273L58.0509 26.7865C57.9089 26.3635 57.6417 25.3674 57.2502 23.7992H57.2025C57.045 24.4737 56.7933 25.4698 56.4484 26.7865L55.1287 30.9273H59.3933ZM77.1582 31.6816C77.1582 33.6262 76.6296 35.1634 75.5711 36.2919C74.6238 37.2963 73.4461 37.7981 72.0415 37.7981C70.5249 37.7981 69.4343 37.2582 68.7721 36.1763V42.1759H66.2281V29.8632C66.2281 28.6417 66.196 27.3895 66.1339 26.105H68.3713L68.5133 27.9174H68.5609C69.4093 26.5518 70.6968 25.8689 72.4246 25.8689C73.7753 25.8689 74.9029 26.4016 75.805 27.468C76.7059 28.537 77.1582 29.9407 77.1582 31.6816ZM74.5664 31.7745C74.5664 30.6616 74.3159 29.7441 73.8123 29.0208C73.2622 28.2689 72.5236 27.8924 71.5977 27.8924C70.97 27.8924 70.3997 28.1021 69.8901 28.5155C69.3794 28.9326 69.0453 29.4771 68.8891 30.1516C68.8104 30.4662 68.771 30.7223 68.771 30.925V32.8326C68.771 33.6632 69.0263 34.3651 69.537 34.9394C70.0477 35.5114 70.7112 35.7985 71.5274 35.7985C72.4856 35.7985 73.2314 35.428 73.7647 34.6927C74.2992 33.9551 74.5664 32.9828 74.5664 31.7745ZM90.3279 31.6816C90.3279 33.6262 89.7993 35.1634 88.7409 36.2919C87.7923 37.2963 86.6158 37.7981 85.2101 37.7981C83.6935 37.7981 82.6029 37.2582 81.9406 36.1763V42.1759H79.3967V29.8632C79.3967 28.6417 79.3645 27.3895 79.3024 26.105H81.5397L81.6817 27.9174H81.7294C82.5766 26.5518 83.8641 25.8689 85.593 25.8689C86.9426 25.8689 88.0702 26.4016 88.9748 27.468C89.8746 28.537 90.3279 29.9407 90.3279 31.6816ZM87.735 31.7745C87.735 30.6616 87.4833 29.7441 86.9797 29.0208C86.4296 28.2689 85.6934 27.8924 84.7674 27.8924C84.1398 27.8924 83.5694 28.1021 83.0575 28.5155C82.5468 28.9326 82.214 29.4771 82.0576 30.1516C81.98 30.4662 81.9383 30.7223 81.9383 30.925V32.8326C81.9383 33.6632 82.1948 34.3651 82.7031 34.9394C83.2138 35.5102 83.8773 35.7985 84.6958 35.7985C85.6551 35.7985 86.4009 35.428 86.9332 34.6927C87.4677 33.9551 87.735 32.9828 87.735 31.7745ZM105.052 33.0912C105.052 34.4413 104.58 35.5387 103.641 36.3859C102.608 37.3106 101.165 37.7741 99.3154 37.7741C97.6067 37.7741 96.2368 37.4452 95.2035 36.7863L95.7917 34.6689C96.9074 35.329 98.1329 35.6579 99.4669 35.6579C100.426 35.6579 101.172 35.441 101.704 35.0108C102.238 34.5795 102.507 34.0028 102.507 33.2831C102.507 32.6385 102.284 32.0986 101.846 31.659C101.406 31.2205 100.678 30.8118 99.6556 30.4365C96.8752 29.401 95.4839 27.8865 95.4839 25.8942C95.4839 24.5929 95.9755 23.5277 96.9564 22.6948C97.9373 21.863 99.2379 21.4473 100.856 21.4473C102.301 21.4473 103.505 21.6987 104.461 22.2003L103.822 24.2712C102.923 23.785 101.907 23.542 100.771 23.542C99.8739 23.542 99.1698 23.7624 98.6663 24.2009C98.2427 24.5929 98.0279 25.0709 98.0279 25.638C98.0279 26.2636 98.2726 26.7832 98.7593 27.1907C99.1817 27.5659 99.9526 27.9748 101.067 28.4133C102.435 28.9638 103.439 29.6048 104.082 30.3412C104.73 31.0774 105.052 31.9961 105.052 33.0912ZM113.485 28.0115H110.681V33.5631C110.681 34.9751 111.175 35.6793 112.165 35.6793C112.62 35.6793 112.997 35.6411 113.295 35.5614L113.366 37.4905C112.865 37.6777 112.205 37.7717 111.387 37.7717C110.383 37.7717 109.598 37.4655 109.031 36.853C108.466 36.2406 108.182 35.2146 108.182 33.7704V28.0067H106.512V26.1002H108.182V24.0066L110.681 23.2535V26.1002H113.485V28.0115ZM126.112 31.728C126.112 33.4855 125.608 34.9285 124.604 36.0571C123.552 37.2188 122.154 37.798 120.411 37.798C118.728 37.798 117.391 37.2415 116.393 36.1297C115.395 35.0155 114.897 33.6119 114.897 31.9187C114.897 30.1467 115.412 28.6955 116.44 27.567C117.469 26.4374 118.856 25.8727 120.599 25.8727C122.279 25.8727 123.629 26.4303 124.65 27.5432C125.626 28.6228 126.112 30.0169 126.112 31.728ZM123.475 31.7864C123.475 30.7389 123.248 29.8405 122.794 29.0886C122.26 28.1806 121.496 27.7267 120.507 27.7267C119.488 27.7267 118.707 28.1806 118.174 29.0886C117.719 29.8405 117.492 30.7544 117.492 31.834C117.492 32.8827 117.719 33.7834 118.174 34.533C118.725 35.441 119.492 35.895 120.486 35.895C121.458 35.895 122.221 35.4315 122.772 34.5104C123.24 33.7406 123.475 32.8362 123.475 31.7864ZM134.385 28.3392C134.133 28.2926 133.863 28.2688 133.583 28.2688C132.688 28.2688 131.996 28.6049 131.509 29.2816C131.087 29.8774 130.874 30.6305 130.874 31.5397V37.5393H128.33V29.7059C128.33 28.3892 128.305 27.1881 128.256 26.1062H130.472L130.565 28.2938H130.636C130.905 27.542 131.328 26.9354 131.908 26.4814C132.474 26.0728 133.086 25.8689 133.746 25.8689C133.981 25.8689 134.194 25.8856 134.382 25.9155L134.385 28.3392ZM145.762 31.2812C145.762 31.7364 145.732 32.12 145.669 32.4335H138.037C138.066 33.5631 138.436 34.4282 139.144 35.024C139.788 35.5555 140.619 35.8223 141.641 35.8223C142.771 35.8223 143.802 35.6436 144.729 35.2825L145.127 37.0449C144.044 37.5167 142.765 37.7515 141.289 37.7515C139.513 37.7515 138.119 37.2295 137.105 36.1881C136.093 35.1455 135.586 33.7442 135.586 31.989C135.586 30.2659 136.058 28.8301 137.001 27.685C137.989 26.4624 139.325 25.8511 141.005 25.8511C142.655 25.8511 143.904 26.4623 144.753 27.685C145.424 28.6538 145.762 29.8549 145.762 31.2812ZM143.336 30.6222C143.354 29.868 143.187 29.2186 142.842 28.6692C142.402 27.9614 141.724 27.6087 140.816 27.6087C139.984 27.6087 139.307 27.9531 138.791 28.6442C138.368 29.1935 138.116 29.8537 138.038 30.6199L143.336 30.6222Z" fill="white"/>
<path d="M58.167 16.0067H56.8341L56.105 13.7176H53.5694L52.8737 16.0067H51.5767L54.0896 8.21254H55.6408L58.167 16.0067ZM55.8854 12.7572L55.2256 10.722C55.1564 10.5135 55.0287 10.0285 54.8318 9.25398H54.8079C54.7268 9.58882 54.6111 10.075 54.4369 10.722L53.7889 12.7572H55.8854ZM64.4505 10.3872L62.3194 16.0067H61.1034L59.0416 10.3872H60.3851L61.3469 13.359C61.5092 13.8559 61.6476 14.3301 61.7514 14.7805H61.786C61.8792 14.3766 62.0175 13.9023 62.1905 13.359L63.1403 10.3872H64.4505ZM68.9872 16.0067L68.8941 15.3596H68.8594C68.4776 15.8803 67.9215 16.1341 67.2152 16.1341C66.208 16.1341 65.4897 15.4287 65.4897 14.4802C65.4897 13.0932 66.6937 12.3758 68.7783 12.3758V12.2722C68.7783 11.5322 68.3845 11.1616 67.6089 11.1616C67.0527 11.1616 66.566 11.301 66.1388 11.5787L65.8846 10.7577C66.406 10.4335 67.054 10.2715 67.8188 10.2715C69.2889 10.2715 70.0311 11.046 70.0311 12.5963V14.6661C70.0311 15.2332 70.0549 15.6729 70.1122 16.0078L68.9872 16.0067ZM68.813 13.2077C67.4229 13.2077 66.7284 13.5437 66.7284 14.3408C66.7284 14.9307 67.0875 15.219 67.5851 15.219C68.2222 15.219 68.813 14.7341 68.813 14.0751V13.2077ZM72.8163 9.46132C72.3998 9.46132 72.0753 9.13721 72.0753 8.70943C72.0753 8.28165 72.4107 7.96946 72.8401 7.96946C73.2685 7.96946 73.6157 8.28165 73.6039 8.70943C73.6039 9.16104 73.2806 9.46132 72.8163 9.46132ZM73.4654 16.0067H72.2149V10.3872H73.4654V16.0067ZM76.9377 16.0067H75.6872V7.80859H76.9377V16.0067ZM82.2524 16.0067L82.1592 15.3596H82.1247C81.7429 15.8803 81.1868 16.1341 80.4804 16.1341C79.4733 16.1341 78.755 15.4287 78.755 14.4802C78.755 13.0932 79.9589 12.3758 82.0435 12.3758V12.2722C82.0435 11.5322 81.6497 11.1616 80.8741 11.1616C80.3181 11.1616 79.8312 11.301 79.404 11.5787L79.1488 10.7565C79.6702 10.4324 80.3182 10.2703 81.083 10.2703C82.5531 10.2703 83.2952 11.0448 83.2952 12.5951V14.6649C83.2952 15.2321 83.3203 15.6717 83.3752 16.0066H82.2524V16.0067ZM82.0782 13.2077C80.6881 13.2077 79.9936 13.5437 79.9936 14.3408C79.9936 14.9307 80.3527 15.219 80.8502 15.219C81.4874 15.219 82.0782 14.7341 82.0782 14.0751V13.2077ZM88.3619 16.1342C87.5636 16.1342 86.974 15.7982 86.5922 15.1392H86.5671L86.4955 16.0067H85.43C85.4646 15.5563 85.4765 15.0463 85.4765 14.4922V7.80859H86.7282V11.2094H86.7521C87.1231 10.585 87.7235 10.2728 88.5467 10.2728C89.9022 10.2728 90.8521 11.4298 90.8521 13.1171C90.8521 14.8616 89.7972 16.1342 88.3619 16.1342ZM88.1076 11.2535C87.3881 11.2535 86.7295 11.8778 86.7295 12.7453V13.7284C86.7295 14.5029 87.3213 15.1392 88.0862 15.1392C89.0229 15.1392 89.5802 14.3766 89.5802 13.1624C89.5789 12.0292 88.999 11.2535 88.1076 11.2535ZM93.9509 16.0067H92.7017V7.80859H93.9509V16.0067ZM100.758 13.4972H97.0045C97.0295 14.5613 97.7335 15.1618 98.7763 15.1618C99.3324 15.1618 99.8419 15.0689 100.293 14.8961L100.487 15.7636C99.9553 15.9948 99.33 16.1103 98.6009 16.1103C96.8397 16.1103 95.798 14.9998 95.798 13.278C95.798 11.5549 96.8649 10.2597 98.4601 10.2597C99.8957 10.2597 100.8 11.3238 100.8 12.9312C100.805 13.1505 100.794 13.3471 100.758 13.4972ZM99.6116 12.6071C99.6116 11.7396 99.1712 11.1272 98.3718 11.1272C97.6534 11.1272 97.0879 11.7515 97.0044 12.6071H99.6116ZM108.338 16.1342C106.693 16.1342 105.628 14.908 105.628 13.2434C105.628 11.5085 106.716 10.2716 108.432 10.2716C110.051 10.2716 111.142 11.4393 111.142 13.1516C111.142 14.908 110.018 16.1342 108.338 16.1342ZM108.385 11.1843C107.482 11.1843 106.904 12.028 106.904 13.2077C106.904 14.3647 107.494 15.2083 108.374 15.2083C109.253 15.2083 109.842 14.3063 109.842 13.1838C109.844 12.0399 109.265 11.1843 108.385 11.1843ZM117.865 16.0067H116.615V12.7799C116.615 11.7861 116.233 11.288 115.481 11.288C114.74 11.288 114.229 11.9243 114.229 12.6643V16.0067H112.98V11.9934C112.98 11.4965 112.966 10.9639 112.933 10.386H114.033L114.092 11.2535H114.126C114.46 10.6529 115.145 10.2704 115.909 10.2704C117.089 10.2704 117.865 11.1724 117.865 12.6405V16.0067H117.865ZM126.047 11.3238H124.671V14.0525C124.671 14.7472 124.913 15.0939 125.399 15.0939C125.619 15.0939 125.806 15.0701 125.955 15.0355L125.989 15.984C125.746 16.0771 125.42 16.1235 125.018 16.1235C124.032 16.1235 123.444 15.5801 123.444 14.1573V11.3238H122.623V10.3872H123.444V9.35765L124.671 8.98707V10.386H126.047V11.3238ZM132.669 16.0067H131.417V12.8037C131.417 11.798 131.035 11.2892 130.283 11.2892C129.635 11.2892 129.033 11.7289 129.033 12.619V16.0067H127.782V7.80859H129.033V11.1843H129.057C129.451 10.5719 130.019 10.2704 130.748 10.2704C131.94 10.2704 132.669 11.1951 132.669 12.6643V16.0067ZM139.059 13.4972H135.306C135.33 14.5613 136.034 15.1618 137.077 15.1618C137.634 15.1618 138.143 15.0689 138.594 14.8961L138.789 15.7636C138.257 15.9948 137.631 16.1103 136.902 16.1103C135.14 16.1103 134.099 14.9998 134.099 13.278C134.099 11.5549 135.166 10.2597 136.761 10.2597C138.196 10.2597 139.101 11.3238 139.101 12.9312C139.105 13.1505 139.093 13.3471 139.059 13.4972ZM137.912 12.6071C137.912 11.7396 137.473 11.1272 136.674 11.1272C135.954 11.1272 135.388 11.7515 135.306 12.6071H137.912Z" fill="white"/>
<defs>
<linearGradient id="paint0_linear_125_180" x1="118.084" y1="47.7797" x2="118.084" y2="4.82789" gradientUnits="userSpaceOnUse">
<stop stop-color="#1A1A1A" stop-opacity="0.1"/>
<stop offset="0.123" stop-color="#212121" stop-opacity="0.151"/>
<stop offset="0.308" stop-color="#353535" stop-opacity="0.227"/>
<stop offset="0.532" stop-color="#575757" stop-opacity="0.318"/>
<stop offset="0.783" stop-color="#858585" stop-opacity="0.421"/>
<stop offset="1" stop-color="#B3B3B3" stop-opacity="0.51"/>
</linearGradient>
</defs>
</svg>
