<svg width="521" height="510" viewBox="0 0 521 510" fill="none" xmlns="http://www.w3.org/2000/svg">
<path d="M386.094 414.811C379.749 416.841 373.43 418.922 367.154 421.18C361.707 423.141 356.13 424.821 350.693 426.86C341.638 430.256 332.48 433.362 323.509 437.003C316.011 440.047 308.277 442.503 300.698 445.353C295.583 447.276 290.58 449.493 285.483 451.466C280.342 453.455 275.147 455.306 269.976 457.217C263.569 459.586 257.168 461.968 250.755 464.318C243.959 466.808 237.166 469.308 230.344 471.728C224.728 473.72 219.079 475.622 213.431 477.526C207.441 479.545 201.442 481.538 195.435 483.505C190.204 485.219 185.011 487.088 179.698 488.496C176.345 489.385 173.052 490.647 169.675 491.194C166.766 491.665 164.173 489.653 161.759 488.067C157.937 485.435 154.617 482.135 151.958 478.325C146.22 470.482 139.031 464.059 132.231 457.235C126.517 451.5 121.129 445.439 115.473 439.645C113.205 437.319 110.757 435.177 108.153 433.238C101.681 427.999 96.1975 421.639 91.9612 414.46C85.1198 403.443 78.9841 392 73.5915 380.2C69.7024 372.186 65.7876 364.177 61.5712 356.336C60.2802 353.934 57.7802 352.26 56.3047 349.823C53.7626 345.454 51.7168 340.813 50.2056 335.987C48.3735 330.476 45.007 325.883 42.4872 320.803C37.7349 311.888 35.7357 301.756 36.7444 291.697C36.9805 290.415 37.34 289.16 37.818 287.948C38.475 285.925 39.7817 285.116 41.7028 286.295C42.3165 286.729 43.0401 286.979 43.7897 287.017C44.5394 287.055 45.2844 286.879 45.9383 286.509C46.5578 286.153 49.0443 285.428 46.289 284.036C45.292 283.533 45.7398 282.447 46.6676 281.434C49.478 278.368 53.3082 277.006 56.7804 275.172C62.7995 271.994 69.0495 269.226 75.322 266.569C80.6312 264.32 86.1116 262.479 91.5117 260.445C96.4784 258.574 101.442 256.693 106.401 254.803C111.786 252.738 117.143 250.599 122.54 248.566C129.673 245.878 136.922 243.507 144.086 240.897C152.653 237.776 161.537 235.544 170.163 232.573C176.783 230.293 183.631 228.842 190.227 226.467C194.269 225.248 198.377 224.26 202.531 223.507C206.975 222.463 211.414 221.397 215.858 220.35C220.861 219.173 225.894 218.111 230.86 216.792C233.249 216.157 235.733 215.937 238.058 215.249C246.791 212.666 251.539 215.046 254.966 222.778C258.256 230.202 261.136 237.808 264.242 245.316C267.163 252.374 270.271 259.356 273.065 266.464C276.033 274.017 278.626 281.717 281.566 289.282C285.515 299.44 290.276 309.233 295.125 318.989C299.743 328.279 305.039 337.26 308.076 347.291C309.212 351.042 309.212 350.609 313.002 349.443C316.952 348.244 321.17 348.268 325.106 349.513C328.196 350.48 331.121 351.964 334.158 353.113C336.052 353.829 336.959 353.019 337.034 350.996C337.303 342.271 339.301 333.687 342.912 325.746C343.468 324.531 343.189 324.053 341.793 323.748C336.884 322.958 332.059 321.712 327.379 320.026C326.492 319.616 325.638 319.137 324.825 318.593C323.534 317.798 322.181 316.728 322.87 315.101C323.515 313.58 324.566 311.917 326.609 311.993C332.786 312.224 339.02 311.127 345.138 313.009C347.375 313.698 348.778 312.892 350.135 310.439C356.27 299.355 350.969 290.844 344.979 283.512C343.142 281.261 340.164 282.537 338.194 283.204C335.438 284.014 332.624 284.609 329.777 284.982C325.967 285.645 322.34 287.62 318.302 286.959C317.301 286.795 316.36 286.763 315.826 285.627C315.163 284.216 316.527 283.709 317.067 283.258C321.049 280.291 325.464 277.959 330.157 276.347C331.614 275.531 333.207 274.984 334.857 274.734C335.119 274.681 335.366 274.57 335.579 274.408C335.793 274.247 335.968 274.04 336.091 273.802C336.215 273.564 336.284 273.302 336.293 273.034C336.302 272.766 336.252 272.499 336.145 272.253C333.488 264.344 336.123 257.567 341.218 251.64C342.312 250.488 343.754 249.729 345.32 249.482C346.887 249.235 348.491 249.513 349.885 250.273C353.424 251.775 356.514 254.173 358.854 257.232C361.193 260.291 362.702 263.906 363.232 267.725C364 273.294 364.245 278.923 363.962 284.538C363.961 285.47 363.342 286.778 364.567 287.224C365.556 287.584 366.313 286.662 367.052 285.938C372.569 280.535 377.442 274.551 382.454 268.7C389.693 260.381 397.689 252.758 406.34 245.93C409.66 243.571 412.535 240.639 414.831 237.269C415.704 235.722 416.068 233.938 415.874 232.172C415.571 222.384 415.353 212.587 415.83 202.812C415.846 196.38 417.148 190.016 419.657 184.097C421.921 179.349 425.012 177.222 429.91 181.289C437.223 187.362 438.861 195.56 438.347 204.5C438.217 208.804 437.634 213.082 436.609 217.263C436.392 217.273 436.183 217.346 436.007 217.474C435.831 217.601 435.696 217.778 435.618 217.981C435.541 218.185 435.524 218.407 435.57 218.619C435.616 218.832 435.723 219.027 435.878 219.18C436.234 219.617 437.226 219.422 437.546 218.539C437.883 218.348 438.219 218.157 438.55 217.967C439.227 218.022 439.541 217.832 439.09 217.136C444.541 213.436 449.689 209.305 454.484 204.782C464.139 196.469 472.94 187.206 480.755 177.133C484.87 171.64 488.963 165.848 490.177 159.145C492.054 148.784 493.786 138.125 490.406 127.728C488.968 123.305 487.064 118.963 485.87 114.481C484.717 110.151 483.689 105.745 482.812 101.332C481.772 96.0913 480.377 90.9373 479.207 85.7377C476.749 75.5437 476.01 65.0087 477.02 54.5697C477.307 49.966 477.955 45.3922 478.96 40.8909C479.977 35.8003 482.241 31.0439 485.549 27.0512C491.199 21.051 499.344 22.1304 504.695 27.6248C509.903 33.1899 513.722 39.9149 515.837 47.2477C519.719 59.7005 521.434 72.7308 520.907 85.7675C520.435 94.3869 519.233 102.95 517.312 111.365C515.764 118.532 513.784 125.598 511.384 132.525C508.89 139.912 505.834 147.096 502.243 154.012C496.314 165.685 489.359 176.803 481.46 187.235C477.661 192.194 473.809 197.105 469.744 201.848C469.37 202.285 468.37 202.621 468.876 203.516C469.323 204.306 470.112 203.943 470.773 203.882C479.503 203.083 488.041 200.602 496.925 201.068C501.755 201.181 506.466 202.591 510.569 205.151C513.558 206.639 515.857 209.23 516.985 212.381C518.086 216.973 515.009 220.915 509.863 222.209C501.996 224.135 493.851 224.641 485.808 223.703C485.709 223.687 485.608 223.679 485.508 223.678C476.57 223.643 467.641 223.108 458.762 222.076C454.206 221.747 449.634 222.453 445.387 224.141C441.14 225.829 437.327 228.456 434.23 231.825C426.241 239.748 417.28 246.495 408.833 253.859C402.637 259.046 396.814 264.666 391.407 270.676C390.827 271.347 390.244 271.922 390.704 272.653C391.243 273.511 392.013 272.679 392.551 272.439C397.101 270.379 401.814 268.703 406.641 267.428C412.553 265.864 418.655 265.141 424.768 265.28C431.447 265.553 437.943 267.546 443.633 271.067C445.459 272.142 446.912 273.754 447.796 275.684C448.68 277.615 448.951 279.771 448.574 281.861C448.34 283.378 447.667 284.792 446.64 285.93C445.613 287.067 444.276 287.878 442.795 288.26C434.785 291.136 426.136 291.725 417.812 289.962C417.332 289.822 416.84 289.729 416.342 289.685C407.992 289.987 399.791 287.849 391.43 288.186C388.315 288.401 385.186 288.236 382.112 287.694C380.083 287.214 377.954 287.405 376.042 288.239C374.13 289.073 372.539 290.505 371.505 292.321C367.465 298.742 362.275 304.267 358.129 310.577C357.599 311.263 357.118 311.985 356.691 312.739C356.271 313.639 355.834 314.827 356.778 315.5C357.209 315.757 357.717 315.852 358.212 315.769C358.706 315.686 359.155 315.43 359.479 315.046C362.81 312.222 366.633 310.043 370.755 308.619C379.675 305.419 391.214 307.77 396.473 315.612C397.822 317.415 398.529 319.619 398.483 321.873C398.437 324.126 397.639 326.299 396.217 328.045C392.551 333.096 387.195 335.118 381.655 336.921C374.822 338.903 367.742 339.89 360.63 339.85C358.978 339.864 357.356 340.297 355.916 341.108C354.475 341.919 353.263 343.083 352.39 344.49C351.104 346.585 349.477 348.449 347.576 350.005C343.631 353.124 343.683 357.444 345.012 361.526C346.511 366.134 348.62 370.536 350.229 375.15C352.235 380.014 355.681 384.143 360.101 386.978C365.449 390.822 370.786 394.698 376.322 398.257C379.396 399.992 382.559 401.564 385.797 402.967C387.739 403.913 389.54 405.126 391.149 406.57C392.003 407.353 393.619 407.932 393.064 409.244C392.431 410.74 390.829 410.022 389.587 409.807C389.185 407.24 387.459 408.665 385.319 408.282C387.849 410.755 386.864 412.781 386.094 414.811ZM309.219 435.891C309.644 435.826 310.447 436.315 310.177 435.233L312.822 434.64C313.635 434.764 314.204 434.53 314.309 433.618L316.297 433.153C316.63 433.297 317.006 433.304 317.344 433.172C317.682 433.04 317.954 432.78 318.103 432.448C322.711 430.917 327.369 429.522 331.914 427.821C338.278 425.439 344.552 422.815 350.875 420.321C357.007 417.902 363.058 415.294 369.118 412.703C372.319 411.334 370.73 410.665 369.22 409.608C365.127 406.742 360.957 403.992 356.992 400.934C356.009 400.176 354.986 398.71 353.273 399.261C352.388 397.705 351.148 396.382 349.653 395.402C345.931 393.294 342.376 390.903 339.019 388.249C335.756 385.165 331.856 382.769 328.34 379.94C327.933 379.565 327.425 379.317 326.88 379.228C326.334 379.138 325.774 379.211 325.269 379.437C322.135 381.023 318.811 380.409 315.565 380.633L314.433 380.378C314.401 379.144 313.528 379.256 312.704 379.291L311.941 379.245C310.987 377.317 308.929 376.708 307.423 375.44L305.068 372.679C304.272 370.593 303.367 368.539 302.72 366.406C302.287 364.98 301.755 365.164 300.571 365.563C291.703 368.547 282.757 371.306 273.915 374.363C268.738 376.153 263.445 377.623 258.329 379.5C249.33 382.802 240.136 385.473 231.099 388.635C225.356 390.644 219.426 392.154 213.71 394.176C206.104 396.865 198.383 399.177 190.676 401.463C183.959 403.456 177.252 405.549 170.47 407.374C163.322 409.298 156.221 411.598 149.047 413.389C141.186 415.351 133.459 417.9 125.434 419.252C122.538 419.833 119.699 420.672 116.951 421.759C113.666 422.946 113.448 424.686 115.941 427.105C125.276 436.159 134.528 445.294 143.527 454.689C152.358 463.911 161.338 472.991 170.311 482.075C171.061 483.088 172.145 483.802 173.37 484.09C174.595 484.378 175.882 484.221 177.002 483.648C179.02 482.43 181.17 481.449 183.41 480.724C187.261 479.719 191.049 478.488 194.755 477.036C204.787 473.571 214.603 469.52 224.678 466.155C232.779 463.45 240.693 460.195 248.699 457.207C253.986 455.234 259.225 453.147 264.61 451.418C270.238 449.611 275.688 447.256 281.283 445.336C288.271 442.938 295.452 441.042 302.239 438.188C303.521 437.649 305.922 438.445 306.518 436.214L309.219 435.891ZM508.859 210.184C505.625 207.97 501.833 206.719 497.921 206.576C489.887 205.664 481.936 207.333 473.955 208.014C473.769 208.03 472.875 207.87 473.428 208.664C467.782 209.047 462.347 210.972 457.714 214.232C457.085 214.65 456.59 214.899 456.636 215.765C456.695 216.857 457.49 216.756 458.135 216.751C462.333 216.721 466.457 217.498 470.617 217.824C475.11 218.177 479.639 218.153 484.153 218.171C492.394 218.383 500.63 217.575 508.674 215.766C509.291 215.658 509.853 215.343 510.269 214.873C510.685 214.403 510.93 213.806 510.964 213.179C511.029 212.06 510.726 210.343 508.859 210.184ZM301.565 354.852C301.574 354.913 301.51 354.516 301.452 354.118C300.049 347.108 297.534 340.369 294.003 334.159C289.756 325.613 285.047 317.303 281.315 308.491C279.061 303.167 276.604 297.939 274.42 292.572C271.973 286.561 269.449 280.565 266.956 274.564C264.522 268.705 262.17 262.811 259.682 256.975C257.361 251.528 254.812 246.177 252.539 240.71C250.613 236.078 248.974 231.327 247.14 226.656C246.063 223.913 243.132 221.911 241.22 222.584C238.454 223.559 235.516 223.988 232.801 224.962C229.862 226.015 226.761 225.89 223.847 226.983C220.425 228.266 216.833 229.103 213.296 230.061C207.913 231.52 202.476 232.79 197.129 234.369C188.842 236.817 180.603 239.43 172.36 242.024C166.493 243.87 160.531 245.484 154.765 247.555C147.749 250.075 140.701 252.522 133.661 254.973C126.55 257.448 119.341 259.687 112.21 262.088C103.094 265.157 93.8695 267.894 84.81 271.1C79.0905 273.124 72.596 273.847 68.461 279.212C68.0486 279.639 67.5679 279.995 67.0389 280.263C60.9649 284.123 54.9139 288.021 48.786 291.793C47.4148 292.638 46.8357 293.672 47.549 294.963C50.6812 300.633 52.8956 306.7 55.4969 312.603C59.0656 320.7 62.2431 328.948 65.5557 337.143C67.9362 343.028 69.9533 349.07 72.5171 354.871C76.7278 364.398 80.7434 374.008 85.1526 383.455C90.3877 394.456 96.224 405.158 102.635 415.514C104.258 418.181 106.098 418.483 108.866 416.896C115.409 413.344 122.477 410.865 129.8 409.553C133.843 408.722 137.855 407.667 141.851 406.662C146.225 405.562 150.562 404.173 154.923 402.936C160.009 401.493 165.137 400.196 170.199 398.677C175.205 397.172 180.127 395.384 185.132 393.879C190.291 392.328 195.597 391.231 200.677 389.466C208.763 386.657 217.018 384.44 225.217 382.047C231.794 380.126 238.406 378.28 245.003 376.422C254.143 373.847 263.04 370.422 272.096 367.536C280.697 364.795 289.011 361.173 297.896 359.27C298.433 359.241 298.958 359.1 299.439 358.858C299.92 358.616 300.345 358.277 300.69 357.862C301.034 357.448 301.289 356.967 301.44 356.449C301.591 355.931 301.633 355.387 301.565 354.852L301.565 354.852ZM500.143 139.354C502.691 137.316 503.177 134.453 504.34 131.985C507.646 124.321 510.13 116.325 511.749 108.133C512.806 103.596 512.995 98.9677 513.694 94.3976C515.012 83.3824 514.511 72.2244 512.21 61.3727C511.141 55.6985 509.69 50.1032 507.869 44.6251C506.19 38.5034 502.331 33.2121 497.025 29.7532C495.711 28.8927 494.125 28.5553 492.577 28.8071C491.028 29.0589 489.63 29.8818 488.654 31.1145C487.223 33.267 486.159 35.6431 485.504 38.1458C484.375 42.5143 483.656 46.9791 483.357 51.482C482.24 60.8062 482.88 70.2579 485.243 79.3449C487.197 86.9956 489.549 94.5323 491.035 102.316C491.532 104.916 492.136 107.571 492.794 110.172C493.955 114.757 495.909 119.023 497.338 123.489C498.846 128.659 499.786 133.979 500.143 139.353L500.143 139.354ZM319.076 355.533C317.6 355.328 316.096 355.471 314.685 355.951C313.274 356.43 311.993 357.233 310.945 358.295C309.462 360.316 308.663 362.76 308.665 365.269C308.666 367.779 309.468 370.222 310.953 372.241C313.184 375.755 319.232 378.123 322.807 376.447C326.542 374.695 330.559 374.065 334.369 372.657C339.432 370.785 339.278 367.979 336.825 364.535C332.489 358.44 326.238 356.042 319.076 355.533L319.076 355.533ZM391.679 281.43C397.216 281.567 401.595 283.051 406.242 282.883C411.744 282.398 417.283 282.518 422.76 283.241C427.239 283.897 431.799 283.754 436.228 282.818C438.09 282.525 440.194 281.976 440.777 279.702C441.345 277.491 439.765 276.34 438.137 275.547C434.815 273.596 431.079 272.461 427.236 272.237C419.863 272.028 412.498 272.884 405.369 274.778C400.465 276.206 395.837 278.455 391.679 281.429L391.679 281.43ZM363.783 331.84C372.117 331.529 380.33 330.684 387.832 326.535C388.682 326.145 389.41 325.529 389.937 324.753C390.463 323.977 390.767 323.071 390.816 322.134C390.851 321.168 390.695 320.205 390.357 319.301C390.02 318.396 389.506 317.568 388.847 316.864C388.188 316.159 387.396 315.593 386.518 315.198C385.639 314.802 384.691 314.586 383.729 314.56C378.854 314.175 373.992 315.444 369.922 318.163C365.093 321.142 360.791 324.907 357.195 329.304C356.897 329.565 356.679 329.905 356.567 330.285C356.456 330.666 356.454 331.07 356.563 331.451C356.934 332.411 357.932 332.073 358.669 332.067C360.374 332.052 362.079 331.923 363.783 331.84L363.783 331.84ZM423.548 211.651C423.548 216.386 423.537 221.122 423.557 225.857C423.561 226.747 423.493 227.712 424.516 228.21C425.783 228.828 426.478 227.741 427.035 227.094C428.463 225.343 429.503 223.308 430.087 221.123C431.694 215.783 431.552 210.197 432.516 204.762C433.065 202.305 433.051 199.756 432.475 197.306C431.899 194.856 430.775 192.57 429.189 190.619C427.409 188.468 426.165 188.466 425.345 191.075C424.348 193.49 423.738 196.048 423.538 198.654C423.562 202.986 423.544 207.319 423.548 211.653L423.548 211.651ZM357.609 277.788C357.852 274.629 357.352 271.457 356.15 268.527C355.36 264.888 353.607 261.53 351.075 258.807C350.379 257.945 349.372 257.392 348.272 257.269C347.173 257.146 346.069 257.462 345.2 258.148C343.328 259.335 341.998 261.215 341.498 263.379C340.997 265.542 341.366 267.817 342.525 269.71C346.189 274.747 350.462 279.308 355.246 283.289C356.553 284.512 357.392 284.119 357.578 282.473C357.67 280.913 357.68 279.349 357.61 277.788L357.609 277.788ZM331.952 377.481C333.385 377.98 334.923 378.1 336.416 377.829C337.909 377.558 339.307 376.906 340.476 375.935C337.183 374.465 334.622 376.342 331.953 377.481L331.952 377.481Z" fill="#0B0C0D"/>
<path d="M357.906 30.7801C364.844 30.4594 371.795 31.0043 378.599 32.4024C388.908 33.938 398.97 36.8363 408.521 41.0216C414.416 43.4799 420.066 46.4908 425.396 50.0142C433.121 55.4054 439.909 62.0361 445.487 69.6401C449.468 74.9399 454.168 79.5832 458.209 84.8075C461.422 88.961 463.781 93.2304 463.243 98.8201C462.763 102.932 462.668 107.079 462.958 111.209C463.023 111.926 463.097 112.928 462.501 113.13C462.141 113.184 461.773 113.148 461.43 113.024C461.087 112.901 460.78 112.694 460.536 112.423C459.067 110.275 457.879 111.671 457.167 112.818C451.829 121.427 443.07 125.258 434.213 128.043C425.72 130.769 416.711 131.475 407.899 130.104C397.594 128.191 387.445 125.509 377.538 122.08C369.218 119.224 360.754 116.808 352.182 114.841C341.907 112.988 331.403 112.787 321.064 114.246C307.881 115.724 295.194 120.144 283.934 127.181C273.098 133.579 264.399 143.06 258.941 154.424C257.702 157.111 256.934 159.972 255.494 162.567C254.359 164.612 253.148 164.419 252.065 162.752C251.297 161.932 250.767 160.917 250.533 159.817C250.298 158.717 250.366 157.573 250.731 156.509C252.367 151.749 252.993 146.698 252.569 141.681C252.456 132.17 254.09 122.719 257.39 113.802C259.117 108.603 260.285 103.188 261.892 97.9644C264.669 88.1132 268.905 78.736 274.457 70.1464C280.553 61.1953 288.347 53.5372 297.394 47.6097C304.138 43.2489 311.392 39.7389 318.992 37.159C331.54 32.9618 344.678 30.8082 357.906 30.7801ZM297.152 83.6524C297.226 82.7785 297.48 81.9294 297.898 81.1589C299.951 77.891 302.561 75.011 305.609 72.6506C315.581 65.0065 326.568 58.7974 338.252 54.2031C347.802 50.4617 357.904 48.3326 368.148 47.902C378.042 47.5627 387.939 48.5073 397.593 50.7122C403.19 51.9132 408.694 53.5108 414.066 55.493C415.774 56.1076 417.538 57.9402 419.942 56.6716C419.627 56.2735 419.504 55.9957 419.291 55.8637C412.991 51.924 406.27 48.7062 399.254 46.2707C389.259 42.6 378.773 40.4532 368.144 39.9017C357.235 39.1706 346.279 39.6824 335.486 41.4275C326.95 43.0454 318.638 45.6824 310.727 49.2822C300.386 54.0455 291.304 61.1786 284.212 70.1073C277.37 78.9091 272.052 88.8034 268.483 99.3759C265.579 108.106 263.161 116.991 261.24 125.99C261.059 128.355 260.645 130.696 260.006 132.98C259.268 134.736 258.373 137.12 259.636 137.916C261.132 138.859 262.794 136.834 264.182 135.606C267.692 132.498 270.247 128.452 274.028 125.621C281.436 119.776 289.782 115.242 298.709 112.213C305.887 109.849 313.284 108.215 320.788 107.337C325.465 106.843 330.194 106.839 334.879 106.407C340.881 106.067 346.901 106.492 352.797 107.671C358.636 108.721 364.36 110.338 369.887 112.499C376.949 115.133 384.269 117.064 391.365 119.614C397.868 121.892 404.603 123.438 411.446 124.222C418.219 124.995 425.079 124.248 431.529 122.035C438.954 119.812 445.618 115.564 450.776 109.763C454.178 105.814 456.668 101.17 453.896 95.5975C452.443 92.775 450.848 90.0281 449.118 87.3675C442.249 76.4724 431.458 71.0676 420.164 66.326C414.856 64.1529 409.42 62.3105 403.887 60.8093C398.155 59.0881 392.282 57.88 386.337 57.1993C376.915 56.3255 367.433 56.3225 358.01 57.1903C353.042 57.6952 348.139 58.7114 343.379 60.2229C336.967 62.2076 330.728 64.7149 324.723 67.7196C317.925 71.0821 311.519 75.0507 305.082 79.0186C302.484 80.6181 300.544 83.4178 297.152 83.6524Z" fill="#0B0C0D"/>
<path d="M143.123 76.2446C146.1 79.7486 150.247 80.9852 154.396 82.4483C163.604 85.6957 173.08 85.0156 182.521 84.8174C190.681 84.4089 198.753 82.9321 206.531 80.4247C212.653 78.7415 218.678 76.7229 224.58 74.3779C228.917 72.5848 233.249 70.7788 237.607 69.0383C238.849 68.5422 238.702 68.0657 237.776 67.4536C236.924 66.9072 235.938 66.6098 234.927 66.5948C228.927 66.3705 222.982 65.3625 217.242 63.5964C211.692 61.8981 206.918 58.3104 207.977 52.4458C208.418 50.1966 209.433 48.1006 210.923 46.3628C212.412 44.625 214.326 43.3049 216.477 42.5316C224.568 39.1642 231.408 42.8378 237.876 46.9541C243.324 50.1941 247.636 55.0497 250.218 60.8517C250.392 61.2642 250.76 62.8084 252.763 61.6943C260.804 57.0049 268.509 51.7582 275.822 45.9924C277.41 44.7934 278.9 43.3722 281.489 44.3866C276.367 51.9963 269.836 58.548 262.251 63.6857C253.52 69.6902 244.114 74.643 234.229 78.4419C230.849 79.7292 227.032 80.6329 224.669 84.0357C222.014 87.8585 221.812 92.283 221.29 96.5954C220.867 100.087 221.218 103.672 220.828 107.171C220.39 111.104 219.561 115.125 216.269 117.76C214.291 119.392 211.86 120.372 209.307 120.569C206.754 120.766 204.202 120.168 201.999 118.859C197.619 116.408 196.671 111.869 196.804 107.04C196.915 102.348 198.307 97.7764 200.829 93.8235C201.435 92.856 201.932 91.4491 201.157 90.4998C200.531 89.7332 199.1 90.0439 198.319 90.5156C195.452 92.2466 192.111 91.9385 189.092 92.4067C179.673 94.0225 170.052 94.0687 160.618 92.5435C149.689 90.6027 139.864 86.357 133.272 76.7708C131.939 74.7247 130.867 72.519 130.08 70.2053C129.805 69.2603 129.278 68.4086 128.556 67.7422C127.834 67.0758 126.944 66.62 125.982 66.424C120.462 65.2818 115.195 63.3186 109.81 61.7431C108.595 61.3645 107.493 60.6904 106.602 59.7809C97.7251 51.6113 91.3599 41.067 88.2555 29.3897C86.8668 24.2857 86.1381 18.6778 88.5698 13.7196C92.3516 6.00968 104.625 5.61398 110.575 12.6812C111.227 13.4546 111.528 14.9401 112.841 14.6371C114.272 14.3067 114.074 12.8493 114.333 11.6734C115.29 8.01782 117.184 4.67733 119.827 1.98406L119.918 2.06L119.855 1.95907C120.303 1.73684 120.75 1.51461 121.196 1.29699C122.009 1.92462 122.034 1.34236 122.046 0.738992C122.626 0.527679 123.205 0.31612 123.778 0.105778C125.73 0.0711656 127.688 0.0359062 129.649 0C130.504 0.173223 131.358 0.345799 132.21 0.517728C132.402 1.32513 132.792 1.85475 133.737 1.58909C134.238 1.71703 134.739 1.84456 135.239 1.97169L135.153 2.0845L135.304 2.06024C135.374 2.31813 135.444 2.57603 135.512 2.83271L135.518 2.96008L135.628 2.90598C138.005 4.25772 139.942 6.27026 141.205 8.70118C141.904 9.79972 142.596 10.9031 143.292 12.005C143.156 13.9758 144.648 15.3991 145.087 17.2194C145.13 17.5675 145.282 17.893 145.521 18.1484C145.761 18.4038 146.075 18.5758 146.419 18.6394C146.762 18.703 147.117 18.6549 147.432 18.502C147.746 18.3492 148.004 18.0996 148.168 17.7896C149.005 16.8462 149.894 15.9496 150.829 15.1039C152.383 12.749 154.553 10.8688 157.101 9.66944C162.104 6.93426 168.022 10.2988 170.749 15.4193C174.942 23.5775 176.029 32.9899 173.804 41.8938C172.47 49.0958 168.693 55.6127 163.114 60.3377C161.302 62.1939 158.906 63.3649 156.332 63.6527C155.989 63.6616 155.655 63.7685 155.37 63.9607C155.085 64.1529 154.861 64.4226 154.723 64.7381C152.085 69.0745 147.54 69.3528 143.253 70.1725C142.278 70.3589 141.289 70.478 140.311 70.6243C140.233 70.5777 140.145 70.5496 140.055 70.542C139.969 70.5532 139.818 70.6367 139.82 70.6813C139.737 71.4405 139.868 72.208 140.199 72.8961C140.529 73.5842 141.045 74.1654 141.689 74.5732C141.9 74.9774 142.111 75.3816 142.318 75.7822C142.417 76.2213 142.429 76.8268 143.123 76.2446ZM106.587 17.8012C105.832 16.45 104.691 15.3561 103.312 14.6601C101.933 13.9641 100.377 13.6977 98.846 13.8952C97.9476 13.9799 97.08 14.2682 96.3087 14.7383C95.5374 15.2084 94.8826 15.8481 94.3937 16.6092C93.9047 17.3702 93.5943 18.2327 93.486 19.1316C93.3777 20.0305 93.4742 20.9424 93.7683 21.7984C94.0628 22.7558 94.2642 23.7422 94.4995 24.7175C95.703 30.3577 97.6833 35.8023 100.383 40.8945C104.384 48.2829 110.575 54.2408 118.099 57.9431C122.095 59.8507 126.386 61.9039 130.415 57.5806C131.299 56.6328 132.137 57.4062 132.831 58.3354C133.75 59.6673 135.096 60.6425 136.645 61.0982C138.194 61.5538 139.852 61.4623 141.342 60.8389C145.035 59.493 148.581 57.7739 151.926 55.7079C157.19 52.4543 162.072 48.7773 164.856 42.8188C167.013 37.6514 167.557 31.9495 166.418 26.4653C166.402 24.938 166.042 23.4342 165.363 22.0667C164.685 20.6993 163.707 19.5038 162.502 18.57C160.036 17.0016 157.898 17.1806 156.522 19.7896C155.458 21.806 154.588 23.9239 153.619 25.9912C152.361 29.57 150.822 33.043 149.016 36.3773C146.816 39.6266 145.196 39.4014 143.278 35.9959C140.074 30.3063 139.861 23.7852 137.977 17.7321C137.46 15.5867 136.515 13.5688 135.198 11.8004C133.882 10.0319 132.222 8.54978 130.318 7.44349C129.433 7.00707 128.463 6.77091 127.477 6.75168C126.491 6.73245 125.512 6.93061 124.61 7.33218C123.709 7.73375 122.906 8.32895 122.259 9.07578C121.611 9.82261 121.135 10.7029 120.864 11.6545C119.031 18.5327 119.316 25.8066 121.683 32.5189C122.084 33.8583 120.395 38.0989 119.13 38.3657C116.68 38.8823 116.313 36.7514 115.543 35.1905C113.741 31.5346 112.888 27.4313 110.361 24.1171C109.872 21.6359 108.537 19.4029 106.586 17.8012H106.587ZM242.316 61.4083C237.809 53.1899 230.951 50.4627 223.27 49.4234C220.967 49.4389 218.757 50.3379 217.093 51.9361C215.538 53.1491 216.024 54.7193 217.827 55.7652C219.598 56.6125 221.457 57.2587 223.371 57.692C229.599 59.3399 235.928 60.5813 242.316 61.4083H242.316ZM214.568 99.9174C214.568 98.4023 214.605 95.7892 214.541 93.1787C214.526 92.5547 214.757 91.5818 213.83 91.4171C213.009 91.2715 212.004 91.0661 211.495 92.1546C211.208 92.7665 210.578 93.0261 210.203 93.6588C207.556 98.2248 205.636 103.178 204.514 108.338C203.81 111.388 204.568 113.939 207.132 114.932C208.414 115.208 209.752 114.999 210.889 114.343C212.025 113.688 212.879 112.632 213.285 111.382C214.879 107.991 214.082 104.47 214.567 99.9174H214.568Z" fill="#0B0C0D"/>
<path d="M482.755 287.192L489.517 286.82C491.433 287.311 493.414 287.067 495.383 287.559C499.796 288.864 503.968 290.877 507.739 293.52C509.474 296.365 511.947 298.623 513.464 301.709C515.802 306.254 516.503 311.471 515.448 316.475C514.393 321.479 511.646 325.964 507.673 329.169C503.364 332.618 498.272 334.945 492.851 335.944C484.262 337.841 475.608 339.32 466.943 340.591C461.033 341.102 455.1 341.283 449.17 341.134C444.029 341.112 438.994 342.605 434.691 345.428C430.388 348.251 427.006 352.28 424.965 357.014C424.519 357.791 424.116 358.59 423.756 359.41C423.499 360.267 423.299 361.139 423.156 362.022C421.613 361.973 422.966 359.455 421.346 359.897C420.392 360.157 419.985 361.354 419.491 362.366C416.005 369.815 413.398 377.646 411.722 385.702C411.506 386.656 411.499 386.655 409.641 388.381C409.609 383.17 410.23 377.975 411.49 372.919C413.815 364.811 416.643 356.857 419.958 349.103C423.579 339.848 428.516 331.168 434.616 323.332C442.065 313.578 450.94 305.009 460.941 297.916C466.066 294.061 471.699 290.937 477.678 288.633C478.635 288.358 479.609 288.146 480.594 287.999C481.462 288.142 482.374 288.385 482.755 287.192ZM509.096 310.857C510.026 301.269 501.96 296.352 495.415 294.928C487.458 293.37 479.209 294.994 472.428 299.453C463.13 304.957 454.593 311.661 447.035 319.395C442.813 323.44 439.095 327.984 435.963 332.926C435.472 333.757 435.034 334.529 435.532 335.338C435.872 335.889 436.686 335.622 437.225 335.429C443.757 333.088 450.68 332.903 457.433 332.245C464.314 331.573 471.236 331.113 478.123 330.388C486.04 329.639 493.823 327.837 501.267 325.03C502.715 324.66 504.05 323.936 505.151 322.923C506.253 321.91 507.088 320.639 507.58 319.224C508.253 316.37 509.781 313.575 509.096 310.857Z" fill="#0B0C0D"/>
<path d="M143.18 174.509C152.887 174.136 163.427 183.124 165.819 193.438C166.958 197.15 167.396 201.042 167.111 204.915C166.133 211.755 161.65 216.566 156.987 221.243C154.091 223.932 150.629 225.933 146.859 227.098C142.538 228.66 138.597 226.191 134.538 225.437C132.845 225.122 131.039 224.825 129.313 224.385C126.3 223.615 124.82 221.089 122.655 219.322C120.34 217.472 118.471 215.123 117.185 212.449C115.899 209.775 115.23 206.845 115.226 203.876C114.697 194.443 117.391 186.806 124.593 180.861C129.794 176.513 136.415 174.25 143.18 174.509ZM158.879 200.98C158.879 200.175 158.85 199.368 158.886 198.565C158.913 198.008 158.785 197.455 158.516 196.968C158.246 196.481 157.846 196.079 157.361 195.808C156.162 195.127 155.391 196.283 154.622 197.042C153.63 198.021 152.602 198.968 151.662 199.995C147.005 205.09 141.595 209.462 137.578 215.198C136.523 216.704 137.31 217.389 138.007 217.716C140.064 219.013 142.527 219.499 144.92 219.079C148.861 217.941 152.338 215.574 154.848 212.32C157.358 209.066 158.77 205.094 158.879 200.981V200.98ZM129.847 213.198C130.62 213.267 131.397 213.136 132.104 212.816C132.812 212.497 133.425 212.001 133.886 211.375C139.404 205.304 145.341 199.631 151.654 194.399C155.523 190.885 155.311 191.042 151.509 187.564C149.033 185.298 148.107 187.732 146.957 188.606C139.563 194.217 134.462 202.119 127.666 208.353C126.929 209.028 125.77 209.859 126.64 211.115C127.411 212.229 128.191 213.538 129.847 213.199V213.198ZM123.553 199.714C123.692 200.56 123.24 201.55 124.098 202.009C124.498 202.191 124.943 202.248 125.376 202.174C125.809 202.1 126.21 201.897 126.527 201.593C132.358 197.662 136.645 192.168 141.383 187.132C141.552 186.959 141.685 186.754 141.771 186.528C141.857 186.302 141.896 186.06 141.885 185.819C141.702 185.042 140.923 185.294 140.364 185.307C137.409 185.613 134.552 186.544 131.981 188.038C129.686 189.082 127.702 190.708 126.224 192.756C124.746 194.804 123.825 197.203 123.553 199.716V199.714Z" fill="#FF3B53"/>
<path d="M100.393 137.681C96.3805 137.319 92.4992 136.066 89.0304 134.011C87.0873 132.592 85.6454 130.588 84.9134 128.291C84.1814 125.994 84.1975 123.523 84.9594 121.236C85.7684 118.19 87.0852 115.304 88.8543 112.699C92.3241 107.478 97.8251 105.678 103.217 103.501C112.86 99.6084 122.744 101.218 132.552 102.094C135.236 102.445 137.726 103.684 139.629 105.614C140.152 106.073 140.561 106.649 140.822 107.294C141.083 107.94 141.189 108.639 141.132 109.333C141.075 110.028 140.857 110.7 140.495 111.294C140.132 111.889 139.636 112.39 139.046 112.758C136.481 114.633 133.371 114.779 130.49 115.687C123.983 117.737 120.147 123.145 115.927 128.02C113.061 131.779 109.34 134.795 105.074 136.816C103.549 137.271 101.979 137.561 100.393 137.681Z" fill="#FFC43B"/>
<path d="M447.147 57.1847C441.458 53.8061 437.258 48.3879 435.396 42.0236C435.089 41.3125 434.715 40.6324 434.279 39.9925C434.225 39.1082 434.064 38.2339 433.8 37.3888C432.284 33.5026 430.476 29.7373 428.392 26.1254C426.5 23.2078 425.481 19.5866 422.358 17.522C421.367 15.0043 419.821 12.7441 417.837 10.9106C416.981 9.9077 415.678 9.12795 416.403 7.35812C416.716 7.67419 417.094 7.91733 417.511 8.07028C417.928 8.22324 418.373 8.28224 418.815 8.2431C419.257 8.20397 419.685 8.06765 420.068 7.84384C420.452 7.62003 420.782 7.31421 421.034 6.94811C422.822 5.20878 425.202 4.21667 427.692 4.1729C432.342 3.70256 437.038 4.27095 441.443 5.83727C445.848 7.40359 449.853 9.92899 453.17 13.2322C455.708 16.1881 457.663 19.602 458.929 23.2915C460.049 25.7814 460.899 28.3933 461.869 30.9487C461.825 31.4288 461.854 31.9128 461.956 32.384C464.094 37.8847 464.905 43.8152 464.322 49.6905C463.737 55.9498 458.339 61.3358 451.469 58.8764C450.119 58.1022 448.663 57.5322 447.147 57.1847ZM457.805 45.8503C457.366 38.5548 455.485 31.4199 452.273 24.8604C450.056 20.3599 446.637 16.5659 442.397 13.9019C438.156 11.238 433.261 9.80891 428.258 9.77426C426.708 9.72574 424.679 9.24853 423.942 11.0094C423.308 12.523 425.047 13.5083 425.946 14.5617C432.609 22.1539 437.706 30.9958 440.943 40.5764C442.581 46.2115 446.328 50.9923 451.4 53.918C451.839 54.218 452.337 54.4193 452.86 54.5084C453.384 54.5973 453.92 54.5719 454.433 54.4337C454.946 54.2955 455.423 54.0478 455.832 53.7075C456.24 53.3673 456.571 52.9426 456.801 52.4623C458.159 50.4775 457.491 48.4057 457.805 45.849L457.805 45.8503Z" fill="#0B0C0D"/>
<path d="M436.714 155.94C436.959 152.813 438.072 149.818 439.926 147.294C441.78 144.769 444.301 142.815 447.204 141.654C449.619 140.729 452.105 140.005 454.638 139.489C460.189 138.171 467.347 143.035 469.742 149.014C471.257 152.716 471.268 156.867 469.772 160.577C468.276 164.288 465.393 167.264 461.739 168.869C457.653 170.535 453.089 170.58 448.972 168.994C445.804 168.22 442.886 166.644 440.498 164.417C439.276 163.377 438.303 162.076 437.648 160.609C436.993 159.142 436.674 157.546 436.714 155.94Z" fill="#3857F6"/>
<path d="M39.2971 336.156C39.2932 340.864 36.4729 343.793 31.9776 345.341C27.8242 346.77 23.5177 345.956 19.3315 347.282C14.8132 348.713 6.27698 344.124 4.85036 340.416C4.12158 338.521 5.34968 335.027 7.19582 334.619C8.76028 334.031 10.3825 333.61 12.0354 333.365C17.958 333.42 23.6812 331.524 29.649 331.858C32.2176 332.157 34.7642 332.622 37.2728 333.251C37.9195 333.378 38.4919 333.752 38.8695 334.294C39.2471 334.836 39.4004 335.503 39.2971 336.156Z" fill="#F8C03F"/>
<path d="M49.3252 387.038C51.0185 386.876 52.7248 387.156 54.2783 387.851C55.8318 388.547 57.1798 389.633 58.1911 391.005C58.5885 391.356 58.8905 391.802 59.0689 392.301C59.2473 392.801 59.296 393.338 59.2106 393.862C59.1253 394.385 58.9086 394.879 58.5808 395.295C58.2531 395.712 57.8251 396.038 57.3372 396.243C52.099 399.01 47.1051 402.219 42.4095 405.836C40.1679 407.216 37.7898 408.36 35.3134 409.25C34.4165 409.61 33.4207 409.635 32.5065 409.322C31.5924 409.009 30.8203 408.377 30.3304 407.542C28.8037 405.334 27.7321 402.855 29.2878 400.323C33.0341 394.278 38.7387 389.71 45.4444 387.386C46.7171 387.099 48.022 386.982 49.3252 387.038Z" fill="#F8C03F"/>
<path d="M95.566 473.674C94.6309 478.89 92.827 483.911 90.23 488.526C87.9333 492.921 85.869 497.434 84.0457 502.046C83.9364 502.325 83.9676 502.732 83.777 502.895C82.5707 503.929 82.0939 505.952 80.143 505.946C78.3095 505.94 77.8506 504.195 76.9944 502.998C74.6953 499.783 75.4505 496.249 76.4535 492.984C78.2853 486.908 80.8915 481.095 84.2075 475.689C85.4936 473.533 87.1882 471.65 89.1956 470.147C89.8064 469.55 90.5859 469.157 91.4276 469.022C92.2694 468.886 93.1323 469.015 93.8985 469.39C94.5607 469.865 95.071 470.523 95.367 471.283C95.6631 472.044 95.7322 472.875 95.566 473.674Z" fill="#0B0C0D"/>
<path d="M82.7563 441.228C83.2807 442.999 81.9811 444.196 81.0983 445.441C77.4411 450.596 74.8172 456.406 70.9489 461.427C70.6157 461.906 70.2548 462.365 69.8681 462.801C68.2839 464.436 66.7424 466.726 64.1934 465.53C62.6331 464.716 61.4204 463.361 60.7807 461.717C60.141 460.074 60.1178 458.253 60.7153 456.594C63.309 449.985 67.2747 444.006 72.3488 439.053C75.4781 435.961 78.1183 435.158 80.9612 437.369C81.6241 437.744 82.1536 438.318 82.4754 439.01C82.7973 439.702 82.8955 440.477 82.7563 441.228Z" fill="#F8C03F"/>
<path d="M8.1713 386.121C7.22829 385.478 5.53425 386.785 4.99238 384.806C4.7675 384.127 4.72927 383.4 4.88169 382.701C5.03411 382.002 5.37151 381.357 5.85846 380.834C9.66291 376.974 14.1455 373.853 19.0803 371.627C23.3913 369.294 28.0212 367.611 32.8211 366.632C33.8758 366.288 35.0091 366.27 36.074 366.581C37.8875 367.357 38.8019 368.325 37.2462 370.426C34.0111 374.298 29.8771 377.312 25.208 379.204C20.5981 381.456 15.9048 383.541 11.2078 385.607C10.2201 385.901 9.20048 386.073 8.1713 386.121Z" fill="#0B0C0D"/>
<path d="M10.9687 261.672C16.7014 261.839 22.2418 263.784 26.8282 267.238C28.0372 268.096 29.4602 269.256 28.7868 271.208C28.4918 271.909 27.9966 272.506 27.3637 272.924C26.7308 273.343 25.9886 273.564 25.2307 273.559C21.2785 273.917 17.4421 275.46 13.4115 274.872C8.88068 274.21 4.4587 273.165 1.2302 269.541C-0.903441 267.146 -0.146623 264.559 2.61231 262.974C5.05206 261.573 7.59289 261.817 10.9687 261.672Z" fill="#F8C03F"/>
<path d="M34.6996 451.967C32.0078 452.036 30.7783 449.694 32.0279 446.99C33.847 443.244 36.2594 439.82 39.1712 436.849C42.2517 433.188 45.8965 430.046 49.9673 427.541C52.9987 425.879 55.6197 426.122 56.9109 428.357C57.3798 429.168 57.5092 429.779 56.9253 430.49C50.8561 437.877 45.2541 445.721 37.0793 451.061C36.4256 451.648 35.5774 451.971 34.6996 451.967Z" fill="#0B0C0D"/>
<path d="M44.2571 229.672C44.2571 228.847 44.2542 228.545 44.2571 228.243C44.2052 227.033 44.5313 225.837 45.1897 224.822C45.8481 223.807 46.806 223.024 47.9295 222.582C49.8344 221.826 51.4888 223.393 52.8596 224.62C56.8276 228.603 60.2298 233.115 62.9699 238.029C63.1278 238.277 63.115 238.657 63.3067 238.856C64.7234 240.341 66.382 241.952 64.1272 243.812C63.3929 244.641 62.4046 245.203 61.3177 245.407C60.2309 245.611 59.1072 245.447 58.1233 244.941C52.6906 242.394 47.8741 239.478 45.1674 233.843C44.5912 232.527 44.2818 231.109 44.2571 229.672Z" fill="#F8C03F"/>
<path d="M135.461 494.901C136.126 499.174 133.996 503.128 133.995 507.343C134.003 507.696 133.938 508.047 133.804 508.374C133.671 508.701 133.472 508.997 133.22 509.244C132.968 509.491 132.668 509.683 132.338 509.808C132.009 509.934 131.658 509.99 131.306 509.974C129.755 509.948 128.351 510.433 127.253 508.13C124.665 502.423 124.371 495.934 126.431 490.014C127.523 486.292 131.385 485.423 134.615 487.684C134.926 487.926 135.167 488.248 135.313 488.616C135.459 488.983 135.504 489.383 135.443 489.774C135.5 491.482 135.461 493.192 135.461 494.901Z" fill="#F8C03F"/>
<path d="M359.584 352.881C364.888 352.862 370.047 354.622 374.24 357.882C375.157 358.615 376.587 359.358 375.91 360.948C375.279 362.43 373.858 362.508 372.556 362.19C366.996 360.831 361.083 361.032 355.832 358.257C354.414 357.507 352.976 356.854 353.387 355.061C353.766 353.404 355.238 352.857 356.877 352.878C357.779 352.891 358.681 352.881 359.584 352.881Z" fill="#0B0C0D"/>
<path d="M386.094 414.812C386.864 412.782 387.848 410.755 385.318 408.283C387.459 408.665 389.184 407.241 389.585 409.807C388.415 409.732 388.043 410.359 388.139 411.427C388.188 412.134 388.017 412.839 387.651 413.445C387.285 414.051 386.741 414.528 386.094 414.812Z" fill="#F8C03F"/>
<path d="M141.689 74.5712C141.046 74.1634 140.529 73.5822 140.199 72.8941C139.868 72.206 139.737 71.4385 139.821 70.6793C139.818 70.6347 139.969 70.5512 140.055 70.54C140.146 70.5476 140.233 70.5757 140.311 70.6223C140.879 71.9018 140.578 73.4853 141.689 74.5712Z" fill="#3857F6"/>
<path d="M437.545 218.539C437.225 219.421 436.234 219.616 435.877 219.18C435.722 219.027 435.615 218.832 435.569 218.619C435.523 218.407 435.539 218.185 435.617 217.981C435.695 217.778 435.83 217.601 436.006 217.474C436.182 217.346 436.391 217.273 436.608 217.263C436.921 217.692 437.233 218.115 437.545 218.539Z" fill="#3857F6"/>
<path d="M122.045 0.740354C122.033 1.34251 122.008 1.92477 121.196 1.29835C121.074 0.481489 121.308 0.222383 122.045 0.740354Z" fill="#F8C03F"/>
<path d="M143.123 76.2444C142.429 76.8266 142.417 76.2201 142.317 75.7803C142.814 75.5428 143.187 75.5112 143.123 76.2444Z" fill="#3857F6"/>
<path d="M439.089 217.135C439.539 217.831 439.225 218.021 438.548 217.966C438.107 217.283 438.473 217.128 439.089 217.135Z" fill="#3857F6"/>
<path d="M135.304 2.06097L135.151 2.08523L135.238 1.97363L135.304 2.06097Z" fill="#F8C03F"/>
<path d="M119.855 1.95898L119.918 2.0607L119.826 1.9832L119.855 1.95898Z" fill="#F8C03F"/>
<path d="M135.628 2.908L135.516 2.9613L135.511 2.83289L135.621 2.75293L135.628 2.908Z" fill="#F8C03F"/>
<path d="M315.558 380.633C318.81 380.411 322.135 381.024 325.268 379.438C325.773 379.213 326.333 379.14 326.879 379.229C327.424 379.319 327.932 379.566 328.339 379.942C331.855 382.77 335.755 385.167 339.017 388.25C342.375 390.904 345.93 393.296 349.652 395.404C351.147 396.384 352.387 397.707 353.272 399.263C353.564 400.864 354.905 401.696 355.859 402.814C359.628 407.232 359.45 410.751 355.143 414.047C353.871 414.927 352.496 415.647 351.049 416.191C346.165 418.277 341.281 420.374 336.342 422.322C329.571 424.99 323.153 428.46 316.292 430.956C313.668 431.911 310.446 432.132 308.679 434.909C307.803 434.817 306.919 434.901 306.076 435.155C304.616 435.985 306.271 435.882 306.517 436.217C305.921 438.448 303.52 437.651 302.238 438.19C295.451 441.045 288.269 442.94 281.282 445.338C275.687 447.258 270.236 449.613 264.609 451.421C259.224 453.15 253.985 455.237 248.698 457.21C240.692 460.198 232.776 463.453 224.677 466.158C214.602 469.522 204.786 473.574 194.754 477.038C191.048 478.49 187.259 479.722 183.409 480.726C181.169 481.451 179.019 482.432 177.001 483.65C175.881 484.224 174.594 484.381 173.369 484.093C172.144 483.805 171.06 483.091 170.31 482.077C161.337 472.993 152.357 463.914 143.525 454.692C134.527 445.296 125.275 436.16 115.94 427.107C113.447 424.689 113.665 422.949 116.95 421.761C119.698 420.674 122.537 419.835 125.433 419.254C133.457 417.903 141.185 415.354 149.046 413.391C156.219 411.601 163.321 409.301 170.469 407.377C177.25 405.551 183.958 403.459 190.675 401.466C198.382 399.179 206.102 396.868 213.708 394.178C219.425 392.157 225.355 390.647 231.097 388.637C240.134 385.476 249.329 382.804 258.328 379.503C263.444 377.625 268.737 376.155 273.914 374.366C282.756 371.309 291.702 368.551 300.57 365.566C301.755 365.167 302.287 364.984 302.719 366.409C303.366 368.541 304.271 370.595 305.066 372.681C303.479 372.383 301.845 372.464 300.296 372.919C293.744 375.431 286.894 376.982 280.196 378.988C272.546 381.279 265.015 383.934 257.357 386.198C248.474 388.823 239.79 392.121 230.998 395.063C223.884 397.442 216.679 399.584 209.613 402.06C201.99 404.73 194.229 406.915 186.561 409.409C178.382 412.069 169.939 413.904 161.734 416.495C153.091 419.224 144.628 422.522 136.024 425.384C126.618 428.512 126.362 429.309 133.176 436.776C133.31 436.923 133.462 437.055 133.6 437.199C138.503 442.304 138.502 442.303 144.78 438.849C145.039 438.706 145.364 438.69 145.632 438.559C154.211 434.362 162.719 430.009 171.383 425.999C179.709 422.146 188.103 418.405 196.643 415.07C204.001 412.195 211.368 409.314 218.771 406.544C223.926 404.614 229.032 402.358 234.234 400.621C242.37 397.904 250.338 394.709 258.581 392.272C265.862 390.117 272.842 386.925 280.137 384.832C287.82 382.627 295.245 379.63 302.991 377.604C304.318 377.256 306.765 377.734 307.421 375.442C308.927 376.71 310.985 377.319 311.937 379.247C309.956 380.902 307.855 382.406 305.65 383.747C297.161 388.5 287.865 390.962 278.717 393.91C277 394.464 274.796 394.409 273.582 396.248C272.584 396.416 271.559 396.274 270.644 395.841C269.503 395.313 268.225 395.158 266.992 395.399C265.758 395.639 264.631 396.263 263.77 397.181C262.298 398.329 260.538 399.045 258.685 399.25C254.059 400.22 249.219 399.823 244.733 401.66C238.741 404.115 232.636 406.294 226.683 408.838C219.207 411.627 212.393 415.948 206.674 421.526C205.373 421.473 204.071 421.613 202.811 421.941C194.225 425.63 185.408 428.709 176.608 431.795C166.719 435.265 156.823 438.683 147.2 442.852C142.197 445.02 142.127 445.373 146.112 449.207C146.891 449.956 147.882 450.488 148.629 451.263C148.965 451.644 149.422 451.899 149.922 451.983C150.423 452.068 150.937 451.978 151.379 451.728C152.911 450.63 154.779 450.799 156.362 449.919C159.373 448.245 162.486 446.735 165.629 445.32C172.262 442.335 178.903 439.361 185.616 436.564C190.25 434.481 195.133 433.005 200.144 432.175C201.456 431.993 202.864 431.867 203.569 433.327C204.429 435.108 203.101 436.274 201.955 437.09C196.105 441.105 189.71 444.254 182.966 446.441C174.377 449.074 165.954 452.222 157.74 455.866C154.495 457.443 154.113 459.428 156.471 462.175C159.482 465.166 162.76 467.873 166.264 470.263C166.97 470.998 167.891 471.489 168.893 471.664C169.895 471.838 170.927 471.688 171.838 471.235C175.654 468.985 179.684 467.123 183.869 465.678C189.747 463.629 195.662 461.688 201.571 459.73C206.252 458.178 210.977 456.755 215.628 455.12C220.742 453.322 225.748 451.212 230.882 449.479C237.892 447.114 244.791 444.442 251.881 442.276C258.655 440.206 265.187 437.348 271.868 434.955C278.65 432.526 285.546 430.41 292.279 427.854C301.039 424.529 309.725 421 318.369 417.381C325.365 414.452 332.483 411.802 339.261 408.352C341.593 407.165 341.101 405.552 339.993 403.996C339.242 403.065 338.323 402.285 337.283 401.698C333.848 399.548 330.602 397.109 327.58 394.406C323.856 391.05 324.043 391.13 319.319 393.31C313.704 395.9 308.015 398.337 302.222 400.541C299.542 401.56 296.425 401.897 294.332 404.256C292.09 402.832 289.32 402.386 287.345 400.468C291.558 397.735 296.066 395.49 300.783 393.777C306.525 391.493 312.315 389.33 318.118 387.207C319.931 386.544 320.019 385.76 318.801 384.432C317.677 383.204 316.636 381.902 315.558 380.633Z" fill="#41C3FA"/>
<path d="M319.076 355.534C326.237 356.043 332.489 358.441 336.826 364.535C339.277 367.98 339.432 370.785 334.369 372.656C330.56 374.063 326.543 374.694 322.807 376.446C319.232 378.123 313.183 375.754 310.954 372.24C309.468 370.221 308.666 367.778 308.665 365.269C308.663 362.759 309.463 360.315 310.946 358.295C311.994 357.232 313.274 356.43 314.686 355.951C316.097 355.471 317.6 355.329 319.076 355.534Z" fill="#3857F6"/>
<path d="M508.859 210.184C510.726 210.343 511.028 212.061 510.963 213.179C510.928 213.807 510.683 214.404 510.267 214.874C509.851 215.343 509.289 215.658 508.673 215.767C500.628 217.576 492.393 218.383 484.151 218.171C479.637 218.154 475.108 218.178 470.615 217.825C466.456 217.498 462.331 216.721 458.134 216.751C457.489 216.756 456.694 216.857 456.635 215.766C456.588 214.9 457.085 214.65 457.712 214.232C462.34 210.974 467.769 209.05 473.41 208.669C485.207 209.348 497.096 208.288 508.859 210.184Z" fill="#F8C03F"/>
<path d="M391.679 281.43C395.836 278.455 400.464 276.207 405.368 274.779C412.498 272.884 419.862 272.028 427.235 272.238C431.078 272.462 434.814 273.596 438.136 275.548C439.764 276.34 441.344 277.491 440.777 279.703C440.193 281.976 438.089 282.525 436.228 282.819C431.798 283.754 427.238 283.897 422.759 283.241C417.283 282.518 411.744 282.398 406.241 282.884C401.595 283.051 397.216 281.567 391.679 281.43Z" fill="#3857F6"/>
<path d="M423.546 211.653C423.544 207.32 423.561 202.988 423.537 198.656C423.738 196.049 424.347 193.491 425.344 191.076C426.166 188.468 427.409 188.47 429.189 190.621C430.775 192.571 431.898 194.858 432.474 197.308C433.051 199.758 433.065 202.307 432.516 204.763C431.552 210.198 431.694 215.785 430.087 221.125C429.502 223.31 428.462 225.345 427.035 227.096C426.477 227.743 425.782 228.831 424.515 228.212C423.492 227.713 423.56 226.748 423.556 225.859C423.537 221.123 423.548 216.387 423.546 211.653Z" fill="#3857F6"/>
<path d="M357.61 277.788C357.68 279.349 357.669 280.913 357.578 282.472C357.392 284.119 356.553 284.51 355.246 283.289C350.462 279.308 346.189 274.747 342.525 269.71C341.366 267.817 340.997 265.542 341.497 263.378C341.998 261.214 343.328 259.335 345.199 258.148C346.069 257.461 347.172 257.146 348.272 257.269C349.371 257.392 350.378 257.944 351.075 258.806C353.607 261.529 355.361 264.887 356.151 268.526C357.353 271.457 357.853 274.629 357.61 277.788Z" fill="#F8C03F"/>
<path d="M508.859 210.184C497.096 208.288 485.207 209.348 473.41 208.67C472.874 207.87 473.769 208.03 473.955 208.015C481.934 207.334 489.887 205.664 497.92 206.576C501.833 206.719 505.625 207.97 508.859 210.184Z" fill="#F9F9F9"/>
<path d="M331.953 377.482C334.622 376.343 337.183 374.466 340.477 375.936C339.309 376.907 337.91 377.559 336.417 377.83C334.924 378.101 333.387 377.981 331.953 377.482Z" fill="#3857F6"/>
<path d="M306.517 436.217C306.271 435.881 304.616 435.984 306.076 435.154C306.919 434.9 307.804 434.817 308.679 434.909L308.688 434.917L309.219 435.891L306.517 436.217Z" fill="#F9F9F9"/>
<path d="M312.823 434.64C312.581 433.211 313.312 433.209 314.315 433.616C314.204 434.53 313.635 434.764 312.823 434.64Z" fill="#41C3FA"/>
<path d="M316.297 433.154C316.646 432.261 317.164 431.804 318.107 432.444C317.958 432.777 317.685 433.038 317.346 433.171C317.008 433.303 316.631 433.297 316.297 433.154Z" fill="#41C3FA"/>
<path d="M309.22 435.891L308.689 434.916C309.187 435.019 309.685 435.123 310.18 435.23C310.446 436.315 309.644 435.826 309.22 435.891Z" fill="#41C3FA"/>
<path d="M314.432 380.379C313.526 380.547 312.871 380.312 312.705 379.293C313.527 379.258 314.4 379.145 314.432 380.379Z" fill="#41C3FA"/>
<path d="M297.151 83.6526C290.583 89.4455 284.016 95.2397 277.45 101.035C276.856 101.56 276.346 102.181 275.749 102.703C271.759 106.191 270.644 105.83 269.505 100.641C269.36 99.9814 269.186 99.5054 268.482 99.3768C272.052 88.8041 277.369 78.9095 284.212 70.1075C291.303 61.1788 300.385 54.0456 310.727 49.2824C318.638 45.6826 326.95 43.0456 335.486 41.4277C346.279 39.6826 357.235 39.1708 368.143 39.9019C378.772 40.4533 389.259 42.6002 399.254 46.2709C406.269 48.7064 412.991 51.9242 419.291 55.8639C419.504 55.9959 419.628 56.2737 419.942 56.6718C417.538 57.9404 415.774 56.1077 414.066 55.4932C408.694 53.511 403.189 51.9133 397.593 50.7123C387.939 48.5072 378.043 47.5624 368.148 47.9015C357.904 48.332 347.803 50.4612 338.252 54.2025C326.568 58.7968 315.581 65.006 305.609 72.65C302.561 75.0104 299.951 77.8904 297.898 81.1583C297.48 81.929 297.226 82.7783 297.151 83.6526Z" fill="#41C3FA"/>
<path d="M110.359 24.1167C112.886 27.4309 113.739 31.5342 115.542 35.1901C116.311 36.751 116.678 38.8819 119.128 38.3653C120.393 38.0985 122.082 33.8589 121.681 32.5185C119.314 25.8062 119.029 18.5322 120.862 11.6541C121.133 10.7025 121.609 9.82221 122.257 9.07538C122.904 8.32855 123.707 7.73335 124.608 7.33178C125.51 6.9302 126.489 6.73204 127.475 6.75128C128.461 6.77051 129.431 7.00667 130.316 7.44309C132.22 8.54938 133.88 10.0315 135.196 11.8C136.513 13.5684 137.458 15.5863 137.975 17.7317C139.859 23.7848 140.072 30.3059 143.276 35.9955C145.193 39.401 146.814 39.6262 149.014 36.3769C150.82 33.0426 152.359 29.5696 153.617 25.9908C154.586 23.9235 155.457 21.8056 156.52 19.7892C157.896 17.1802 160.034 17.0012 162.5 18.5696C163.705 19.5034 164.683 20.6989 165.361 22.0663C166.04 23.4338 166.4 24.9376 166.416 26.4649C167.555 31.9491 167.011 37.651 164.855 42.8184C162.07 48.7769 157.188 52.4539 151.924 55.7075C148.579 57.7735 145.033 59.4926 141.34 60.8385C139.85 61.4619 138.192 61.5534 136.643 61.0978C135.094 60.6421 133.748 59.6669 132.829 58.335C132.135 57.4058 131.297 56.6324 130.413 57.5802C126.385 61.9035 122.093 59.8503 118.097 57.9427C110.573 54.2404 104.382 48.2825 100.381 40.8941C97.6813 35.8019 95.701 30.3573 94.4975 24.7171C94.2622 23.7418 94.0608 22.7554 93.7663 21.798C93.4722 20.942 93.3757 20.0301 93.484 19.1312C93.5924 18.2323 93.9027 17.3698 94.3917 16.6088C94.8806 15.8477 95.5355 15.208 96.3067 14.7379C97.078 14.2678 97.9456 13.9795 98.8441 13.8948C100.375 13.6973 101.93 13.9636 103.31 14.6596C104.689 15.3557 105.829 16.4496 106.584 17.8008C106.32 19.1359 106.56 20.522 107.257 21.6893C107.955 22.8567 109.061 23.7219 110.359 24.1167Z" fill="#F8C03F"/>
<path d="M242.316 61.408C235.927 60.5814 229.599 59.3405 223.37 57.6929C221.457 57.2596 219.598 56.6134 217.827 55.7661C216.024 54.7202 215.538 53.1508 217.093 51.937C218.756 50.3388 220.966 49.4398 223.27 49.4243C230.949 50.4632 237.808 53.1896 242.316 61.408Z" fill="#F9F9F9"/>
<path d="M214.567 99.9176C214.082 104.47 214.879 107.991 213.285 111.382C212.879 112.633 212.025 113.688 210.889 114.344C209.753 114.999 208.414 115.209 207.133 114.932C204.568 113.939 203.81 111.39 204.514 108.339C205.637 103.178 207.556 98.2253 210.203 93.6593C210.578 93.0263 211.209 92.7667 211.495 92.1551C212.005 91.0665 213.01 91.2717 213.83 91.4176C214.757 91.5823 214.526 92.5551 214.541 93.1791C214.603 95.7894 214.567 98.4032 214.567 99.9176Z" fill="#F9F9F9"/>
<path d="M110.359 24.1161C109.061 23.7211 107.956 22.856 107.259 21.6888C106.561 20.5217 106.321 19.1361 106.586 17.8013C108.536 19.4029 109.87 21.6355 110.359 24.1161Z" fill="#F9F9F9"/>
<path d="M509.096 310.858C509.781 313.575 508.252 316.371 507.581 319.226C507.088 320.641 506.253 321.912 505.152 322.925C504.05 323.939 502.716 324.662 501.267 325.032C493.823 327.839 486.041 329.641 478.124 330.39C471.236 331.115 464.314 331.576 457.433 332.247C450.68 332.905 443.757 333.09 437.225 335.431C436.686 335.625 435.871 335.892 435.533 335.34C435.034 334.531 435.473 333.759 435.963 332.928C439.095 327.986 442.813 323.442 447.035 319.398C454.593 311.664 463.13 304.959 472.428 299.455C479.209 294.996 487.458 293.371 495.416 294.929C501.96 296.352 510.026 301.269 509.096 310.858Z" fill="#41C3FA"/>
<path d="M457.805 45.8484C457.491 48.405 458.159 50.4769 456.801 52.4615C456.571 52.9417 456.241 53.3664 455.832 53.7067C455.423 54.0469 454.946 54.2946 454.434 54.4328C453.921 54.571 453.384 54.5965 452.861 54.5075C452.337 54.4185 451.839 54.2171 451.4 53.9171C446.329 50.9914 442.581 46.2106 440.944 40.5755C437.707 30.9949 432.609 22.153 425.946 14.5608C425.047 13.5074 423.308 12.5229 423.942 11.0085C424.68 9.24765 426.708 9.72414 428.258 9.77339C433.261 9.80803 438.156 11.2371 442.397 13.901C446.638 16.565 450.057 20.359 452.273 24.8596C455.486 31.4187 457.366 38.5533 457.805 45.8484Z" fill="#F8C03F"/>
<path d="M124.033 393.929C121.335 393.561 118.753 392.592 116.477 391.094C114.2 389.595 112.287 387.604 110.877 385.266C106.98 379.519 103.645 373.392 99.8298 367.585C96.5684 362.621 93.0689 357.834 90.2787 352.55C86.2922 345.002 83.1926 337.083 79.9089 329.228C76.5661 321.231 73.1456 313.246 69.2594 305.508C67.8615 302.725 69.167 301.54 70.6083 300.048C73.7731 297.195 77.4595 294.986 81.4632 293.542C89.8493 289.806 98.5664 286.96 107.243 283.983C114.017 281.66 120.788 279.404 127.675 277.422C135.648 275.127 143.574 272.648 151.452 269.987C158.51 267.6 165.66 265.446 172.755 263.137C181.066 260.433 189.399 257.777 197.804 255.386C203.557 253.749 209.448 252.605 215.276 251.233C218.379 250.503 221.489 249.801 224.576 249.01C230.6 247.467 233.867 249.096 236.715 255.363C239.388 261.246 240.196 267.852 243.281 273.573C246.705 279.927 249.947 286.368 253.005 292.898C255.967 299.199 259.106 305.412 261.661 311.903C263.659 316.979 266.084 321.899 267.832 327.053C268.78 329.849 269.878 332.583 270.854 335.364C272.274 339.402 269.471 343.03 263.027 344.921C259.037 346.092 254.835 346.545 250.864 347.765C247.358 348.917 243.943 350.33 240.647 351.993C233.587 355.396 226.125 357.784 218.921 360.817C212.472 363.532 205.88 365.909 199.329 368.33C192.737 370.766 186.108 373.126 179.44 375.41C171.021 378.299 162.678 381.41 154.246 384.257C146.985 386.707 139.644 388.917 132.341 391.243C129.376 392.187 126.421 393.156 124.033 393.929ZM223.417 258.05C218.258 259.225 212.248 260.355 206.378 261.99C198.036 264.311 189.849 267.188 181.501 269.483C173.433 271.702 165.462 274.254 157.442 276.616C149.342 279.001 141.25 281.495 133.177 284.012C121.675 287.597 109.788 289.816 98.3285 293.587C91.6089 295.798 84.8844 297.995 78.1943 300.296C75.7091 301.15 75.3849 302.993 77.0729 305.167C78.5136 306.637 79.784 308.265 80.8599 310.021C83.7224 316.141 86.5101 322.297 89.4378 328.386C93.0406 335.881 96.7505 343.314 100.74 350.624C104.919 358.283 110.095 365.253 114.725 372.595C117.127 376.401 118.643 380.789 122.199 383.889C122.962 384.806 123.991 385.461 125.144 385.761C126.296 386.06 127.513 385.99 128.623 385.559C130.391 384.69 132.226 384.1 134.024 383.385C139.486 381.209 144.976 379.106 150.495 377.075C154.853 375.477 159.263 374.02 163.664 372.544C167.94 371.111 172.25 369.781 176.516 368.32C183.672 365.868 190.816 363.379 197.946 360.852C205.738 358.104 213.594 355.513 221.28 352.488C230.318 348.93 239.339 345.298 248.08 341.029C250.356 339.917 253.309 339.438 254.589 337.235C255.726 335.28 256.518 335.48 258.057 336.254C259.826 337.144 260.76 336.582 260.523 334.5C260.526 333.693 260.422 332.89 260.215 332.11C257.98 326.656 255.909 321.115 253.332 315.824C249.127 307.187 244.305 298.872 240.168 290.182C235.235 280.585 231 270.642 227.495 260.432C226.986 258.787 225.994 257.902 223.417 258.05Z" fill="#0B0C0D"/>
<path d="M294.332 404.254C295.528 405.2 296.787 406.079 297.907 407.109C300.703 409.678 300.538 413.014 297.225 414.637C290.509 417.927 283.89 421.41 276.938 424.24C269.291 427.355 261.94 431.202 254.289 434.305C246.995 437.265 239.992 440.818 232.848 444.079C230.991 444.927 229.297 446.128 227.498 447.112C225.761 448.239 223.648 448.631 221.624 448.2C219.599 447.769 217.827 446.551 216.695 444.812C213.21 440.073 209.782 435.292 206.412 430.468C205.331 429.216 204.758 427.602 204.806 425.946C204.854 424.29 205.52 422.713 206.672 421.526C212.392 415.949 219.208 411.627 226.684 408.838C232.636 406.295 238.742 404.115 244.734 401.66C249.219 399.823 254.06 400.22 258.686 399.25C260.539 399.045 262.299 398.329 263.771 397.181C264.632 396.263 265.759 395.639 266.993 395.399C268.226 395.158 269.504 395.313 270.645 395.841C271.56 396.274 272.585 396.416 273.583 396.248C278.066 397.976 282.666 399.386 287.346 400.466C289.321 402.384 292.091 402.829 294.332 404.254ZM286.815 410.983C286.791 410.044 286.157 409.954 285.611 409.697C282.218 408.107 278.697 406.815 275.265 405.346C267.942 402.209 260.967 403.579 254.09 406.311C248.513 408.527 243.148 411.273 237.647 413.69C231.132 416.615 224.868 420.074 218.919 424.03C217.12 425.206 216.445 426.303 218.044 428.196C219.054 429.499 219.956 430.882 220.744 432.331C224.236 438.17 224.319 438.416 230.489 436.037C237.179 433.456 243.743 430.511 250.236 427.457C255.79 424.844 261.389 422.391 267.111 420.162C273.441 417.967 279.615 415.342 285.589 412.305C286.243 411.943 286.881 411.729 286.815 410.983Z" fill="#0B0C0D"/>
<path d="M223.416 258.05C225.994 257.903 226.985 258.788 227.495 260.432C231 270.642 235.235 280.584 240.168 290.182C244.305 298.871 249.127 307.187 253.332 315.823C255.909 321.115 257.98 326.655 260.215 332.11C260.422 332.889 260.526 333.693 260.523 334.499C260.76 336.581 259.826 337.144 258.057 336.254C256.518 335.48 255.725 335.279 254.589 337.235C253.309 339.437 250.356 339.917 248.079 341.029C239.339 345.297 230.318 348.93 221.28 352.488C213.595 355.513 205.739 358.103 197.946 360.852C190.812 363.368 183.669 365.857 176.516 368.319C172.25 369.781 167.94 371.11 163.664 372.544C159.263 374.02 154.853 375.477 150.495 377.075C144.975 379.099 139.485 381.202 134.024 383.384C132.227 384.1 130.391 384.69 128.623 385.559C127.513 385.989 126.296 386.06 125.144 385.76C123.991 385.461 122.961 384.806 122.199 383.889C118.641 380.789 117.127 376.401 114.725 372.594C110.095 365.254 104.919 358.283 100.74 350.624C96.7499 343.313 93.041 335.88 89.4377 328.386C86.51 322.296 83.7222 316.14 80.8598 310.02C79.7838 308.264 78.5134 306.636 77.0728 305.167C75.3848 302.992 75.709 301.15 78.1942 300.295C84.8838 297.995 91.6088 295.798 98.3284 293.586C109.788 289.816 121.675 287.596 133.177 284.011C141.25 281.495 149.341 279.001 157.442 276.616C165.461 274.255 173.432 271.702 181.501 269.483C189.848 267.188 198.036 264.311 206.378 261.989C212.247 260.356 218.257 259.225 223.416 258.05ZM221.382 269.27C216.361 270.544 211.336 271.801 206.32 273.097C200.702 274.548 195.092 276.031 189.48 277.504C183.895 278.971 178.282 280.338 172.738 281.944C167.434 283.482 162.221 285.335 156.934 286.935C150.821 288.786 144.532 290.142 138.577 292.397C132.674 294.633 126.648 296.469 120.715 298.592C110.075 302.4 99.4812 306.328 88.9347 310.376C85.831 311.56 86.3107 312.947 87.3538 315.09C90.0237 319.732 93.3818 323.939 97.3128 327.568C101.394 331.449 104.618 336.146 106.775 341.356C108.37 345.839 110.219 350.226 112.315 354.496C115.166 360.231 119.203 365.335 121.142 371.563C121.239 372.037 121.45 372.48 121.756 372.854C122.062 373.229 122.455 373.522 122.899 373.711C123.344 373.899 123.827 373.976 124.308 373.935C124.788 373.894 125.252 373.737 125.659 373.476C137.208 368.572 149.221 364.849 161.514 362.362C167.46 361.03 173.336 359.411 179.152 357.731C188.655 354.984 197.67 350.724 206.957 347.269C219.511 342.598 231.741 337.055 244.186 332.08C246.179 331.284 245.944 330.508 245.434 328.986C243.735 323.91 242.13 318.802 240.529 313.694C239.387 310.049 238.251 306.401 237.216 302.726C235.594 296.965 233.464 291.38 231.58 285.713C230.064 280.596 227.83 275.721 224.946 271.235C224.564 270.634 224.037 270.139 223.414 269.795C222.792 269.452 222.093 269.271 221.382 269.27Z" fill="#F8C03F"/>
<path d="M187.243 289.506C190.057 289.506 192.871 289.485 195.685 289.51C203.025 289.576 209.853 292.04 216.76 294.105C218.933 294.7 221.055 295.468 223.106 296.4C224.427 297.268 225.421 298.553 225.932 300.052C226.442 301.551 226.439 303.178 225.924 304.675C222.829 312.533 219.112 320.201 212.614 325.797C207.64 329.792 201.924 332.755 195.798 334.514C190.863 336.12 185.983 337.961 181.226 340.038C177.314 341.593 173.238 342.697 169.078 343.331C157.018 345.601 144.867 343.972 132.76 343.385C130.921 343.204 129.153 342.576 127.61 341.556C124.899 339.869 124.501 337.232 126.377 333.432C130.08 325.929 133.69 318.36 137.818 311.093C141.75 304.642 147.442 299.457 154.22 296.152C164.382 290.854 175.831 288.55 187.243 289.506ZM145.821 335.589C151.971 335.951 158.002 334.476 164.13 334.38C166.907 334.337 165.502 332.913 164.727 331.75C161.772 327.316 158.617 322.952 158.745 317.24C158.815 314.118 158.967 310.998 158.99 307.875C159.012 304.799 157.737 304.06 155.076 305.621C151.562 307.808 148.476 310.62 145.969 313.919C141.859 319.396 138.308 325.275 135.372 331.466C133.725 334.662 134.325 335.564 137.997 335.585C140.605 335.602 143.213 335.589 145.821 335.589V335.589ZM196.69 298.573C195.563 298.891 194.087 297.825 193.391 299.216C192.75 300.496 193.615 301.657 194.486 302.661C195.657 304.131 196.514 305.827 197.004 307.643C197.494 309.46 197.606 311.358 197.333 313.22C197.195 315.231 197.125 317.251 197.108 319.267C197.099 320.419 196.381 322.016 197.672 322.583C198.871 323.11 200.167 322.292 201.477 321.676C207.958 318.622 211.279 312.609 215.298 307.278C216.658 305.474 215.487 303.778 213.672 303.054C208.171 301.005 202.483 299.505 196.69 298.573V298.573Z" fill="#0B0C0D"/>
</svg>
