<svg width="165" height="37" viewBox="0 0 165 37" fill="none" xmlns="http://www.w3.org/2000/svg">
<path d="M0.584 22.608C0.584 19.92 1.112 17.536 2.168 15.456C3.256 13.376 4.712 11.776 6.536 10.656C8.392 9.536 10.456 8.976 12.728 8.976C14.712 8.976 16.44 9.376 17.912 10.176C19.416 10.976 20.616 11.984 21.512 13.2V9.408H28.28V36H21.512V32.112C20.648 33.36 19.448 34.4 17.912 35.232C16.408 36.032 14.664 36.432 12.68 36.432C10.44 36.432 8.392 35.856 6.536 34.704C4.712 33.552 3.256 31.936 2.168 29.856C1.112 27.744 0.584 25.328 0.584 22.608ZM21.512 22.704C21.512 21.072 21.192 19.68 20.552 18.528C19.912 17.344 19.048 16.448 17.96 15.84C16.872 15.2 15.704 14.88 14.456 14.88C13.208 14.88 12.056 15.184 11 15.792C9.944 16.4 9.08 17.296 8.408 18.48C7.768 19.632 7.448 21.008 7.448 22.608C7.448 24.208 7.768 25.616 8.408 26.832C9.08 28.016 9.944 28.928 11 29.568C12.088 30.208 13.24 30.528 14.456 30.528C15.704 30.528 16.872 30.224 17.96 29.616C19.048 28.976 19.912 28.08 20.552 26.928C21.192 25.744 21.512 24.336 21.512 22.704ZM58.5633 22.128C58.5633 23.088 58.4993 23.952 58.3713 24.72H38.9313C39.0913 26.64 39.7633 28.144 40.9473 29.232C42.1313 30.32 43.5873 30.864 45.3153 30.864C47.8113 30.864 49.5873 29.792 50.6433 27.648H57.8913C57.1233 30.208 55.6513 32.32 53.4753 33.984C51.2993 35.616 48.6273 36.432 45.4593 36.432C42.8993 36.432 40.5953 35.872 38.5473 34.752C36.5313 33.6 34.9473 31.984 33.7953 29.904C32.6753 27.824 32.1152 25.424 32.1152 22.704C32.1152 19.952 32.6753 17.536 33.7953 15.456C34.9153 13.376 36.4833 11.776 38.4993 10.656C40.5153 9.536 42.8353 8.976 45.4593 8.976C47.9873 8.976 50.2433 9.52 52.2273 10.608C54.2433 11.696 55.7953 13.248 56.8833 15.264C58.0033 17.248 58.5633 19.536 58.5633 22.128ZM51.6033 20.208C51.5713 18.48 50.9473 17.104 49.7313 16.08C48.5153 15.024 47.0273 14.496 45.2673 14.496C43.6033 14.496 42.1953 15.008 41.0433 16.032C39.9233 17.024 39.2353 18.416 38.9793 20.208H51.6033ZM70.2923 14.928V27.792C70.2923 28.688 70.5003 29.344 70.9163 29.76C71.3643 30.144 72.1003 30.336 73.1243 30.336H76.2443V36H72.0203C66.3563 36 63.5243 33.248 63.5243 27.744V14.928H60.3563V9.408H63.5243V2.832H70.2923V9.408H76.2443V14.928H70.2923ZM95.0536 9.024C97.0696 9.024 98.8616 9.472 100.43 10.368C101.998 11.232 103.214 12.528 104.078 14.256C104.974 15.952 105.422 18 105.422 20.4V36H98.7016V21.312C98.7016 19.2 98.1736 17.584 97.1176 16.464C96.0616 15.312 94.6216 14.736 92.7976 14.736C90.9416 14.736 89.4696 15.312 88.3816 16.464C87.3256 17.584 86.7976 19.2 86.7976 21.312V36H80.0776V0.48H86.7976V12.72C87.6616 11.568 88.8136 10.672 90.2536 10.032C91.6936 9.36 93.2936 9.024 95.0536 9.024ZM135.532 22.128C135.532 23.088 135.468 23.952 135.34 24.72H115.9C116.06 26.64 116.732 28.144 117.916 29.232C119.1 30.32 120.556 30.864 122.284 30.864C124.78 30.864 126.556 29.792 127.612 27.648H134.86C134.092 30.208 132.62 32.32 130.444 33.984C128.268 35.616 125.596 36.432 122.428 36.432C119.868 36.432 117.564 35.872 115.516 34.752C113.5 33.6 111.916 31.984 110.764 29.904C109.644 27.824 109.084 25.424 109.084 22.704C109.084 19.952 109.644 17.536 110.764 15.456C111.884 13.376 113.452 11.776 115.468 10.656C117.484 9.536 119.804 8.976 122.428 8.976C124.956 8.976 127.212 9.52 129.196 10.608C131.212 11.696 132.764 13.248 133.852 15.264C134.972 17.248 135.532 19.536 135.532 22.128ZM128.572 20.208C128.54 18.48 127.916 17.104 126.7 16.08C125.484 15.024 123.996 14.496 122.236 14.496C120.572 14.496 119.164 15.008 118.012 16.032C116.892 17.024 116.204 18.416 115.948 20.208H128.572ZM146.157 13.536C147.021 12.128 148.141 11.024 149.517 10.224C150.925 9.424 152.525 9.024 154.317 9.024V16.08H152.541C150.429 16.08 148.829 16.576 147.741 17.568C146.685 18.56 146.157 20.288 146.157 22.752V36H139.437V9.408H146.157V13.536Z" fill="#2F281E"/>
<path d="M160.819 36.336C159.603 36.336 158.595 35.968 157.795 35.232C157.027 34.464 156.643 33.52 156.643 32.4C156.643 31.28 157.027 30.352 157.795 29.616C158.595 28.848 159.603 28.464 160.819 28.464C162.003 28.464 162.979 28.848 163.747 29.616C164.515 30.352 164.899 31.28 164.899 32.4C164.899 33.52 164.515 34.464 163.747 35.232C162.979 35.968 162.003 36.336 160.819 36.336Z" fill="#FF7C5D"/>
</svg>
