<svg width="162" height="48" viewBox="0 0 162 48" fill="none" xmlns="http://www.w3.org/2000/svg">
<path d="M156 0H6.0001C2.6864 0 0.000106812 2.6667 0.000106812 5.95625V41.6937C0.000106812 44.9833 2.6864 47.65 6.0001 47.65H156C159.314 47.65 162 44.9833 162 41.6937V5.95625C162 2.6667 159.314 0 156 0Z" fill="black"/>
<path d="M156 0.953122C157.336 0.954635 158.617 1.48225 159.562 2.42021C160.507 3.35817 161.038 4.62989 161.04 5.95637V41.6938C161.038 43.0203 160.507 44.292 159.562 45.23C158.617 46.168 157.336 46.6956 156 46.6971H6C4.66377 46.6956 3.38272 46.168 2.43786 45.23C1.49301 44.292 0.961524 43.0203 0.96 41.6938V5.95637C0.961524 4.62989 1.49301 3.35817 2.43786 2.42021C3.38272 1.48225 4.66377 0.954635 6 0.953122H156ZM156 0.00012207H6C4.41013 0.00474185 2.88671 0.633756 1.7625 1.74977C0.638288 2.86578 0.00465372 4.37809 0 5.95637V41.6938C0.00465372 43.2721 0.638288 44.7844 1.7625 45.9004C2.88671 47.0165 4.41013 47.6455 6 47.6501H156C157.59 47.6455 159.113 47.0165 160.237 45.9004C161.362 44.7844 161.995 43.2721 162 41.6938V5.95637C161.995 4.37809 161.362 2.86578 160.237 1.74977C159.113 0.633756 157.59 0.00474185 156 0.00012207Z" fill="#A6A6A6"/>
<path d="M56.9022 12.2023C56.924 12.6394 56.8559 13.0764 56.7022 13.4866C56.5485 13.8967 56.3123 14.2716 56.0079 14.5882C55.6669 14.9394 55.255 15.2151 54.7992 15.3973C54.3434 15.5795 53.854 15.6642 53.363 15.6457C52.6205 15.6375 51.8969 15.4125 51.2823 14.9988C50.6677 14.5851 50.1894 14.001 49.9069 13.3193C49.6244 12.6376 49.5502 11.8884 49.6936 11.1652C49.837 10.4419 50.1917 9.77659 50.7134 9.25205C51.0585 8.90391 51.4714 8.62921 51.9269 8.4447C52.3825 8.26019 52.8711 8.16973 53.363 8.17885C53.8711 8.17733 54.374 8.2793 54.8408 8.47845C55.2743 8.65276 55.6601 8.92623 55.967 9.27659L55.3341 9.90533C55.093 9.62354 54.7898 9.40053 54.448 9.25349C54.1063 9.10645 53.735 9.03932 53.363 9.05728C52.9885 9.05535 52.6174 9.1285 52.272 9.27232C51.9266 9.41615 51.614 9.6277 51.353 9.89431C51.0919 10.1609 50.8877 10.4771 50.7527 10.8239C50.6176 11.1707 50.5545 11.541 50.567 11.9126C50.5581 12.4691 50.7158 13.0158 51.0203 13.4832C51.3247 13.9506 51.7621 14.3178 52.277 14.5381C52.7919 14.7584 53.3612 14.822 53.9125 14.7208C54.4639 14.6195 54.9725 14.358 55.374 13.9694C55.7434 13.5742 55.9576 13.0604 55.9774 12.5215H53.363V11.663H56.8518C56.8848 11.8409 56.9016 12.0214 56.9022 12.2023Z" fill="white" stroke="white" stroke-width="0.2" stroke-miterlimit="10"/>
<path d="M62.4333 9.21718H59.1544V11.4838H62.1111V12.3415H59.1544V14.6076H62.4333V15.4864H58.2298V8.33887H62.4333V9.21718Z" fill="white" stroke="white" stroke-width="0.2" stroke-miterlimit="10"/>
<path d="M66.3345 15.4864H65.4087V9.21718H63.3978V8.33887H68.3455V9.21718H66.3345V15.4864Z" fill="white" stroke="white" stroke-width="0.2" stroke-miterlimit="10"/>
<path d="M71.9255 15.4864V8.33887H72.8495V15.4864H71.9255Z" fill="white" stroke="white" stroke-width="0.2" stroke-miterlimit="10"/>
<path d="M76.954 15.4864H76.0282V9.21718H74.0174V8.33887H78.965V9.21718H76.954V15.4864Z" fill="white" stroke="white" stroke-width="0.2" stroke-miterlimit="10"/>
<path d="M88.3312 14.5627C87.6304 15.2563 86.6812 15.6458 85.6916 15.6458C84.702 15.6458 83.7528 15.2563 83.0519 14.5627C82.3708 13.846 81.9914 12.898 81.9914 11.9126C81.9914 10.9273 82.3708 9.97928 83.0519 9.26259C83.3983 8.91863 83.8097 8.64587 84.2624 8.45991C84.7151 8.27396 85.2003 8.17846 85.6902 8.1789C86.1802 8.17933 86.6652 8.27568 87.1176 8.46243C87.5699 8.64918 87.9808 8.92267 88.3265 9.26724C89.0097 9.98171 89.3909 10.929 89.3918 11.914C89.3926 12.8991 89.0131 13.847 88.3312 14.5627ZM83.7352 13.9642C84.2543 14.4787 84.9578 14.7676 85.6912 14.7676C86.4247 14.7676 87.1282 14.4787 87.6472 13.9642C88.1622 13.4032 88.4476 12.6716 88.4476 11.9126C88.4476 11.1537 88.1622 10.4221 87.6472 9.86107C87.1282 9.34663 86.4247 9.05768 85.6912 9.05768C84.9578 9.05768 84.2543 9.34663 83.7352 9.86107C83.2211 10.4224 82.9362 11.1539 82.9362 11.9126C82.9362 12.6714 83.2211 13.4028 83.7352 13.9642Z" fill="white" stroke="white" stroke-width="0.2" stroke-miterlimit="10"/>
<path d="M90.6902 15.4864V8.33887H91.8164L95.3156 13.899H95.3554L95.3159 12.5216V8.33887H96.2417V15.4864H95.2761L91.6151 9.65686H91.5753L91.6151 11.0343V15.4864H90.6902Z" fill="white" stroke="white" stroke-width="0.2" stroke-miterlimit="10"/>
<path d="M81.763 25.9117C80.7544 25.9155 79.7695 26.2159 78.9328 26.7749C78.096 27.3339 77.4448 28.1266 77.0615 29.0527C76.6781 29.9788 76.5798 30.997 76.7789 31.9785C76.9781 32.9601 77.4657 33.8611 78.1802 34.5677C78.8948 35.2744 79.8043 35.755 80.7938 35.949C81.7833 36.1429 82.8085 36.0414 83.74 35.6574C84.6715 35.2733 85.4675 34.6239 86.0274 33.7911C86.5874 32.9583 86.8862 31.9795 86.8862 30.9782C86.8961 30.3085 86.7702 29.6437 86.516 29.0233C86.2618 28.4028 85.8845 27.8395 85.4065 27.3668C84.9285 26.8941 84.3596 26.5217 83.7337 26.2717C83.1078 26.0218 82.4376 25.8993 81.763 25.9117ZM81.763 34.0489C81.1419 34.093 80.5217 33.9503 79.9833 33.6396C79.445 33.3289 79.0133 32.8645 78.7446 32.3068C78.4758 31.7491 78.3824 31.124 78.4766 30.5129C78.5707 29.9018 78.848 29.333 79.2724 28.8806C79.6967 28.4281 80.2485 28.113 80.8558 27.9762C81.4631 27.8394 82.0978 27.8873 82.6773 28.1136C83.2569 28.34 83.7543 28.7343 84.1049 29.2452C84.4555 29.7561 84.643 30.36 84.643 30.9782C84.6619 31.3687 84.6018 31.759 84.4665 32.1261C84.3311 32.4932 84.1231 32.8298 83.8547 33.1159C83.5864 33.402 83.2631 33.632 82.9038 33.7922C82.5446 33.9524 82.1567 34.0397 81.763 34.0489ZM70.5869 25.9117C69.5783 25.9155 68.5934 26.2158 67.7566 26.7748C66.9198 27.3339 66.2687 28.1265 65.8853 29.0526C65.502 29.9787 65.4036 30.9969 65.6027 31.9784C65.8018 32.96 66.2895 33.861 67.004 34.5677C67.7186 35.2744 68.628 35.755 69.6176 35.949C70.6071 36.1429 71.6323 36.0414 72.5638 35.6574C73.4953 35.2733 74.2912 34.6239 74.8512 33.7911C75.4112 32.9583 75.71 31.9795 75.71 30.9782C75.7199 30.3085 75.594 29.6437 75.3398 29.0233C75.0856 28.4029 74.7083 27.8396 74.2304 27.3669C73.7524 26.8942 73.1835 26.5218 72.5576 26.2718C71.9317 26.0218 71.2615 25.8993 70.5869 25.9117ZM70.5869 34.0489C69.9658 34.093 69.3456 33.9503 68.8073 33.6396C68.2689 33.3289 67.8372 32.8645 67.5685 32.3068C67.2997 31.7491 67.2064 31.124 67.3005 30.5129C67.3947 29.9018 67.6719 29.333 68.0963 28.8806C68.5207 28.4281 69.0724 28.113 69.6797 27.9762C70.287 27.8394 70.9218 27.8873 71.5013 28.1136C72.0808 28.34 72.5782 28.7343 72.9288 29.2452C73.2794 29.7561 73.4669 30.36 73.4669 30.9782C73.4858 31.3687 73.4258 31.759 73.2904 32.1261C73.155 32.4933 72.9471 32.8298 72.6787 33.1159C72.4103 33.4021 72.087 33.632 71.7278 33.7922C71.3686 33.9525 70.9807 34.0397 70.5869 34.0489ZM57.2924 27.4663V29.6157H62.4736C62.3989 30.6238 61.9833 31.5774 61.2943 32.3217C60.7751 32.8471 60.1507 33.2586 59.4614 33.5296C58.7721 33.8007 58.0332 33.9253 57.2924 33.8953C55.7773 33.8759 54.331 33.2648 53.2665 32.1944C52.2021 31.124 51.6052 29.6804 51.6052 28.1763C51.6052 26.6721 52.2021 25.2285 53.2665 24.1581C54.331 23.0877 55.7773 22.4766 57.2924 22.4572C58.747 22.4383 60.1504 22.99 61.1977 23.9925L62.7249 22.4764C62.0103 21.7743 61.1617 21.2208 60.2289 20.8485C59.296 20.4762 58.2977 20.2926 57.2924 20.3083C56.2418 20.2931 55.1986 20.4854 54.2235 20.874C53.2485 21.2627 52.3609 21.8398 51.6126 22.572C50.8642 23.3042 50.2699 24.1767 49.8643 25.1389C49.4587 26.1011 49.2498 27.1338 49.2498 28.1769C49.2498 29.2199 49.4587 30.2526 49.8643 31.2148C50.2699 32.177 50.8642 33.0496 51.6126 33.7817C52.3609 34.5139 53.2485 35.0911 54.2235 35.4797C55.1986 35.8683 56.2418 36.0606 57.2924 36.0454C58.3189 36.0877 59.3428 35.9128 60.2961 35.5323C61.2493 35.1517 62.1102 34.5744 62.8215 33.8384C64.0844 32.47 64.7575 30.6652 64.6969 28.8102C64.7018 28.3598 64.6629 27.9099 64.5807 27.4669L57.2924 27.4663ZM111.662 29.1358C111.356 28.2181 110.772 27.4164 109.99 26.8396C109.208 26.2627 108.267 25.9388 107.293 25.9117C106.637 25.9158 105.989 26.0519 105.388 26.3116C104.787 26.5714 104.245 26.9495 103.795 27.4231C103.345 27.8966 102.997 28.4558 102.771 29.0669C102.545 29.6779 102.446 30.3281 102.48 30.9782C102.465 31.6443 102.586 32.3066 102.835 32.9254C103.083 33.5442 103.455 34.1069 103.928 34.5798C104.401 35.0527 104.965 35.4262 105.586 35.6779C106.208 35.9296 106.874 36.0544 107.545 36.0448C108.386 36.0494 109.215 35.8467 109.957 35.4548C110.699 35.0629 111.332 34.4941 111.798 33.7994L110.058 32.648C109.797 33.0777 109.429 33.4328 108.988 33.6784C108.548 33.924 108.05 34.0516 107.545 34.0489C107.025 34.0686 106.511 33.9328 106.07 33.6591C105.628 33.3853 105.28 32.9862 105.07 32.5136L111.895 29.7117L111.662 29.1358ZM104.702 30.8248C104.678 30.456 104.729 30.0862 104.85 29.737C104.972 29.3877 105.163 29.0661 105.411 28.7909C105.659 28.5157 105.961 28.2924 106.297 28.1342C106.633 27.9759 106.998 27.8859 107.37 27.8693C107.757 27.844 108.143 27.9324 108.48 28.1235C108.817 28.3147 109.09 28.6 109.265 28.944L104.702 30.8248ZM99.1541 35.7376H101.397V20.8452H99.1541V35.7376ZM95.4809 27.0439H95.4036C95.0627 26.6761 94.6466 26.3849 94.1832 26.1897C93.7197 25.9944 93.2197 25.8996 92.7164 25.9116C91.4003 25.9672 90.1568 26.5253 89.2454 27.4694C88.334 28.4134 87.8252 29.6705 87.8252 30.9781C87.8252 32.2858 88.334 33.5428 89.2454 34.4869C90.1568 35.431 91.4003 35.9891 92.7164 36.0447C93.2217 36.058 93.7238 35.9619 94.1879 35.7631C94.652 35.5642 95.0668 35.2674 95.4036 34.8932H95.4809V35.6225C95.4809 37.5609 94.4369 38.5972 92.755 38.5972C92.1944 38.5839 91.6506 38.4052 91.1927 38.0839C90.7348 37.7626 90.3836 37.3133 90.1839 36.7932L88.2313 37.5993C88.5993 38.4888 89.2265 39.249 90.0325 39.7823C90.8385 40.3157 91.7866 40.5981 92.7552 40.5931C95.3846 40.5931 97.6078 39.0579 97.6078 35.3159V26.2187H95.4809V27.0439ZM92.9098 34.0484C92.1347 33.9832 91.4125 33.6314 90.8862 33.0628C90.3599 32.4941 90.0678 31.75 90.0678 30.9778C90.0678 30.2056 90.3599 29.4615 90.8862 28.8928C91.4125 28.3242 92.1347 27.9724 92.9098 27.9072C93.2954 27.9259 93.6733 28.0214 94.021 28.1882C94.3686 28.3549 94.6788 28.5895 94.9332 28.8778C95.1876 29.1661 95.3808 29.5024 95.5015 29.8664C95.6222 30.2305 95.6678 30.615 95.6356 30.9969C95.6658 31.3765 95.6186 31.7583 95.4967 32.1193C95.3749 32.4804 95.1809 32.8134 94.9265 33.0983C94.672 33.3832 94.3622 33.6143 94.0157 33.7776C93.6692 33.9409 93.2931 34.0332 92.9098 34.0489V34.0484ZM122.167 20.845H116.802V35.7376H119.04V30.0955H122.167C122.8 30.1299 123.433 30.0357 124.029 29.8188C124.624 29.6019 125.169 29.2668 125.629 28.834C126.09 28.4011 126.457 27.8796 126.707 27.3013C126.958 26.723 127.087 26.1 127.087 25.4705C127.087 24.8409 126.958 24.2179 126.707 23.6396C126.457 23.0613 126.09 22.5398 125.629 22.107C125.169 21.6741 124.624 21.339 124.029 21.1221C123.433 20.9052 122.8 20.8111 122.167 20.8454L122.167 20.845ZM122.225 28.0225H119.04V22.9181H122.224C122.566 22.9111 122.906 22.972 123.225 23.0972C123.543 23.2223 123.832 23.4092 124.077 23.6469C124.321 23.8846 124.515 24.1683 124.648 24.4815C124.78 24.7946 124.849 25.1309 124.849 25.4705C124.849 25.8102 124.78 26.1464 124.648 26.4596C124.515 26.7727 124.321 27.0564 124.077 27.2941C123.832 27.5318 123.543 27.7188 123.225 27.8439C122.906 27.969 122.566 28.0299 122.224 28.023L122.225 28.0225ZM136.063 25.8838C135.246 25.8365 134.432 26.027 133.723 26.432C133.013 26.837 132.438 27.4389 132.068 28.1638L134.056 28.9876C134.253 28.6278 134.551 28.3329 134.915 28.1389C135.278 27.9449 135.69 27.8604 136.101 27.8955C136.669 27.8405 137.236 28.0112 137.678 28.3704C138.119 28.7295 138.399 29.2477 138.456 29.8114V29.9647C137.737 29.5855 136.935 29.3881 136.121 29.3899C133.978 29.3899 131.798 30.5586 131.798 32.7428C131.818 33.2031 131.932 33.6545 132.132 34.0703C132.332 34.4861 132.614 34.8579 132.962 35.1634C133.309 35.4689 133.715 35.7021 134.155 35.849C134.594 35.9959 135.06 36.0537 135.522 36.0187C136.086 36.0516 136.648 35.9339 137.151 35.6778C137.653 35.4217 138.077 35.0366 138.378 34.5627H138.456V35.7122H140.617V30.0035C140.618 27.3595 138.63 25.8843 136.063 25.8843V25.8838ZM135.793 34.0456C135.059 34.0456 134.036 33.6816 134.036 32.781C134.036 31.6316 135.31 31.1908 136.41 31.1908C137.125 31.172 137.831 31.344 138.456 31.689C138.374 32.3351 138.059 32.9297 137.569 33.363C137.08 33.7963 136.449 34.0389 135.793 34.046V34.0456ZM148.492 26.2095L145.925 32.6661H145.848L143.185 26.2095H140.773L144.768 35.2335L142.49 40.2532H144.826L150.982 26.2095H148.492ZM128.324 35.7376H130.562V20.8454H128.324V35.7376Z" fill="white"/>
<path d="M12.5225 8.97973C12.129 9.44679 11.9303 10.0455 11.9671 10.6533V36.9991C11.9302 37.6069 12.1289 38.2057 12.5225 38.6727L12.6113 38.7586L27.4781 24.0003V23.6521L12.6113 8.89325L12.5225 8.97973Z" fill="url(#paint0_linear_39_23)"/>
<path d="M32.4333 28.9218L27.4781 24.0003V23.6521L32.4341 18.7322L32.5458 18.7955L38.4171 22.1072C40.0943 23.053 40.0943 24.6007 38.4171 25.5471L32.5458 28.8588L32.4333 28.9218Z" fill="url(#paint1_linear_39_23)"/>
<path d="M32.5463 28.8581L27.4781 23.8264L12.5225 38.6728C12.8642 38.972 13.3006 39.1431 13.756 39.1564C14.2115 39.1698 14.6573 39.0246 15.0162 38.7459L32.5463 28.8585" fill="url(#paint2_linear_39_23)"/>
<path d="M32.5463 18.7945L15.0162 8.90708C14.6573 8.62844 14.2115 8.48321 13.756 8.49657C13.3006 8.50993 12.8642 8.68103 12.5225 8.98023L27.4781 23.8268L32.5463 18.7945Z" fill="url(#paint3_linear_39_23)"/>
<path opacity="0.2" d="M32.4345 28.7471L15.0162 38.5717C14.6711 38.8325 14.25 38.9748 13.8163 38.9771C13.3826 38.9794 12.9599 38.8417 12.612 38.5846L12.5226 38.6733L12.6114 38.7592C12.9592 39.0165 13.382 39.1544 13.8157 39.1521C14.2495 39.1498 14.6707 39.0074 15.0157 38.7465L32.5458 28.8591L32.4345 28.7471Z" fill="black"/>
<path opacity="0.12" d="M12.5225 38.4992C12.129 38.0321 11.9303 37.4334 11.9671 36.8256V37.0003C11.9303 37.608 12.129 38.2068 12.5225 38.6738L12.612 38.5846L12.5225 38.4992Z" fill="black"/>
<path opacity="0.12" d="M38.4176 25.3722L32.4346 28.7472L32.5463 28.858L38.4176 25.5464C38.763 25.3976 39.0619 25.1596 39.2831 24.8572C39.5044 24.5547 39.6399 24.199 39.6756 23.8269C39.6013 24.1638 39.449 24.4789 39.2306 24.7472C39.0122 25.0154 38.7339 25.2294 38.4176 25.3722Z" fill="black"/>
<path opacity="0.25" d="M15.0162 9.0812L38.4176 22.2802C38.734 22.423 39.0125 22.6371 39.2308 22.9055C39.4492 23.1739 39.6015 23.4892 39.6756 23.8262C39.6401 23.454 39.5047 23.0981 39.2834 22.7955C39.0622 22.493 38.7631 22.2549 38.4176 22.1062L15.0162 8.90716C13.3391 7.96119 11.9671 8.74694 11.9671 10.6539V10.8285C11.9671 8.9211 13.3391 8.13535 15.0162 9.0812Z" fill="white"/>
<defs>
<linearGradient id="paint0_linear_39_23" x1="26.1596" y1="10.3755" x2="6.16814" y2="30.5138" gradientUnits="userSpaceOnUse">
<stop stop-color="#00A0FF"/>
<stop offset="0.0066" stop-color="#00A1FF"/>
<stop offset="0.2601" stop-color="#00BEFF"/>
<stop offset="0.5122" stop-color="#00D2FF"/>
<stop offset="0.7604" stop-color="#00DFFF"/>
<stop offset="1" stop-color="#00E3FF"/>
</linearGradient>
<linearGradient id="paint1_linear_39_23" x1="40.6013" y1="23.8269" x2="11.565" y2="23.8269" gradientUnits="userSpaceOnUse">
<stop stop-color="#FFE000"/>
<stop offset="0.4087" stop-color="#FFBD00"/>
<stop offset="0.7754" stop-color="#FFA500"/>
<stop offset="1" stop-color="#FF9C00"/>
</linearGradient>
<linearGradient id="paint2_linear_39_23" x1="29.7924" y1="26.5604" x2="2.6823" y2="53.8696" gradientUnits="userSpaceOnUse">
<stop stop-color="#FF3A44"/>
<stop offset="1" stop-color="#C31162"/>
</linearGradient>
<linearGradient id="paint3_linear_39_23" x1="8.75676" y1="0.210008" x2="20.8626" y2="12.4047" gradientUnits="userSpaceOnUse">
<stop stop-color="#32A071"/>
<stop offset="0.0685" stop-color="#2DA771"/>
<stop offset="0.4762" stop-color="#15CF74"/>
<stop offset="0.8009" stop-color="#06E775"/>
<stop offset="1" stop-color="#00F076"/>
</linearGradient>
</defs>
</svg>
