<svg width="158" height="47" viewBox="0 0 158 47" fill="none" xmlns="http://www.w3.org/2000/svg">
<path d="M152.148 0H5.85185C2.61996 0 0 2.61996 0 5.85185V40.9629C0 44.1948 2.61996 46.8148 5.85185 46.8148H152.148C155.38 46.8148 158 44.1948 158 40.9629V5.85185C158 2.61996 155.38 0 152.148 0Z" fill="black"/>
<path d="M152.148 0.936296C153.451 0.937783 154.701 1.45615 155.622 2.37767C156.544 3.29919 157.062 4.54862 157.064 5.85185V40.9629C157.062 42.2662 156.544 43.5156 155.622 44.4371C154.701 45.3586 153.451 45.877 152.148 45.8785H5.85185C4.54862 45.877 3.29919 45.3586 2.37767 44.4371C1.45615 43.5156 0.937783 42.2662 0.936296 40.9629V5.85185C0.937783 4.54862 1.45615 3.29919 2.37767 2.37767C3.29919 1.45615 4.54862 0.937783 5.85185 0.936296H152.148ZM152.148 0H5.85185C4.30124 0.00453881 2.81543 0.622528 1.71898 1.71898C0.622528 2.81543 0.00453881 4.30124 0 5.85185V40.9629C0.00453881 42.5135 0.622528 43.9993 1.71898 45.0958C2.81543 46.1922 4.30124 46.8102 5.85185 46.8148H152.148C153.699 46.8102 155.184 46.1922 156.281 45.0958C157.377 43.9993 157.995 42.5135 158 40.9629V5.85185C157.995 4.30124 157.377 2.81543 156.281 1.71898C155.184 0.622528 153.699 0.00453881 152.148 0Z" fill="#A6A6A6"/>
<path d="M55.4972 11.9882C55.5185 12.4177 55.4522 12.847 55.3022 13.25C55.1523 13.653 54.9219 14.0212 54.6251 14.3323C54.2925 14.6773 53.8907 14.9482 53.4462 15.1272C53.0017 15.3063 52.5244 15.3894 52.0455 15.3713C51.3213 15.3632 50.6155 15.1421 50.0161 14.7357C49.4167 14.3292 48.9502 13.7554 48.6747 13.0856C48.3991 12.4159 48.3268 11.6799 48.4667 10.9693C48.6066 10.2587 48.9525 9.60502 49.4613 9.08967C49.7979 8.74764 50.2006 8.47775 50.6449 8.29647C51.0891 8.11519 51.5657 8.02632 52.0455 8.03528C52.541 8.03379 53.0315 8.13397 53.4868 8.32963C53.9095 8.50089 54.2859 8.76956 54.5852 9.11378L53.9679 9.7315C53.7327 9.45466 53.437 9.23555 53.1037 9.09109C52.7704 8.94663 52.4083 8.88067 52.0455 8.89831C51.6802 8.89642 51.3183 8.96828 50.9814 9.10959C50.6446 9.2509 50.3397 9.45874 50.0851 9.72067C49.8304 9.98261 49.6313 10.2932 49.4996 10.634C49.3679 10.9747 49.3063 11.3385 49.3185 11.7036C49.3098 12.2504 49.4637 12.7874 49.7606 13.2467C50.0575 13.7059 50.4841 14.0666 50.9863 14.2831C51.4885 14.4996 52.0437 14.562 52.5814 14.4625C53.1192 14.363 53.6152 14.1061 54.0068 13.7243C54.3671 13.336 54.576 12.8312 54.5954 12.3019H52.0455V11.4584H55.4481C55.4803 11.6332 55.4967 11.8105 55.4972 11.9882Z" fill="white" stroke="white" stroke-width="0.2" stroke-miterlimit="10"/>
<path d="M60.8917 9.05579H57.6938V11.2826H60.5774V12.1253H57.6938V14.3517H60.8917V15.2151H56.792V8.19287H60.8917V9.05579Z" fill="white" stroke="white" stroke-width="0.2" stroke-miterlimit="10"/>
<path d="M64.6965 15.2151H63.7936V9.05579H61.8323V8.19287H66.6578V9.05579H64.6965V15.2151Z" fill="white" stroke="white" stroke-width="0.2" stroke-miterlimit="10"/>
<path d="M70.1497 15.2151V8.19287H71.0508V15.2151H70.1497Z" fill="white" stroke="white" stroke-width="0.2" stroke-miterlimit="10"/>
<path d="M75.0538 15.2151H74.1509V9.05579H72.1897V8.19287H77.0151V9.05579H75.0538V15.2151Z" fill="white" stroke="white" stroke-width="0.2" stroke-miterlimit="10"/>
<path d="M86.1501 14.3076C85.4666 14.989 84.5408 15.3716 83.5756 15.3716C82.6104 15.3716 81.6847 14.989 81.0011 14.3076C80.3368 13.6034 79.9668 12.672 79.9668 11.7039C79.9668 10.7359 80.3368 9.80447 81.0011 9.10034C81.339 8.76242 81.7401 8.49443 82.1817 8.31174C82.6232 8.12904 83.0964 8.03522 83.5743 8.03565C84.0521 8.03607 84.5252 8.13073 84.9664 8.31421C85.4076 8.49769 85.8083 8.76638 86.1455 9.10491C86.8118 9.80687 87.1836 10.7375 87.1844 11.7053C87.1853 12.6731 86.8151 13.6044 86.1501 14.3076ZM81.6676 13.7196C82.1738 14.225 82.8599 14.5089 83.5753 14.5089C84.2906 14.5089 84.9767 14.225 85.483 13.7196C85.9852 13.1684 86.2636 12.4496 86.2636 11.7039C86.2636 10.9583 85.9852 10.2395 85.483 9.68834C84.9767 9.18291 84.2906 8.89903 83.5753 8.89903C82.8599 8.89903 82.1738 9.18291 81.6676 9.68834C81.1661 10.2399 80.8882 10.9585 80.8882 11.7039C80.8882 12.4494 81.1661 13.168 81.6676 13.7196Z" fill="white" stroke="white" stroke-width="0.2" stroke-miterlimit="10"/>
<path d="M88.4509 15.2151V8.19287H89.5493L92.9621 13.6556H93.001L92.9625 12.3023V8.19287H93.8654V15.2151H92.9236L89.353 9.48777H89.3142L89.353 10.8411V15.2151H88.4509Z" fill="white" stroke="white" stroke-width="0.2" stroke-miterlimit="10"/>
<path d="M79.7441 25.4578C78.7604 25.4615 77.7998 25.7566 76.9837 26.3058C76.1676 26.8551 75.5325 27.6338 75.1586 28.5437C74.7848 29.4536 74.6889 30.4539 74.8831 31.4182C75.0773 32.3826 75.5529 33.2678 76.2498 33.9621C76.9467 34.6563 77.8337 35.1286 78.7988 35.3191C79.7639 35.5096 80.7638 35.4099 81.6723 35.0326C82.5808 34.6553 83.3571 34.0172 83.9032 33.199C84.4493 32.3808 84.7408 31.4192 84.7408 30.4355C84.7504 29.7775 84.6277 29.1243 84.3797 28.5148C84.1318 27.9052 83.7638 27.3518 83.2976 26.8874C82.8315 26.423 82.2766 26.0571 81.6661 25.8115C81.0557 25.5659 80.402 25.4456 79.7441 25.4578ZM79.7441 33.4523C79.1383 33.4956 78.5335 33.3555 78.0084 33.0502C77.4833 32.745 77.0623 32.2887 76.8002 31.7408C76.5381 31.1929 76.447 30.5787 76.5388 29.9783C76.6306 29.3779 76.9011 28.8191 77.315 28.3746C77.7288 27.9301 78.267 27.6204 78.8593 27.486C79.4516 27.3517 80.0707 27.3987 80.6359 27.6211C81.2011 27.8435 81.6862 28.2308 82.0282 28.7328C82.3701 29.2348 82.553 29.8281 82.553 30.4355C82.5714 30.8191 82.5128 31.2026 82.3808 31.5633C82.2488 31.9239 82.0459 32.2546 81.7842 32.5357C81.5224 32.8168 81.2071 33.0427 80.8568 33.2001C80.5064 33.3576 80.1281 33.4433 79.7441 33.4523ZM68.844 25.4578C67.8603 25.4615 66.8997 25.7565 66.0836 26.3058C65.2674 26.855 64.6323 27.6337 64.2584 28.5436C63.8846 29.4535 63.7887 30.4538 63.9828 31.4182C64.177 32.3825 64.6526 33.2677 65.3495 33.962C66.0464 34.6563 66.9334 35.1285 67.8985 35.3191C68.8636 35.5096 69.8635 35.4099 70.772 35.0326C71.6805 34.6553 72.4568 34.0173 73.003 33.1991C73.5491 32.3809 73.8405 31.4192 73.8405 30.4355C73.8502 29.7775 73.7274 29.1243 73.4795 28.5148C73.2316 27.9053 72.8636 27.3518 72.3974 26.8874C71.9313 26.423 71.3764 26.0571 70.766 25.8115C70.1555 25.5659 69.5019 25.4456 68.844 25.4578ZM68.844 33.4523C68.2382 33.4956 67.6333 33.3555 67.1083 33.0502C66.5832 32.745 66.1622 32.2887 65.9001 31.7408C65.638 31.1929 65.5469 30.5787 65.6387 29.9783C65.7305 29.3779 66.001 28.8191 66.4148 28.3746C66.8287 27.9301 67.3669 27.6204 67.9592 27.486C68.5515 27.3517 69.1705 27.3987 69.7357 27.6211C70.3009 27.8435 70.7861 28.2308 71.128 28.7328C71.47 29.2348 71.6529 29.8281 71.6529 30.4355C71.6713 30.8191 71.6127 31.2026 71.4807 31.5633C71.3487 31.924 71.1458 32.2546 70.8841 32.5357C70.6224 32.8168 70.307 33.0428 69.9567 33.2002C69.6063 33.3576 69.228 33.4433 68.844 33.4523ZM55.8777 26.9851V29.0968H60.931C60.8581 30.0873 60.4528 31.0241 59.7808 31.7554C59.2744 32.2716 58.6654 32.6759 57.9931 32.9422C57.3208 33.2085 56.6002 33.3309 55.8777 33.3015C54.4001 33.2824 52.9894 32.682 51.9512 31.6303C50.9131 30.5787 50.3309 29.1604 50.3309 27.6826C50.3309 26.2049 50.9131 24.7866 51.9512 23.7349C52.9894 22.6833 54.4001 22.0829 55.8777 22.0638C57.2964 22.0453 58.6652 22.5873 59.6866 23.5722L61.1761 22.0826C60.4791 21.3928 59.6515 20.8491 58.7417 20.4833C57.8319 20.1176 56.8582 19.9371 55.8777 19.9526C54.853 19.9377 53.8356 20.1266 52.8846 20.5084C51.9336 20.8902 51.068 21.4573 50.3381 22.1766C49.6082 22.8959 49.0286 23.7532 48.633 24.6985C48.2374 25.6439 48.0337 26.6584 48.0337 27.6832C48.0337 28.708 48.2374 29.7226 48.633 30.6679C49.0286 31.6132 49.6082 32.4705 50.3381 33.1898C51.068 33.9092 51.9336 34.4762 52.8846 34.858C53.8356 35.2398 54.853 35.4288 55.8777 35.4139C56.8789 35.4554 57.8775 35.2835 58.8072 34.9097C59.7369 34.5358 60.5765 33.9686 61.2703 33.2455C62.502 31.9011 63.1585 30.1279 63.0993 28.3055C63.1042 27.8629 63.0662 27.4209 62.9861 26.9857L55.8777 26.9851ZM108.905 28.6254C108.606 27.7237 108.037 26.9361 107.274 26.3694C106.512 25.8026 105.593 25.4844 104.644 25.4578C104.004 25.4618 103.372 25.5955 102.786 25.8507C102.199 26.1059 101.671 26.4774 101.232 26.9426C100.793 27.4079 100.453 27.9573 100.233 28.5576C100.013 29.158 99.9161 29.7968 99.9495 30.4355C99.9351 31.0899 100.053 31.7405 100.295 32.3485C100.538 32.9565 100.901 33.5093 101.362 33.9739C101.823 34.4386 102.373 34.8055 102.979 35.0528C103.585 35.3001 104.235 35.4227 104.889 35.4133C105.71 35.4178 106.518 35.2186 107.242 34.8336C107.966 34.4485 108.583 33.8897 109.038 33.2072L107.34 32.076C107.086 32.4981 106.727 32.847 106.297 33.0883C105.867 33.3296 105.382 33.455 104.889 33.4523C104.382 33.4717 103.881 33.3383 103.451 33.0693C103.02 32.8004 102.681 32.4083 102.476 31.9439L109.132 29.1911L108.905 28.6254ZM102.117 30.2847C102.094 29.9224 102.143 29.5591 102.261 29.216C102.38 28.8729 102.566 28.5569 102.808 28.2865C103.05 28.0161 103.344 27.7967 103.672 27.6413C104 27.4858 104.356 27.3973 104.719 27.381C105.097 27.3562 105.473 27.4431 105.802 27.6308C106.13 27.8186 106.396 28.099 106.567 28.4369L102.117 30.2847ZM96.7058 35.1114H98.893V20.4801H96.7058V35.1114ZM93.1233 26.5701H93.0479C92.7154 26.2088 92.3096 25.9227 91.8576 25.7308C91.4056 25.539 90.9179 25.4459 90.427 25.4576C89.1435 25.5123 87.9306 26.0606 87.0417 26.9881C86.1528 27.9157 85.6566 29.1507 85.6566 30.4354C85.6566 31.7201 86.1528 32.9551 87.0417 33.8827C87.9306 34.8102 89.1435 35.3585 90.427 35.4132C90.9198 35.4262 91.4096 35.3318 91.8622 35.1365C92.3148 34.9411 92.7194 34.6495 93.0479 34.2819H93.1233V34.9984C93.1233 36.9028 92.1051 37.9209 90.4647 37.9209C89.918 37.9078 89.3875 37.7323 88.9409 37.4166C88.4943 37.101 88.1518 36.6595 87.9571 36.1485L86.0526 36.9405C86.4116 37.8144 87.0233 38.5612 87.8094 39.0853C88.5955 39.6093 89.5202 39.8867 90.4649 39.8819C93.0293 39.8819 95.1977 38.3735 95.1977 34.6971V25.7594H93.1233V26.5701ZM90.6157 33.4519C89.8597 33.3877 89.1553 33.0422 88.642 32.4835C88.1287 31.9248 87.8438 31.1937 87.8438 30.435C87.8438 29.6764 88.1287 28.9453 88.642 28.3866C89.1553 27.8279 89.8597 27.4823 90.6157 27.4182C90.9918 27.4366 91.3603 27.5305 91.6994 27.6943C92.0384 27.8582 92.341 28.0886 92.5891 28.3719C92.8372 28.6552 93.0257 28.9855 93.1434 29.3432C93.2611 29.7009 93.3056 30.0786 93.2742 30.4538C93.3036 30.8268 93.2576 31.2018 93.1387 31.5566C93.0199 31.9113 92.8307 32.2385 92.5825 32.5184C92.3343 32.7983 92.0322 33.0253 91.6943 33.1858C91.3563 33.3463 90.9895 33.4369 90.6157 33.4523V33.4519ZM119.15 20.4798H113.917V35.1114H116.101V29.5682H119.15C119.768 29.602 120.386 29.5095 120.966 29.2964C121.547 29.0833 122.078 28.7541 122.527 28.3288C122.976 27.9035 123.334 27.3912 123.579 26.823C123.823 26.2548 123.949 25.6428 123.949 25.0243C123.949 24.4057 123.823 23.7937 123.579 23.2255C123.334 22.6573 122.976 22.145 122.527 21.7197C122.078 21.2944 121.547 20.9652 120.966 20.7521C120.386 20.539 119.768 20.4465 119.15 20.4803L119.15 20.4798ZM119.207 27.5315H116.101V22.5166H119.206C119.54 22.5098 119.872 22.5696 120.182 22.6925C120.492 22.8155 120.775 22.9991 121.013 23.2327C121.251 23.4662 121.441 23.7449 121.57 24.0526C121.699 24.3602 121.766 24.6906 121.766 25.0243C121.766 25.358 121.699 25.6884 121.57 25.996C121.441 26.3037 121.251 26.5824 121.013 26.816C120.775 27.0495 120.492 27.2331 120.182 27.3561C119.872 27.479 119.54 27.5388 119.206 27.532L119.207 27.5315ZM132.703 25.4304C131.906 25.3838 131.113 25.571 130.421 25.9689C129.729 26.3668 129.168 26.9582 128.807 27.6703L130.746 28.4798C130.938 28.1263 131.229 27.8365 131.583 27.6459C131.938 27.4554 132.34 27.3723 132.741 27.4068C133.295 27.3527 133.848 27.5205 134.278 27.8733C134.709 28.2262 134.982 28.7353 135.037 29.2891V29.4397C134.336 29.0671 133.554 28.8732 132.76 28.875C130.67 28.875 128.543 30.0233 128.543 32.1691C128.564 32.6213 128.675 33.0649 128.87 33.4734C129.065 33.8819 129.34 34.2471 129.678 34.5473C130.017 34.8475 130.413 35.0765 130.842 35.2209C131.271 35.3652 131.725 35.422 132.176 35.3876C132.726 35.4199 133.274 35.3043 133.764 35.0527C134.254 34.8011 134.668 34.4227 134.962 33.9571H135.037V35.0865H137.145V29.4779C137.145 26.8802 135.207 25.4308 132.703 25.4308V25.4304ZM132.44 33.449C131.724 33.449 130.727 33.0915 130.727 32.2067C130.727 31.0774 131.969 30.6444 133.042 30.6444C133.739 30.6258 134.428 30.7948 135.037 31.1338C134.957 31.7685 134.65 32.3528 134.172 32.7785C133.695 33.2042 133.079 33.4426 132.44 33.4495V33.449ZM144.825 25.7503L142.322 32.0938H142.247L139.649 25.7503H137.297L141.193 34.6161L138.972 39.5478H141.249L147.254 25.7503H144.825ZM125.155 35.1114H127.338V20.4803H125.155V35.1114Z" fill="white"/>
<path d="M12.2134 8.82227C11.8296 9.28114 11.6358 9.8694 11.6717 10.4665V36.3505C11.6357 36.9477 11.8295 37.536 12.2134 37.9948L12.3 38.0792L26.7997 23.5796V23.2375L12.3 8.7373L12.2134 8.82227Z" fill="url(#paint0_linear_125_161)"/>
<path d="M31.6325 28.4148L26.7996 23.5795V23.2374L31.6332 18.4038L31.7421 18.466L37.4685 21.7196C39.1042 22.6489 39.1042 24.1694 37.4685 25.0993L31.7421 28.3529L31.6325 28.4148Z" fill="url(#paint1_linear_125_161)"/>
<path d="M31.7427 28.3522L26.7997 23.4087L12.2134 37.9949C12.5467 38.2888 12.9723 38.4569 13.4165 38.4701C13.8607 38.4832 14.2955 38.3405 14.6455 38.0667L31.7427 28.3527" fill="url(#paint2_linear_125_161)"/>
<path d="M31.7427 18.4649L14.6455 8.75082C14.2955 8.47706 13.8607 8.33439 13.4165 8.34751C12.9723 8.36064 12.5467 8.52874 12.2134 8.82269L26.7997 23.409L31.7427 18.4649Z" fill="url(#paint3_linear_125_161)"/>
<path opacity="0.2" d="M31.6337 28.2432L14.6454 37.8956C14.3089 38.1518 13.8981 38.2916 13.4751 38.2939C13.0521 38.2961 12.6399 38.1608 12.3006 37.9082L12.2134 37.9954L12.3 38.0798C12.6392 38.3325 13.0515 38.468 13.4746 38.4657C13.8976 38.4635 14.3084 38.3236 14.6449 38.0672L31.7422 28.3532L31.6337 28.2432Z" fill="black"/>
<path opacity="0.12" d="M12.2134 37.8244C11.8296 37.3655 11.6358 36.7773 11.6717 36.1802V36.3518C11.6358 36.9489 11.8296 37.5371 12.2134 37.996L12.3007 37.9083L12.2134 37.8244Z" fill="black"/>
<path opacity="0.12" d="M37.4691 24.9274L31.6338 28.2433L31.7427 28.3521L37.4691 25.0985C37.806 24.9523 38.0975 24.7185 38.3133 24.4214C38.529 24.1243 38.6612 23.7747 38.696 23.4092C38.6236 23.7402 38.475 24.0498 38.262 24.3133C38.0491 24.5769 37.7776 24.7871 37.4691 24.9274Z" fill="black"/>
<path opacity="0.25" d="M14.6454 8.92189L37.469 21.8896C37.7776 22.0299 38.0492 22.2402 38.2622 22.5039C38.4752 22.7676 38.6237 23.0773 38.6959 23.4085C38.6614 23.0428 38.5293 22.6931 38.3135 22.3958C38.0977 22.0986 37.806 21.8647 37.469 21.7186L14.6454 8.7509C13.0097 7.82151 11.6716 8.59349 11.6716 10.467V10.6386C11.6716 8.76459 13.0097 7.99262 14.6454 8.92189Z" fill="white"/>
<defs>
<linearGradient id="paint0_linear_125_161" x1="25.5138" y1="10.1936" x2="5.8722" y2="29.8352" gradientUnits="userSpaceOnUse">
<stop stop-color="#00A0FF"/>
<stop offset="0.0066" stop-color="#00A1FF"/>
<stop offset="0.2601" stop-color="#00BEFF"/>
<stop offset="0.5122" stop-color="#00D2FF"/>
<stop offset="0.7604" stop-color="#00DFFF"/>
<stop offset="1" stop-color="#00E3FF"/>
</linearGradient>
<linearGradient id="paint1_linear_125_161" x1="39.5987" y1="23.4091" x2="11.2794" y2="23.4091" gradientUnits="userSpaceOnUse">
<stop stop-color="#FFE000"/>
<stop offset="0.4087" stop-color="#FFBD00"/>
<stop offset="0.7754" stop-color="#FFA500"/>
<stop offset="1" stop-color="#FF9C00"/>
</linearGradient>
<linearGradient id="paint2_linear_125_161" x1="29.0569" y1="26.0948" x2="2.42124" y2="52.7304" gradientUnits="userSpaceOnUse">
<stop stop-color="#FF3A44"/>
<stop offset="1" stop-color="#C31162"/>
</linearGradient>
<linearGradient id="paint3_linear_125_161" x1="8.54064" y1="0.206189" x2="20.4346" y2="12.1001" gradientUnits="userSpaceOnUse">
<stop stop-color="#32A071"/>
<stop offset="0.0685" stop-color="#2DA771"/>
<stop offset="0.4762" stop-color="#15CF74"/>
<stop offset="0.8009" stop-color="#06E775"/>
<stop offset="1" stop-color="#00F076"/>
</linearGradient>
</defs>
</svg>
