<svg width="158" height="47" viewBox="0 0 158 47" fill="none" xmlns="http://www.w3.org/2000/svg">
<path d="M152.148 0H5.85195C2.62007 0 0.000106812 2.61996 0.000106812 5.85185V40.9629C0.000106812 44.1948 2.62007 46.8148 5.85195 46.8148H152.148C155.38 46.8148 158 44.1948 158 40.9629V5.85185C158 2.61996 155.38 0 152.148 0Z" fill="black"/>
<path d="M152.148 0.936418C153.451 0.937905 154.701 1.45627 155.622 2.37779C156.544 3.29931 157.062 4.54874 157.064 5.85197V40.9631C157.062 42.2663 156.544 43.5157 155.622 44.4372C154.701 45.3588 153.451 45.8771 152.148 45.8786H5.85185C4.54862 45.8771 3.29919 45.3588 2.37767 44.4372C1.45615 43.5157 0.937783 42.2663 0.936296 40.9631V5.85197C0.937783 4.54874 1.45615 3.29931 2.37767 2.37779C3.29919 1.45627 4.54862 0.937905 5.85185 0.936418H152.148ZM152.148 0.00012207H5.85185C4.30124 0.00466088 2.81543 0.62265 1.71898 1.7191C0.622528 2.81555 0.00453881 4.30136 0 5.85197V40.9631C0.00453881 42.5137 0.622528 43.9995 1.71898 45.0959C2.81543 46.1924 4.30124 46.8104 5.85185 46.8149H152.148C153.699 46.8104 155.184 46.1924 156.281 45.0959C157.377 43.9995 157.995 42.5137 158 40.9631V5.85197C157.995 4.30136 157.377 2.81555 156.281 1.7191C155.184 0.62265 153.699 0.00466088 152.148 0.00012207V0.00012207Z" fill="#A6A6A6"/>
<path d="M55.4972 11.9884C55.5184 12.4179 55.4521 12.8471 55.3022 13.2501C55.1522 13.6531 54.9218 14.0214 54.625 14.3325C54.2924 14.6775 53.8907 14.9484 53.4461 15.1274C53.0016 15.3064 52.5243 15.3896 52.0454 15.3715C51.3212 15.3633 50.6155 15.1423 50.0161 14.7359C49.4167 14.3294 48.9501 13.7556 48.6746 13.0858C48.3991 12.4161 48.3267 11.68 48.4666 10.9695C48.6065 10.2589 48.9524 9.6052 49.4612 9.08985C49.7978 8.74782 50.2005 8.47793 50.6448 8.29666C51.0891 8.11538 51.5656 8.02651 52.0454 8.03547C52.5409 8.03397 53.0315 8.13415 53.4867 8.32982C53.9095 8.50107 54.2858 8.76975 54.5851 9.11396L53.9678 9.73168C53.7326 9.45484 53.4369 9.23573 53.1036 9.09127C52.7703 8.94681 52.4082 8.88085 52.0454 8.8985C51.6801 8.89661 51.3182 8.96847 50.9813 9.10977C50.6445 9.25108 50.3396 9.45893 50.085 9.72086C49.8304 9.98279 49.6312 10.2934 49.4995 10.6341C49.3678 10.9749 49.3062 11.3387 49.3184 11.7038C49.3097 12.2506 49.4636 12.7876 49.7605 13.2469C50.0574 13.7061 50.484 14.0668 50.9862 14.2833C51.4884 14.4997 52.0436 14.5622 52.5813 14.4627C53.1191 14.3632 53.6152 14.1063 54.0067 13.7245C54.367 13.3362 54.5759 12.8314 54.5953 12.302H52.0454V11.4586H55.448C55.4802 11.6334 55.4966 11.8107 55.4972 11.9884Z" fill="white" stroke="white" stroke-width="0.2" stroke-miterlimit="10"/>
<path d="M60.8918 9.05566H57.6938V11.2825H60.5775V12.1252H57.6938V14.3516H60.8918V15.215H56.7921V8.19275H60.8918V9.05566Z" fill="white" stroke="white" stroke-width="0.2" stroke-miterlimit="10"/>
<path d="M64.6966 15.215H63.7937V9.05566H61.8324V8.19275H66.6579V9.05566H64.6966V15.215Z" fill="white" stroke="white" stroke-width="0.2" stroke-miterlimit="10"/>
<path d="M70.1496 15.215V8.19275H71.0508V15.215H70.1496Z" fill="white" stroke="white" stroke-width="0.2" stroke-miterlimit="10"/>
<path d="M75.0539 15.215H74.151V9.05566H72.1898V8.19275H77.0152V9.05566H75.0539V15.215Z" fill="white" stroke="white" stroke-width="0.2" stroke-miterlimit="10"/>
<path d="M86.1502 14.3074C85.4667 14.9889 84.5409 15.3715 83.5757 15.3715C82.6106 15.3715 81.6848 14.9889 81.0013 14.3074C80.337 13.6033 79.9669 12.6719 79.9669 11.7038C79.9669 10.7358 80.337 9.80435 81.0013 9.10022C81.3391 8.76229 81.7403 8.49431 82.1818 8.31162C82.6233 8.12892 83.0966 8.0351 83.5744 8.03552C84.0522 8.03595 84.5253 8.13061 84.9665 8.31409C85.4077 8.49757 85.8084 8.76626 86.1456 9.10479C86.8119 9.80674 87.1837 10.7374 87.1846 11.7052C87.1854 12.673 86.8152 13.6043 86.1502 14.3074V14.3074ZM81.6677 13.7194C82.1739 14.2249 82.86 14.5087 83.5754 14.5087C84.2907 14.5087 84.9768 14.2249 85.4831 13.7194C85.9853 13.1683 86.2637 12.4495 86.2637 11.7038C86.2637 10.9582 85.9853 10.2394 85.4831 9.68822C84.9768 9.18279 84.2907 8.89891 83.5754 8.89891C82.86 8.89891 82.1739 9.18279 81.6677 9.68822C81.1662 10.2397 80.8883 10.9584 80.8883 11.7038C80.8883 12.4493 81.1662 13.1679 81.6677 13.7194V13.7194Z" fill="white" stroke="white" stroke-width="0.2" stroke-miterlimit="10"/>
<path d="M88.4509 15.215V8.19275H89.5493L92.9621 13.6554H93.0009L92.9624 12.3022V8.19275H93.8654V15.215H92.9236L89.353 9.48765H89.3142L89.353 10.8409V15.215H88.4509Z" fill="white" stroke="white" stroke-width="0.2" stroke-miterlimit="10"/>
<path d="M79.7442 25.4575C78.7605 25.4612 77.7999 25.7563 76.9838 26.3056C76.1677 26.8548 75.5326 27.6335 75.1587 28.5434C74.7848 29.4534 74.689 30.4536 74.8832 31.418C75.0774 32.3824 75.5529 33.2676 76.2499 33.9618C76.9468 34.6561 77.8338 35.1283 78.7989 35.3188C79.764 35.5094 80.7639 35.4097 81.6723 35.0324C82.5808 34.655 83.3571 34.017 83.9033 33.1988C84.4494 32.3806 84.7408 31.4189 84.7408 30.4352C84.7505 29.7773 84.6277 29.1241 84.3798 28.5145C84.1319 27.905 83.7639 27.3516 83.2977 26.8871C82.8315 26.4227 82.2767 26.0568 81.6662 25.8112C81.0557 25.5656 80.4021 25.4453 79.7442 25.4575V25.4575ZM79.7442 33.4521C79.1383 33.4954 78.5335 33.3553 78.0084 33.05C77.4834 32.7447 77.0624 32.2884 76.8002 31.7405C76.5381 31.1926 76.4471 30.5785 76.5389 29.9781C76.6307 29.3777 76.9011 28.8189 77.315 28.3743C77.7289 27.9298 78.267 27.6202 78.8593 27.4858C79.4517 27.3514 80.0707 27.3985 80.6359 27.6208C81.2011 27.8432 81.6863 28.2306 82.0282 28.7326C82.3702 29.2345 82.553 29.8278 82.5531 30.4352C82.5714 30.8189 82.5129 31.2023 82.3809 31.563C82.2488 31.9237 82.046 32.2543 81.7842 32.5354C81.5225 32.8166 81.2072 33.0425 80.8568 33.1999C80.5065 33.3573 80.1282 33.4431 79.7442 33.4521ZM68.8441 25.4575C67.8603 25.4612 66.8998 25.7563 66.0836 26.3055C65.2675 26.8547 64.6324 27.6335 64.2585 28.5434C63.8846 29.4533 63.7887 30.4536 63.9829 31.4179C64.1771 32.3823 64.6527 33.2675 65.3496 33.9618C66.0465 34.6561 66.9335 35.1283 67.8986 35.3188C68.8637 35.5094 69.8636 35.4097 70.7721 35.0324C71.6806 34.6551 72.4569 34.017 73.003 33.1988C73.5492 32.3806 73.8406 31.4189 73.8406 30.4352C73.8503 29.7773 73.7275 29.1241 73.4796 28.5146C73.2317 27.905 72.8637 27.3516 72.3975 26.8872C71.9313 26.4228 71.3765 26.0569 70.766 25.8113C70.1556 25.5657 69.502 25.4454 68.8441 25.4575V25.4575ZM68.8441 33.4521C68.2382 33.4954 67.6334 33.3553 67.1083 33.05C66.5832 32.7447 66.1622 32.2884 65.9001 31.7405C65.638 31.1926 65.5469 30.5785 65.6388 29.9781C65.7306 29.3777 66.001 28.8189 66.4149 28.3743C66.8288 27.9298 67.3669 27.6202 67.9592 27.4858C68.5515 27.3514 69.1706 27.3985 69.7358 27.6208C70.301 27.8432 70.7862 28.2306 71.1281 28.7326C71.47 29.2345 71.6529 29.8278 71.6529 30.4352C71.6713 30.8189 71.6128 31.2023 71.4808 31.563C71.3487 31.9237 71.1459 32.2544 70.8842 32.5355C70.6224 32.8166 70.3071 33.0425 69.9567 33.1999C69.6064 33.3573 69.228 33.4431 68.8441 33.4521V33.4521ZM55.8778 26.9848V29.0965H60.9311C60.8582 30.087 60.4528 31.0239 59.7808 31.7552C59.2744 32.2713 58.6655 32.6756 57.9932 32.9419C57.3209 33.2082 56.6003 33.3306 55.8778 33.3012C54.4001 33.2821 52.9895 32.6818 51.9513 31.6301C50.9131 30.5784 50.331 29.1602 50.331 27.6824C50.331 26.2046 50.9131 24.7863 51.9513 23.7347C52.9895 22.683 54.4001 22.0826 55.8778 22.0636C57.2965 22.045 58.6652 22.5871 59.6866 23.5719L61.1761 22.0824C60.4792 21.3926 59.6516 20.8489 58.7417 20.4831C57.8319 20.1173 56.8582 19.9369 55.8778 19.9523C54.8531 19.9374 53.8357 20.1264 52.8847 20.5082C51.9337 20.89 51.0681 21.457 50.3382 22.1764C49.6083 22.8957 49.0287 23.753 48.6331 24.6983C48.2375 25.6436 48.0338 26.6582 48.0338 27.683C48.0338 28.7078 48.2375 29.7223 48.6331 30.6676C49.0287 31.613 49.6083 32.4703 50.3382 33.1896C51.0681 33.9089 51.9337 34.476 52.8847 34.8578C53.8357 35.2396 54.8531 35.4285 55.8778 35.4136C56.879 35.4551 57.8776 35.2833 58.8073 34.9094C59.737 34.5356 60.5766 33.9683 61.2704 33.2453C62.5021 31.9008 63.1586 30.1277 63.0994 28.3053C63.1042 27.8627 63.0663 27.4207 62.9861 26.9854L55.8778 26.9848ZM108.905 28.6251C108.606 27.7235 108.037 26.9358 107.274 26.3691C106.512 25.8024 105.593 25.4841 104.644 25.4575C104.004 25.4615 103.372 25.5952 102.786 25.8504C102.199 26.1056 101.671 26.4771 101.232 26.9424C100.793 27.4076 100.453 27.9571 100.233 28.5574C100.013 29.1577 99.9161 29.7965 99.9495 30.4352C99.9351 31.0897 100.053 31.7403 100.295 32.3483C100.538 32.9562 100.901 33.509 101.362 33.9737C101.823 34.4383 102.373 34.8052 102.979 35.0525C103.585 35.2998 104.235 35.4225 104.89 35.413C105.71 35.4176 106.518 35.2184 107.242 34.8333C107.966 34.4483 108.583 33.8894 109.038 33.207L107.341 32.0757C107.086 32.4979 106.727 32.8468 106.297 33.088C105.867 33.3293 105.382 33.4548 104.889 33.4521C104.382 33.4715 103.881 33.338 103.451 33.0691C103.02 32.8001 102.681 32.408 102.476 31.9437L109.132 29.1909L108.905 28.6251ZM102.117 30.2845C102.094 29.9222 102.143 29.5588 102.261 29.2157C102.38 28.8726 102.566 28.5566 102.808 28.2862C103.05 28.0159 103.344 27.7965 103.672 27.641C104 27.4856 104.356 27.3971 104.719 27.3808C105.097 27.3559 105.473 27.4428 105.802 27.6306C106.13 27.8184 106.396 28.0987 106.567 28.4367L102.117 30.2845ZM96.7059 35.1112H98.893V20.4798H96.7059V35.1112ZM93.1234 26.5698H93.048C92.7155 26.2086 92.3096 25.9224 91.8577 25.7306C91.4057 25.5387 90.9179 25.4456 90.4271 25.4574C89.1435 25.512 87.9307 26.0603 87.0418 26.9879C86.1529 27.9154 85.6566 29.1505 85.6566 30.4352C85.6566 31.7199 86.1529 32.9549 87.0418 33.8824C87.9307 34.81 89.1435 35.3583 90.4271 35.4129C90.9199 35.426 91.4096 35.3316 91.8622 35.1362C92.3149 34.9408 92.7195 34.6492 93.048 34.2816H93.1234V34.9981C93.1234 36.9026 92.1051 37.9207 90.4648 37.9207C89.918 37.9076 89.3876 37.732 88.941 37.4164C88.4944 37.1007 88.1519 36.6593 87.9571 36.1483L86.0527 36.9402C86.4116 37.8142 87.0234 38.561 87.8095 39.085C88.5956 39.6091 89.5202 39.8865 90.465 39.8816C93.0294 39.8816 95.1977 38.3732 95.1977 34.6969V25.7591H93.1234V26.5698ZM90.6157 33.4516C89.8597 33.3875 89.1554 33.0419 88.6421 32.4832C88.1288 31.9245 87.8439 31.1935 87.8439 30.4348C87.8439 29.6761 88.1288 28.9451 88.6421 28.3864C89.1554 27.8277 89.8597 27.4821 90.6157 27.418C90.9918 27.4364 91.3604 27.5303 91.6994 27.6941C92.0385 27.8579 92.3411 28.0884 92.5892 28.3716C92.8372 28.6549 93.0258 28.9852 93.1435 29.3429C93.2611 29.7006 93.3056 30.0783 93.2742 30.4536C93.3037 30.8265 93.2576 31.2016 93.1388 31.5563C93.0199 31.9111 92.8308 32.2382 92.5826 32.5181C92.3344 32.7981 92.0323 33.0251 91.6943 33.1855C91.3564 33.346 90.9895 33.4367 90.6157 33.4521V33.4516ZM119.151 20.4796H113.918V35.1112H116.101V29.568H119.15C119.768 29.6017 120.386 29.5093 120.966 29.2962C121.547 29.0831 122.078 28.7538 122.527 28.3286C122.976 27.9033 123.334 27.3909 123.579 26.8228C123.823 26.2546 123.949 25.6425 123.949 25.024C123.949 24.4055 123.823 23.7934 123.579 23.2253C123.334 22.6571 122.976 22.1447 122.527 21.7195C122.078 21.2942 121.547 20.965 120.966 20.7519C120.386 20.5388 119.768 20.4463 119.15 20.48L119.151 20.4796ZM119.207 27.5313H116.101V22.5164H119.206C119.54 22.5095 119.872 22.5693 120.182 22.6923C120.492 22.8152 120.775 22.9989 121.013 23.2324C121.252 23.4659 121.441 23.7447 121.57 24.0524C121.699 24.36 121.766 24.6904 121.766 25.0241C121.766 25.3578 121.699 25.6881 121.57 25.9958C121.441 26.3034 121.252 26.5822 121.013 26.8157C120.775 27.0493 120.492 27.2329 120.182 27.3558C119.872 27.4788 119.54 27.5386 119.206 27.5318L119.207 27.5313ZM132.703 25.4301C131.906 25.3836 131.113 25.5708 130.421 25.9687C129.729 26.3666 129.168 26.9579 128.807 27.6701L130.746 28.4795C130.938 28.126 131.229 27.8363 131.583 27.6457C131.938 27.4551 132.34 27.372 132.741 27.4065C133.295 27.3525 133.848 27.5202 134.278 27.8731C134.709 28.2259 134.982 28.735 135.037 29.2888V29.4395C134.336 29.0669 133.554 28.8729 132.76 28.8748C130.67 28.8748 128.543 30.023 128.543 32.1689C128.564 32.6211 128.675 33.0646 128.87 33.4731C129.065 33.8817 129.34 34.2469 129.679 34.547C130.017 34.8472 130.413 35.0763 130.842 35.2206C131.271 35.365 131.725 35.4217 132.176 35.3874C132.726 35.4197 133.274 35.304 133.764 35.0524C134.254 34.8008 134.668 34.4225 134.962 33.9569H135.037V35.0863H137.145V29.4776C137.146 26.88 135.207 25.4306 132.703 25.4306V25.4301ZM132.44 33.4488C131.724 33.4488 130.727 33.0913 130.727 32.2065C130.727 31.0772 131.969 30.6441 133.042 30.6441C133.739 30.6256 134.428 30.7946 135.037 31.1336C134.957 31.7683 134.65 32.3525 134.172 32.7782C133.695 33.2039 133.079 33.4423 132.44 33.4493V33.4488ZM144.825 25.7501L142.322 32.0935H142.247L139.649 25.7501H137.297L141.193 34.6159L138.972 39.5476H141.25L147.254 25.7501H144.825ZM125.155 35.1112H127.339V20.48H125.155V35.1112Z" fill="white"/>
<path d="M12.2133 8.82233C11.8295 9.2812 11.6357 9.86946 11.6716 10.4666V36.3506C11.6356 36.9477 11.8294 37.536 12.2133 37.9948L12.2999 38.0792L26.7996 23.5796V23.2375L12.2999 8.73737L12.2133 8.82233Z" fill="url(#paint0_linear)"/>
<path d="M31.6325 28.4149L26.7996 23.5796V23.2375L31.6332 18.4039L31.7422 18.466L37.4686 21.7196C39.1043 22.6489 39.1043 24.1695 37.4686 25.0993L31.7422 28.3529L31.6325 28.4149Z" fill="url(#paint1_linear)"/>
<path d="M31.7426 28.3522L26.7996 23.4087L12.2133 37.9949C12.5466 38.2888 12.9722 38.4569 13.4164 38.4701C13.8606 38.4832 14.2954 38.3405 14.6454 38.0667L31.7426 28.3527" fill="url(#paint2_linear)"/>
<path d="M31.7426 18.465L14.6454 8.75095C14.2954 8.47719 13.8606 8.33451 13.4164 8.34763C12.9722 8.36076 12.5466 8.52886 12.2133 8.82281L26.7996 23.4091L31.7426 18.465Z" fill="url(#paint3_linear)"/>
<path opacity="0.2" d="M31.6337 28.2433L14.6454 37.8957C14.3089 38.1519 13.8981 38.2917 13.4751 38.294C13.0521 38.2963 12.6399 38.1609 12.3006 37.9083L12.2134 37.9955L12.3 38.0799C12.6392 38.3326 13.0515 38.4681 13.4746 38.4659C13.8976 38.4636 14.3084 38.3237 14.645 38.0674L31.7422 28.3533L31.6337 28.2433Z" fill="black"/>
<path opacity="0.12" d="M12.2133 37.8244C11.8295 37.3655 11.6358 36.7773 11.6716 36.1802V36.3518C11.6357 36.9489 11.8295 37.5371 12.2133 37.996L12.3006 37.9083L12.2133 37.8244Z" fill="black"/>
<path opacity="0.12" d="M37.469 24.9274L31.6337 28.2433L31.7427 28.3522L37.469 25.0986C37.8059 24.9524 38.0974 24.7185 38.3132 24.4214C38.529 24.1243 38.6611 23.7748 38.6959 23.4092V23.4092C38.6235 23.7403 38.4749 24.0498 38.2619 24.3134C38.049 24.5769 37.7775 24.7872 37.469 24.9274V24.9274Z" fill="black"/>
<path opacity="0.25" d="M14.6454 8.92207L37.469 21.8898C37.7776 22.03 38.0492 22.2404 38.2622 22.5041C38.4752 22.7677 38.6237 23.0775 38.6959 23.4087V23.4087C38.6613 23.043 38.5293 22.6933 38.3135 22.396C38.0976 22.0988 37.806 21.8649 37.469 21.7188L14.6454 8.75108C13.0097 7.82169 11.6716 8.59367 11.6716 10.4672V10.6388C11.6716 8.76478 13.0097 7.9928 14.6454 8.92207Z" fill="white"/>
<defs>
<linearGradient id="paint0_linear" x1="25.5137" y1="10.1937" x2="5.87209" y2="29.8353" gradientUnits="userSpaceOnUse">
<stop stop-color="#00A0FF"/>
<stop offset="0.0066" stop-color="#00A1FF"/>
<stop offset="0.2601" stop-color="#00BEFF"/>
<stop offset="0.5122" stop-color="#00D2FF"/>
<stop offset="0.7604" stop-color="#00DFFF"/>
<stop offset="1" stop-color="#00E3FF"/>
</linearGradient>
<linearGradient id="paint1_linear" x1="39.5988" y1="23.4092" x2="11.2794" y2="23.4092" gradientUnits="userSpaceOnUse">
<stop stop-color="#FFE000"/>
<stop offset="0.4087" stop-color="#FFBD00"/>
<stop offset="0.7754" stop-color="#FFA500"/>
<stop offset="1" stop-color="#FF9C00"/>
</linearGradient>
<linearGradient id="paint2_linear" x1="29.0568" y1="26.0948" x2="2.42114" y2="52.7304" gradientUnits="userSpaceOnUse">
<stop stop-color="#FF3A44"/>
<stop offset="1" stop-color="#C31162"/>
</linearGradient>
<linearGradient id="paint3_linear" x1="8.54054" y1="0.206311" x2="20.4345" y2="12.1002" gradientUnits="userSpaceOnUse">
<stop stop-color="#32A071"/>
<stop offset="0.0685" stop-color="#2DA771"/>
<stop offset="0.4762" stop-color="#15CF74"/>
<stop offset="0.8009" stop-color="#06E775"/>
<stop offset="1" stop-color="#00F076"/>
</linearGradient>
</defs>
</svg>
