<?xml version="1.0" encoding="utf-8"?>
<!-- Generator: Adobe Illustrator 25.0.0, SVG Export Plug-In . SVG Version: 6.00 Build 0)  -->
<svg version="1.1" id="e5cd0bf4-c261-4c86-b3fd-776becfeef00"
	 xmlns="http://www.w3.org/2000/svg" xmlns:xlink="http://www.w3.org/1999/xlink" x="0px" y="0px" viewBox="0 0 412.3 478.7"
	 style="enable-background:new 0 0 412.3 478.7;" xml:space="preserve">
<style type="text/css">
	.st0{opacity:0.81;}
	.st1{fill:#EF5050;}
</style>
<g class="st0">
	<path class="st1" d="M377.7,143.3c-3.5,5.9-4.7,9.4-7.1,14.1c-7.1,13-15.3,25.9-22.4,40.1c-7.1,13-14.1,27.1-22.4,38.9
		c-3.5,4.7,0,8.3,2.4,10.6c5.9,11.8,14.1,24.8,20,36.5c5.9,9.4,11.8,18.9,16.5,28.3c4.7,8.3,9.4,16.5,15.3,25.9c-3.5,0-5.9,0-8.3,0
		c-33,0-66,0-97.8,0c-4.7,0-8.3,1.2-10.6,5.9c-10.6,18.9-21.2,36.5-30.6,54.2c-8.3,13-15.3,27.1-23.6,40.1c-2.4,3.5-4.7,3.5-5.9,0
		c-9.4-15.3-17.7-31.8-27.1-47.1c-9.4-16.5-18.9-33-29.5-50.7c-1.2-1.2-4.7-2.4-7.1-2.4c-30.6,0-61.3,0-91.9,0c-3.5,0-7.1,0-9.4,0
		c-3.5,0-4.7-2.4-2.4-4.7c10.6-17.7,20-36.5,30.6-54.2c7.1-11.8,14.1-23.6,21.2-35.4c2.4-4.7-1.2-8.3-3.5-11.8
		c-10.6-16.5-20-33-29.5-49.5c-7.1-11.8-13-22.4-20-34.2c-1.2-1.2-1.2-3.5-2.4-4.7c2.4,0,3.5-1.2,5.9-1.2c31.8,0,64.8,0,96.7,0
		c7.1,0,9.4-2.4,13-8.3c9.4-16.5,18.9-31.8,28.3-48.3c4.7-8.3,9.4-16.5,14.1-24.8c3.5-7.1,7.1-13,11.8-20c2.4-3.5,3.5-3.5,5.9,0
		c9.4,16.5,18.9,33,28.3,48.3c9.4,16.5,18.9,33,27.1,48.3c1.2,3.5,4.7,3.5,8.3,3.5c33,0,64.8,0,97.8,0
		C371.8,142.1,374.1,143.3,377.7,143.3z M205.6,156.2c-46,0-93.1,0-139.1,0c-1.2,0-3.5,0-4.7,0c-3.5,0-3.5,2.4-2.4,4.7
		c13,22.4,25.9,44.8,38.9,67.2c13,23.6,27.1,46,40.1,69.5c11.8,20,22.4,40.1,34.2,58.9c9.4,16.5,18.9,33,29.5,50.7
		c2.4,4.7,3.5,4.7,7.1,0c9.4-15.3,17.7-31.8,27.1-47.1s18.9-31.8,28.3-47.1c10.6-18.9,21.2-36.5,31.8-55.4
		c9.4-15.3,17.7-30.6,27.1-46c9.4-15.3,17.7-31.8,27.1-48.3c1.2-1.2,1.2-3.5,2.4-5.9c-2.4,0-3.5-1.2-5.9-1.2
		C298.7,156.2,251.5,156.2,205.6,156.2z M206.7,69c-1.2,0-1.2,0-2.4-1.2c-14.1,24.8-28.3,49.5-42.4,74.3c29.5,0,57.8,0,87.2,0
		C235,117.3,220.9,92.6,206.7,69z M275.1,321.3c25.9,0,50.7,0,77.8,0c-13-22.4-25.9-43.6-38.9-67.2
		C299.9,277.6,288.1,298.9,275.1,321.3z M95.9,255.2c-13,22.4-25.9,43.6-37.7,66c25.9,0,50.7,0,76.6,0
		C121.9,298.9,108.9,277.6,95.9,255.2z"/>
</g>
</svg>
