<?xml version="1.0" standalone="no"?>
<!DOCTYPE svg PUBLIC "-//W3C//DTD SVG 20010904//EN"
 "http://www.w3.org/TR/2001/REC-SVG-20010904/DTD/svg10.dtd">
<svg version="1.0" xmlns="http://www.w3.org/2000/svg"
 width="958.000000pt" height="958.000000pt" viewBox="0 0 958.000000 958.000000"
 preserveAspectRatio="xMidYMid meet">
<metadata>
Created by potrace 1.14, written by Peter Selinger 2001-2017
</metadata>
<g transform="translate(0.000000,958.000000) scale(0.100000,-0.100000)"
fill="#000000" stroke="none">
<path d="M4732 8795 c-12 -14 -22 -27 -22 -29 0 -5 -66 -106 -80 -123 -6 -7
-15 -24 -22 -38 -6 -14 -16 -25 -21 -25 -6 0 -7 -3 -4 -6 4 -4 -2 -19 -12 -33
-10 -14 -40 -66 -66 -116 -58 -107 -290 -519 -313 -555 -9 -14 -17 -27 -17
-30 -1 -7 -138 -241 -194 -330 -8 -14 -16 -27 -16 -30 0 -3 -9 -18 -19 -35
-11 -16 -30 -47 -43 -67 -12 -21 -23 -42 -23 -48 0 -5 -4 -10 -10 -10 -5 0
-10 -4 -10 -8 0 -14 -257 -450 -287 -487 -33 -41 -87 -73 -139 -81 -36 -6
-236 -9 -259 -4 -5 1 -14 1 -20 0 -29 -6 -245 -4 -245 3 0 5 -5 5 -10 2 -9 -6
-499 -10 -525 -5 -5 1 -14 1 -20 0 -12 -3 -286 -2 -300 0 -5 1 -14 1 -20 0
-12 -3 -286 -2 -300 0 -5 1 -14 1 -20 0 -5 -1 -77 -2 -159 -3 -142 0 -232 -13
-230 -33 1 -24 99 -201 190 -346 13 -21 24 -39 24 -42 0 -2 34 -62 76 -132 42
-71 88 -149 102 -174 14 -25 33 -57 43 -72 11 -14 19 -28 19 -31 0 -3 21 -41
46 -84 26 -43 56 -94 67 -113 131 -233 382 -647 480 -794 52 -78 60 -95 60
-140 1 -46 -5 -61 -66 -160 -37 -59 -67 -110 -67 -111 0 -2 -36 -63 -80 -135
-44 -72 -80 -135 -80 -140 0 -4 -6 -13 -14 -19 -8 -7 -21 -26 -30 -44 -9 -18
-26 -48 -39 -69 -70 -115 -242 -414 -317 -553 -37 -67 -61 -111 -94 -170 -12
-22 -38 -69 -58 -105 -19 -36 -48 -87 -63 -115 -16 -27 -33 -59 -39 -70 -6
-11 -13 -22 -16 -25 -3 -3 -16 -25 -29 -50 -13 -25 -29 -52 -35 -60 -7 -8 -21
-32 -31 -52 -19 -36 -19 -39 -2 -55 16 -17 55 -18 495 -21 262 -1 484 -3 492
-3 608 4 1106 2 1141 -4 81 -13 93 -25 194 -196 52 -88 95 -164 95 -169 0 -4
4 -10 8 -12 5 -1 22 -28 39 -58 60 -111 128 -225 135 -228 5 -2 8 -8 8 -14 0
-6 17 -38 37 -72 21 -33 38 -63 38 -66 0 -3 8 -16 17 -30 12 -20 127 -217 209
-360 8 -14 16 -27 19 -30 3 -3 15 -23 27 -45 36 -68 106 -192 144 -257 16 -27
29 -51 29 -54 0 -2 11 -22 25 -44 14 -22 22 -40 18 -40 -5 0 -3 -4 2 -8 6 -4
40 -59 77 -122 127 -222 144 -245 168 -242 29 3 66 43 104 112 11 19 22 37 26
40 4 3 13 19 22 35 8 17 32 59 53 95 21 36 51 90 68 120 16 30 38 67 49 82 10
14 18 29 18 33 0 4 42 77 93 162 124 209 117 197 172 298 26 50 51 95 55 100
4 6 21 35 37 65 16 30 40 73 53 95 12 22 42 74 65 115 24 41 99 172 167 290
67 118 134 237 148 264 44 85 91 125 165 142 11 3 324 5 695 4 371 0 684 0
695 0 11 0 194 0 407 1 357 1 386 2 381 17 -3 9 -12 24 -18 32 -15 18 -205
339 -205 346 0 2 -11 21 -23 42 -13 20 -45 78 -72 127 -89 167 -100 185 -232
400 -43 72 -102 173 -131 226 -28 53 -65 120 -82 148 -16 29 -30 54 -30 57 0
3 -8 18 -18 32 -11 15 -32 52 -48 82 -15 30 -36 66 -45 80 -9 14 -37 64 -62
112 -46 89 -76 137 -109 172 -10 11 -18 22 -19 25 0 3 -2 15 -4 26 -6 27 5 83
19 98 12 13 126 185 126 190 0 2 25 45 55 95 30 50 55 96 55 102 0 5 5 10 12
10 6 0 8 3 5 6 -4 4 1 19 11 33 9 14 26 44 37 66 11 22 22 42 25 45 3 3 13 21
22 40 10 19 38 73 63 120 26 47 65 121 88 165 22 44 43 82 46 85 4 3 17 29 30
58 14 28 28 52 33 52 4 0 8 5 8 11 0 6 41 80 90 166 50 85 90 159 90 164 0 5
3 9 8 9 4 0 13 15 21 33 8 17 17 34 21 37 11 8 130 251 130 265 0 7 4 15 8 17
4 2 20 24 34 49 l25 46 -46 11 c-25 6 -64 19 -86 28 -37 16 -111 18 -1055 19
-1098 0 -1065 -1 -1093 54 -7 14 -28 53 -47 86 -18 33 -46 85 -63 115 -57 105
-180 325 -198 355 -11 17 -22 37 -26 45 -4 8 -47 84 -95 169 -48 84 -88 157
-88 162 0 5 -4 9 -8 9 -5 0 -14 16 -22 35 -8 19 -17 35 -21 35 -4 0 -9 8 -13
18 -3 9 -15 31 -26 47 -11 17 -28 47 -40 67 -11 20 -24 39 -30 43 -5 3 -10 15
-10 25 0 10 -4 20 -9 22 -5 2 -25 30 -44 63 -19 33 -67 116 -107 185 -41 69
-80 139 -89 155 -8 17 -17 32 -21 35 -4 3 -13 19 -22 35 -41 83 -151 262 -169
278 -28 23 -41 22 -67 -8z m58 -591 c15 -5 77 -97 69 -100 -2 -1 3 -10 12 -20
15 -17 29 -39 73 -119 6 -11 50 -85 98 -165 47 -80 96 -163 108 -185 13 -22
30 -52 39 -67 43 -73 187 -325 196 -343 5 -11 12 -22 15 -25 3 -3 14 -21 24
-40 42 -78 209 -366 219 -378 8 -10 8 -15 0 -20 -8 -5 -1693 -8 -1724 -3 -5 1
297 542 340 611 6 8 41 69 78 135 37 66 72 128 78 137 5 9 20 34 31 55 42 76
257 449 276 478 10 17 21 38 24 48 4 10 12 15 18 12 6 -3 18 -8 26 -11z m2865
-1759 c22 -4 46 -9 53 -11 23 -4 24 -10 8 -48 -8 -20 -15 -39 -15 -41 0 -5
-30 -58 -124 -225 -11 -19 -40 -73 -65 -120 -25 -47 -88 -161 -139 -254 -51
-93 -93 -173 -93 -177 0 -5 -3 -9 -7 -9 -5 0 -13 -10 -19 -23 -19 -38 -77
-141 -86 -152 -11 -12 -275 -459 -346 -585 -23 -41 -147 -253 -171 -291 -9
-15 -43 -73 -75 -130 -32 -57 -65 -111 -72 -119 -7 -8 -12 -17 -11 -20 0 -3
-6 -16 -15 -30 -8 -14 -37 -63 -63 -110 -26 -47 -53 -88 -59 -92 -6 -4 -7 -8
-2 -8 5 0 2 -8 -7 -18 -10 -10 -14 -22 -10 -25 3 -4 1 -7 -5 -7 -7 0 -12 -4
-12 -9 0 -5 -25 -50 -56 -101 -31 -52 -67 -114 -81 -139 -13 -25 -34 -62 -45
-81 -46 -78 -79 -136 -91 -160 -6 -14 -14 -27 -17 -30 -5 -5 -25 -40 -57 -100
-10 -19 -20 -37 -23 -40 -12 -12 -130 -211 -130 -220 0 -6 -4 -10 -8 -10 -5 0
-19 -22 -32 -50 -13 -27 -27 -50 -31 -50 -3 0 -9 -8 -12 -17 -4 -10 -16 -35
-29 -55 -31 -50 -120 -198 -133 -223 -6 -11 -30 -50 -53 -86 -23 -36 -42 -71
-42 -78 0 -6 -4 -11 -8 -11 -5 0 -16 -15 -25 -32 -9 -18 -23 -42 -29 -53 -68
-106 -173 -288 -286 -495 -19 -36 -45 -81 -57 -100 -11 -19 -26 -46 -33 -60
-7 -14 -20 -38 -30 -55 -10 -16 -30 -51 -44 -76 -88 -157 -162 -259 -189 -259
-19 0 -53 47 -144 203 -51 87 -96 163 -99 170 -3 7 -14 26 -25 42 -10 17 -60
102 -111 190 -51 88 -103 178 -117 200 -13 22 -31 56 -41 75 -9 19 -19 37 -22
40 -5 5 -14 21 -58 99 -14 25 -40 70 -59 99 -18 29 -33 57 -33 62 0 6 -4 10
-10 10 -5 0 -10 4 -10 8 0 4 -37 71 -83 147 -46 77 -86 147 -90 155 -4 8 -11
22 -17 30 -9 14 -125 218 -182 320 -14 25 -86 151 -160 280 -74 129 -146 255
-160 280 -55 99 -212 369 -236 405 -7 11 -18 31 -25 45 -7 14 -25 44 -40 67
-15 24 -27 47 -27 53 0 5 -4 10 -9 10 -5 0 -16 17 -25 38 -9 20 -24 49 -34 64
-18 28 -134 226 -171 291 -11 20 -31 54 -42 75 -147 259 -308 540 -329 572 -5
8 -21 35 -35 60 -14 25 -41 72 -60 105 -20 33 -41 71 -48 85 -6 14 -14 27 -17
30 -5 4 -69 114 -121 206 -10 18 -29 51 -43 73 -15 22 -26 43 -26 46 0 3 -22
41 -50 85 -27 44 -46 80 -43 80 3 0 -1 8 -9 18 -23 27 -109 182 -118 212 -9
30 -4 42 22 56 21 11 5728 11 5783 -1z m-666 -2015 c11 -19 29 -51 39 -70 10
-19 29 -53 42 -75 12 -22 34 -60 48 -85 14 -25 63 -110 110 -190 47 -80 93
-160 103 -177 11 -18 27 -48 38 -65 10 -18 56 -96 101 -173 46 -77 105 -178
132 -225 28 -47 54 -91 60 -97 6 -7 7 -13 2 -13 -5 0 -4 -4 2 -8 6 -4 23 -28
38 -54 l28 -48 -776 0 c-427 0 -776 2 -776 4 0 7 150 269 171 298 10 15 19 34
19 42 0 8 4 16 8 18 4 2 36 53 69 113 34 61 66 115 70 121 9 12 21 31 58 100
14 27 35 63 46 79 10 17 22 37 26 45 4 8 24 43 45 78 21 34 38 66 38 71 0 5 6
16 13 23 6 7 23 33 36 58 13 25 30 52 37 61 8 8 14 18 14 22 0 3 25 47 55 97
30 50 55 96 55 102 0 17 23 -8 49 -52z m-4359 -23 c0 -4 26 -51 58 -105 32
-53 62 -104 65 -112 4 -8 32 -55 62 -104 30 -49 55 -91 55 -93 0 -2 12 -22 27
-46 15 -23 34 -54 43 -69 44 -77 172 -292 218 -365 17 -30 32 -55 32 -57 0 -3
100 -175 120 -206 15 -22 50 -89 50 -93 0 -2 -342 -4 -759 -5 l-760 0 9 24
c13 32 41 88 49 94 3 3 16 25 28 50 12 25 45 86 73 135 28 50 54 98 57 108 3
9 9 17 14 17 5 0 9 4 9 9 0 9 90 172 100 181 3 3 18 30 34 60 16 30 35 62 42
71 8 8 14 19 14 23 0 4 16 32 35 62 19 30 35 57 35 60 0 3 16 30 35 60 19 30
35 57 35 59 0 3 12 24 26 46 14 23 37 62 51 87 14 26 38 66 53 89 16 22 31 51
35 63 7 22 7 22 31 -6 13 -16 23 -33 24 -37z"/>
</g>
</svg>
