<svg width="161" height="48" viewBox="0 0 161 48" fill="none" xmlns="http://www.w3.org/2000/svg">
<path d="M159.932 42.0247C159.932 44.5462 157.887 46.5885 155.357 46.5885H5.64281C3.11434 46.5885 1.06207 44.5462 1.06207 42.0247V5.6302C1.06207 3.11001 3.11444 1.06049 5.64281 1.06049H155.356C157.887 1.06049 159.931 3.11001 159.931 5.6302L159.932 42.0247Z" fill="white"/>
<path d="M155.357 47.6503H5.64282C2.53205 47.6503 0 45.1277 0 42.0248V5.63154C0 2.52628 2.53205 0.00012207 5.64282 0.00012207H155.356C158.463 0.00012207 160.999 2.52628 160.999 5.63154V42.0248C161.001 45.1277 158.465 47.6503 155.357 47.6503V47.6503Z" fill="#A6A6A6"/>
<path d="M159.932 42.0247C159.932 44.5462 157.887 46.5885 155.357 46.5885H5.64281C3.11434 46.5885 1.06207 44.5462 1.06207 42.0247V5.6302C1.06207 3.11001 3.11444 1.06049 5.64281 1.06049H155.356C157.887 1.06049 159.931 3.11001 159.931 5.6302L159.932 42.0247Z" fill="black"/>
<path d="M35.9499 23.5743C35.9152 19.7338 39.0988 17.8654 39.2444 17.7784C37.4414 15.1534 34.6469 14.7947 33.6649 14.7661C31.3178 14.5194 29.0411 16.1686 27.8455 16.1686C26.626 16.1686 24.7848 14.7899 22.8005 14.8304C20.2469 14.8698 17.8582 16.3461 16.5479 18.6387C13.8441 23.3133 15.8606 30.1828 18.4512 33.9613C19.747 35.813 21.2613 37.878 23.2432 37.8053C25.1822 37.7267 25.9065 36.5721 28.2464 36.5721C30.5648 36.5721 31.245 37.8053 33.2663 37.7589C35.3474 37.7267 36.6574 35.9 37.9081 34.0328C39.4056 31.913 40.0069 29.8229 40.0308 29.7157C39.983 29.699 35.9904 28.1762 35.9499 23.5743V23.5743ZM32.1315 12.2805C33.1743 10.9781 33.8879 9.20618 33.6899 7.40808C32.1803 7.47481 30.2927 8.45072 29.2056 9.72452C28.2438 10.847 27.3847 12.6868 27.6066 14.417C29.3023 14.5433 31.0433 13.5626 32.1315 12.2805V12.2805Z" fill="white"/>
<path d="M155.357 0H75.1656L106.575 47.6502H155.357C158.464 47.6502 161 45.1276 161 42.0211V5.63142C161.001 2.52615 158.465 0 155.357 0Z" fill="url(#paint0_linear)"/>
<path d="M64.035 37.5396H61.3252L59.8408 32.8817H54.6812L53.2672 37.5396H50.629L55.7421 21.6821H58.8994L64.035 37.5396ZM59.3935 30.9275L58.0511 26.7868C57.9091 26.3638 57.6418 25.3676 57.2503 23.7995H57.2027C57.0452 24.4739 56.7934 25.4701 56.4485 26.7868L55.1288 30.9275H59.3935ZM77.1584 31.6818C77.1584 33.6265 76.6298 35.1636 75.5713 36.2921C74.6239 37.2965 73.4462 37.7983 72.0417 37.7983C70.5251 37.7983 69.4344 37.2584 68.7722 36.1766V42.1762H66.2282V29.8635C66.2282 28.642 66.1961 27.3897 66.1341 26.1052H68.3714L68.5134 27.9176H68.561C69.4094 26.552 70.6969 25.8692 72.4247 25.8692C73.7754 25.8692 74.9031 26.4018 75.8051 27.4683C76.706 28.5372 77.1584 29.9409 77.1584 31.6818V31.6818ZM74.5666 31.7748C74.5666 30.6618 74.316 29.7443 73.8124 29.021C73.2624 28.2691 72.5237 27.8927 71.5978 27.8927C70.9701 27.8927 70.3998 28.1023 69.8903 28.5158C69.3796 28.9328 69.0455 29.4774 68.8892 30.1518C68.8105 30.4664 68.7711 30.7226 68.7711 30.9253V32.8329C68.7711 33.6634 69.0265 34.3654 69.5372 34.9397C70.0479 35.5117 70.7113 35.7987 71.5275 35.7987C72.4858 35.7987 73.2315 35.4282 73.7648 34.6929C74.2993 33.9553 74.5666 32.983 74.5666 31.7748V31.7748ZM90.328 31.6818C90.328 33.6265 89.7994 35.1636 88.741 36.2921C87.7924 37.2965 86.6159 37.7983 85.2102 37.7983C83.6936 37.7983 82.603 37.2584 81.9408 36.1766V42.1762H79.3968V29.8635C79.3968 28.642 79.3646 27.3897 79.3025 26.1052H81.5398L81.6818 27.9176H81.7296C82.5768 26.552 83.8643 25.8692 85.5932 25.8692C86.9427 25.8692 88.0703 26.4018 88.9749 27.4683C89.8747 28.5372 90.328 29.9409 90.328 31.6818ZM87.7351 31.7748C87.7351 30.6618 87.4835 29.7443 86.9798 29.021C86.4297 28.2691 85.6935 27.8927 84.7675 27.8927C84.1399 27.8927 83.5695 28.1023 83.0576 28.5158C82.5469 28.9328 82.2141 29.4774 82.0577 30.1518C81.9801 30.4664 81.9384 30.7226 81.9384 30.9253V32.8329C81.9384 33.6634 82.1949 34.3654 82.7032 34.9397C83.214 35.5105 83.8774 35.7987 84.696 35.7987C85.6552 35.7987 86.401 35.4282 86.9333 34.6929C87.4678 33.9553 87.7351 32.983 87.7351 31.7748V31.7748ZM105.053 33.0915C105.053 34.4415 104.58 35.539 103.641 36.3862C102.608 37.3108 101.165 37.7744 99.3155 37.7744C97.6068 37.7744 96.2369 37.4455 95.2036 36.7865L95.7919 34.6691C96.9075 35.3292 98.133 35.6581 99.467 35.6581C100.426 35.6581 101.172 35.4413 101.704 35.0111C102.238 34.5797 102.507 34.003 102.507 33.2833C102.507 32.6387 102.284 32.0989 101.846 31.6593C101.406 31.2208 100.678 30.8121 99.6557 30.4367C96.8753 29.4012 95.484 27.8867 95.484 25.8944C95.484 24.5932 95.9756 23.5279 96.9566 22.695C97.9374 21.8633 99.238 21.4475 100.856 21.4475C102.301 21.4475 103.505 21.6989 104.461 22.2006L103.822 24.2715C102.923 23.7853 101.907 23.5422 100.771 23.5422C99.874 23.5422 99.1699 23.7627 98.6664 24.2012C98.2428 24.5932 98.028 25.0711 98.028 25.6382C98.028 26.2639 98.2727 26.7834 98.7595 27.1909C99.1819 27.5662 99.9527 27.975 101.067 28.4135C102.435 28.964 103.439 29.6051 104.082 30.3415C104.73 31.0777 105.053 31.9964 105.053 33.0915V33.0915ZM113.485 28.0117H110.681V33.5633C110.681 34.9753 111.175 35.6796 112.166 35.6796C112.62 35.6796 112.997 35.6413 113.296 35.5616L113.366 37.4908C112.865 37.6779 112.205 37.772 111.387 37.772C110.383 37.772 109.598 37.4657 109.031 36.8533C108.466 36.2408 108.183 35.2149 108.183 33.7707V28.007H106.512V26.1004H108.183V24.0068L110.681 23.2537V26.1004H113.485V28.0117V28.0117ZM126.112 31.7283C126.112 33.4858 125.609 34.9288 124.604 36.0573C123.553 37.2191 122.154 37.7982 120.411 37.7982C118.728 37.7982 117.391 37.2417 116.393 36.13C115.396 35.0158 114.897 33.6122 114.897 31.9189C114.897 30.147 115.412 28.6957 116.44 27.5673C117.469 26.4377 118.856 25.8729 120.599 25.8729C122.279 25.8729 123.629 26.4305 124.65 27.5434C125.626 28.623 126.112 30.0172 126.112 31.7283V31.7283ZM123.475 31.7867C123.475 30.7392 123.248 29.8407 122.794 29.0888C122.26 28.1808 121.497 27.7269 120.507 27.7269C119.488 27.7269 118.707 28.1808 118.175 29.0888C117.719 29.8407 117.492 30.7547 117.492 31.8342C117.492 32.8829 117.719 33.7837 118.175 34.5333C118.725 35.4413 119.492 35.8952 120.486 35.8952C121.458 35.8952 122.221 35.4317 122.772 34.5106C123.24 33.7409 123.475 32.8365 123.475 31.7867V31.7867ZM134.385 28.3394C134.133 28.2929 133.863 28.269 133.583 28.269C132.688 28.269 131.996 28.6051 131.509 29.2819C131.087 29.8777 130.874 30.6307 130.874 31.5399V37.5395H128.33V29.7062C128.33 28.3895 128.305 27.1884 128.256 26.1064H130.472L130.565 28.294H130.636C130.905 27.5423 131.328 26.9356 131.908 26.4816C132.475 26.073 133.087 25.8692 133.747 25.8692C133.982 25.8692 134.194 25.8859 134.383 25.9157L134.385 28.3394V28.3394ZM145.762 31.2814C145.762 31.7366 145.732 32.1202 145.669 32.4337H138.037C138.066 33.5633 138.436 34.4284 139.145 35.0242C139.788 35.5557 140.619 35.8226 141.641 35.8226C142.771 35.8226 143.802 35.6438 144.729 35.2828L145.127 37.0451C144.044 37.517 142.765 37.7517 141.289 37.7517C139.513 37.7517 138.12 37.2297 137.105 36.1884C136.093 35.1457 135.586 33.7444 135.586 31.9892C135.586 30.2661 136.058 28.8304 137.002 27.6852C137.99 26.4627 139.325 25.8513 141.005 25.8513C142.655 25.8513 143.904 26.4626 144.753 27.6852C145.425 28.654 145.762 29.8551 145.762 31.2814V31.2814ZM143.336 30.6225C143.354 29.8682 143.187 29.2188 142.842 28.6695C142.402 27.9617 141.724 27.609 140.816 27.609C139.985 27.609 139.307 27.9533 138.791 28.6445C138.368 29.1938 138.116 29.8539 138.039 30.6201L143.336 30.6225Z" fill="white"/>
<path d="M58.1668 16.0065H56.8339L56.1048 13.7175H53.5692L52.8735 16.0065H51.5765L54.0894 8.21236H55.6406L58.1668 16.0065ZM55.8853 12.7571L55.2254 10.7218C55.1562 10.5133 55.0285 10.0283 54.8316 9.2538H54.8078C54.7266 9.58863 54.6109 10.0748 54.4367 10.7218L53.7887 12.7571H55.8853ZM64.4503 10.387L62.3192 16.0065H61.1032L59.0414 10.387H60.385L61.3467 13.3588C61.509 13.8557 61.6474 14.3299 61.7512 14.7804H61.7858C61.879 14.3764 62.0173 13.9022 62.1903 13.3588L63.1401 10.387H64.4503V10.387ZM68.987 16.0065L68.8939 15.3594H68.8592C68.4774 15.8801 67.9213 16.1339 67.215 16.1339C66.2079 16.1339 65.4895 15.4285 65.4895 14.48C65.4895 13.093 66.6935 12.3756 68.7781 12.3756V12.272C68.7781 11.532 68.3843 11.1614 67.6087 11.1614C67.0526 11.1614 66.5658 11.3008 66.1386 11.5785L65.8844 10.7575C66.4058 10.4334 67.0539 10.2713 67.8186 10.2713C69.2887 10.2713 70.0309 11.0458 70.0309 12.5961V14.6659C70.0309 15.2331 70.0547 15.6728 70.112 16.0076L68.987 16.0065V16.0065ZM68.8128 13.2075C67.4228 13.2075 66.7282 13.5435 66.7282 14.3407C66.7282 14.9305 67.0874 15.2189 67.5849 15.2189C68.222 15.2189 68.8128 14.7339 68.8128 14.0749V13.2075ZM72.8161 9.46113C72.3997 9.46113 72.0751 9.13702 72.0751 8.70925C72.0751 8.28147 72.4105 7.96927 72.84 7.96927C73.2683 7.96927 73.6156 8.28147 73.6037 8.70925C73.6037 9.16086 73.2804 9.46113 72.8161 9.46113ZM73.4652 16.0065H72.2147V10.387H73.4652V16.0065ZM76.9375 16.0065H75.687V7.80841H76.9375V16.0065ZM82.2522 16.0065L82.159 15.3594H82.1245C81.7427 15.8801 81.1867 16.1339 80.4803 16.1339C79.4732 16.1339 78.7548 15.4285 78.7548 14.48C78.7548 13.093 79.9587 12.3756 82.0433 12.3756V12.272C82.0433 11.532 81.6495 11.1614 80.8739 11.1614C80.3179 11.1614 79.831 11.3008 79.4039 11.5785L79.1486 10.7563C79.67 10.4322 80.318 10.2701 81.0828 10.2701C82.5529 10.2701 83.295 11.0446 83.295 12.5949V14.6647C83.295 15.2319 83.3202 15.6716 83.3751 16.0064H82.2522V16.0065ZM82.078 13.2075C80.6879 13.2075 79.9934 13.5435 79.9934 14.3407C79.9934 14.9305 80.3525 15.2189 80.8501 15.2189C81.4872 15.2189 82.078 14.7339 82.078 14.0749V13.2075V13.2075ZM88.3617 16.134C87.5634 16.134 86.9739 15.798 86.592 15.139H86.567L86.4954 16.0065H85.4298C85.4644 15.5561 85.4763 15.0461 85.4763 14.492V7.80841H86.728V11.2092H86.7519C87.1229 10.5848 87.7233 10.2726 88.5465 10.2726C89.9021 10.2726 90.8519 11.4296 90.8519 13.1169C90.8519 14.8614 89.797 16.134 88.3617 16.134V16.134ZM88.1074 11.2533C87.3879 11.2533 86.7293 11.8777 86.7293 12.7451V13.7282C86.7293 14.5027 87.3211 15.139 88.0861 15.139C89.0227 15.139 89.58 14.3764 89.58 13.1622C89.5787 12.029 88.9988 11.2533 88.1074 11.2533V11.2533ZM93.9507 16.0065H92.7015V7.80841H93.9507V16.0065ZM100.758 13.497H97.0043C97.0294 14.5611 97.7333 15.1617 98.7762 15.1617C99.3322 15.1617 99.8417 15.0687 100.293 14.8959L100.487 15.7634C99.9551 15.9946 99.3298 16.1102 98.6008 16.1102C96.8395 16.1102 95.7978 14.9996 95.7978 13.2778C95.7978 11.5547 96.8647 10.2595 98.4599 10.2595C99.8955 10.2595 100.8 11.3236 100.8 12.931C100.805 13.1503 100.794 13.3469 100.758 13.497V13.497ZM99.6114 12.6069C99.6114 11.7394 99.171 11.127 98.3716 11.127C97.6532 11.127 97.0877 11.7514 97.0042 12.6069H99.6114V12.6069ZM108.338 16.134C106.693 16.134 105.628 14.9079 105.628 13.2432C105.628 11.5083 106.716 10.2714 108.432 10.2714C110.051 10.2714 111.142 11.4392 111.142 13.1515C111.142 14.9079 110.018 16.134 108.338 16.134ZM108.385 11.1842C107.482 11.1842 106.903 12.0278 106.903 13.2075C106.903 14.3645 107.494 15.2081 108.373 15.2081C109.253 15.2081 109.842 14.3061 109.842 13.1836C109.843 12.0397 109.265 11.1842 108.385 11.1842V11.1842ZM117.864 16.0065H116.615V12.7797C116.615 11.7859 116.233 11.2878 115.48 11.2878C114.739 11.2878 114.229 11.9241 114.229 12.6641V16.0065H112.979V11.9932C112.979 11.4964 112.966 10.9637 112.933 10.3858H114.033L114.091 11.2533H114.126C114.46 10.6527 115.145 10.2702 115.909 10.2702C117.089 10.2702 117.864 11.1722 117.864 12.6403V16.0065H117.864V16.0065ZM126.046 11.3236H124.671V14.0523C124.671 14.747 124.913 15.0937 125.398 15.0937C125.619 15.0937 125.805 15.0699 125.955 15.0354L125.989 15.9839C125.746 16.0769 125.42 16.1233 125.018 16.1233C124.032 16.1233 123.444 15.5799 123.444 14.1572V11.3236H122.623V10.387H123.444V9.35747L124.671 8.98689V10.3858H126.046V11.3236ZM132.669 16.0065H131.417V12.8035C131.417 11.7978 131.035 11.289 130.282 11.289C129.634 11.289 129.033 11.7287 129.033 12.6188V16.0065H127.781V7.80841H129.033V11.1842H129.057C129.451 10.5717 130.019 10.2702 130.748 10.2702C131.94 10.2702 132.669 11.1949 132.669 12.6641V16.0065V16.0065ZM139.059 13.497H135.306C135.33 14.5611 136.034 15.1617 137.077 15.1617C137.634 15.1617 138.142 15.0687 138.593 14.8959L138.789 15.7634C138.257 15.9946 137.631 16.1102 136.901 16.1102C135.14 16.1102 134.099 14.9996 134.099 13.2778C134.099 11.5547 135.165 10.2595 136.761 10.2595C138.196 10.2595 139.101 11.3236 139.101 12.931C139.105 13.1503 139.093 13.3469 139.059 13.497V13.497ZM137.912 12.6069C137.912 11.7394 137.473 11.127 136.673 11.127C135.954 11.127 135.388 11.7514 135.306 12.6069H137.912V12.6069Z" fill="white"/>
<defs>
<linearGradient id="paint0_linear" x1="118.084" y1="47.7797" x2="118.084" y2="4.82789" gradientUnits="userSpaceOnUse">
<stop stop-color="#1A1A1A" stop-opacity="0.1"/>
<stop offset="0.123" stop-color="#212121" stop-opacity="0.151"/>
<stop offset="0.308" stop-color="#353535" stop-opacity="0.227"/>
<stop offset="0.532" stop-color="#575757" stop-opacity="0.318"/>
<stop offset="0.783" stop-color="#858585" stop-opacity="0.421"/>
<stop offset="1" stop-color="#B3B3B3" stop-opacity="0.51"/>
</linearGradient>
</defs>
</svg>
